SplineFontDB: 3.0
FontName: NeutonAlt-Italic
FullName: Neuton Alt Italic
FamilyName: Neuton Alt
Weight: Italic
Copyright: Copyright (c) 2010, 2011 Brian M Zick (http://21326.info/), \nwith Reserved Font Name 'Neuton Alt'.\n\nThis Font Software is licensed under the SIL Open Font License, Version 1.1.\nThis license is available with a FAQ at: http://scripts.sil.org/OFL\n   WITHOUT WARRANTIES OR CONDITIONS OF ANY KIND, either express or implied.\n   See the License for the specific language governing permissions and\n   limitations under the License.
UComments: "2011-7-27: Created." 
Version: 1.46
ItalicAngle: 0
UnderlinePosition: -361
UnderlineWidth: 0
Ascent: 1638
Descent: 410
LayerCount: 2
Layer: 0 1 "Back"  1
Layer: 1 1 "Fore"  0
XUID: [1021 467 2011608612 16041572]
FSType: 1
OS2Version: 1
OS2_WeightWidthSlopeOnly: 0
OS2_UseTypoMetrics: 0
CreationTime: 1311747327
ModificationTime: 1333038469
PfmFamily: 17
TTFWeight: 500
TTFWidth: 5
LineGap: 0
VLineGap: 0
OS2TypoAscent: 2106
OS2TypoAOffset: 0
OS2TypoDescent: -485
OS2TypoDOffset: 0
OS2TypoLinegap: 0
OS2WinAscent: 2106
OS2WinAOffset: 0
OS2WinDescent: 485
OS2WinDOffset: 0
HheadAscent: 2106
HheadAOffset: 0
HheadDescent: -485
HheadDOffset: 0
OS2SubXSize: 1095
OS2SubYSize: 1179
OS2SubXOff: 0
OS2SubYOff: 235
OS2SupXSize: 1095
OS2SupYSize: 1179
OS2SupXOff: 0
OS2SupYOff: 809
OS2StrikeYSize: 84
OS2StrikeYPos: 436
OS2Vendor: 'PfEd'
Lookup: 1 0 0 "'onum' Oldstyle Figures lookup 1"  {"'onum' Oldstyle Figures lookup 1-1" ("osf" ) } ['onum' ('DFLT' <'dflt' > 'hebr' <'dflt' > 'latn' <'dflt' > ) ]
MarkAttachClasses: 1
DEI: 91125
TtTable: prep
PUSHW_1
 511
SCANCTRL
PUSHB_1
 4
SCANTYPE
EndTTInstrs
LangName: 1033 
GaspTable: 1 65535 3 0
Encoding: Custom
UnicodeInterp: none
NameList: Adobe Glyph List
DisplaySize: -24
AntiAlias: 1
FitToEm: 1
WidthSeparation: 150
BeginPrivate: 0
EndPrivate

StartChar: exclam
Encoding: 1 33 0
Width: 494
VWidth: 0
Flags: MW
LayerCount: 2
Back
SplineSet
83 92 m 0,0,1
 83 142 83 142 119.5 176 c 0
 156 210 156 210 206 210 c 0,2,3
 257 210 257 210 294 175 c 0
 331 140 331 140 331 90 c 0,4,5
 331 37 331 37 294.5 0.5 c 0
 258 -36 258 -36 206 -36 c 0,6,7
 154 -36 154 -36 118.5 1.5 c 0
 83 39 83 39 83 92 c 0,0,1
109 1245 m 0,8,9
 109 1270 109 1270 152 1281 c 0
 195 1292 195 1292 240 1292 c 0,10,11
 304 1292 304 1292 304 1253 c 0,12,13
 304 1086 304 1086 249 357 c 1,14,-1
 162 376 l 1,15,16
 157 483 157 483 133 815 c 0
 109 1147 109 1147 109 1245 c 0,8,9
EndSplineSet
Fore
SplineSet
254 1245 m 0,0,1
 258 1270 258 1270 294.5 1281 c 128,-1,2
 331 1292 331 1292 373 1292 c 0,3,4
 400 1292 400 1292 425.5 1284 c 128,-1,5
 451 1276 451 1276 451 1259 c 0,6,7
 451 1219 451 1219 376.5 868.5 c 128,-1,8
 302 518 302 518 254 357 c 1,9,-1
 170 376 l 1,10,11
 181 483 181 483 210 815 c 128,-1,12
 239 1147 239 1147 254 1245 c 0,0,1
187 210 m 0,13,14
 232 210 232 210 263.5 176.5 c 128,-1,15
 295 143 295 143 295 98 c 0,16,17
 295 39 295 39 250.5 1.5 c 128,-1,18
 206 -36 206 -36 148 -36 c 0,19,20
 102 -36 102 -36 73 -1 c 128,-1,21
 44 34 44 34 44 81 c 0,22,23
 44 139 44 139 87 174.5 c 128,-1,24
 130 210 130 210 187 210 c 0,13,14
EndSplineSet
Colour: ffff
EndChar

StartChar: quotedbl
Encoding: 2 34 1
Width: 523
VWidth: 0
Flags: MW
LayerCount: 2
Back
SplineSet
50 1302 m 1,0,-1
 233 1286 l 1,1,-1
 197 903 l 1,2,-1
 104 892 l 1,3,-1
 50 1302 l 1,0,-1
258 1302 m 1,4,-1
 442 1286 l 1,5,-1
 406 903 l 1,6,-1
 311 892 l 1,7,-1
 258 1302 l 1,4,-1
EndSplineSet
Fore
SplineSet
83 1303 m 1,0,-1
 263 1286 l 1,1,-1
 167 903 l 1,2,-1
 71 892 l 1,3,-1
 83 1303 l 1,0,-1
291 1303 m 1,4,-1
 471 1286 l 1,5,-1
 375 903 l 1,6,-1
 280 892 l 1,7,-1
 291 1303 l 1,4,-1
EndSplineSet
Colour: ffff
EndChar

StartChar: numbersign
Encoding: 3 35 2
Width: 1099
VWidth: 0
Flags: MW
LayerCount: 2
Back
SplineSet
182 -26 m 9,0,-1
 359 1149 l 1,1,-1
 475 1159 l 1,2,-1
 299 -19 l 1,3,-1
 182 -26 l 9,0,-1
49 711 m 17,4,-1
 83 836 l 1,5,-1
 992 836 l 1,6,-1
 961 711 l 1,7,-1
 49 711 l 17,4,-1
-22 326 m 1,8,-1
 11 451 l 1,9,-1
 917 451 l 1,10,-1
 886 326 l 1,11,-1
 -22 326 l 1,8,-1
487 -26 m 9,12,-1
 663 1149 l 1,13,-1
 781 1158 l 1,14,-1
 604 -19 l 1,15,-1
 487 -26 l 9,12,-1
EndSplineSet
Fore
SplineSet
42 326 m 1,0,-1
 75 451 l 1,1,-1
 318 451 l 1,2,-1
 357 711 l 1,3,-1
 113 711 l 1,4,-1
 147 836 l 1,5,-1
 376 836 l 1,6,-1
 423 1149 l 1,7,-1
 539 1159 l 1,8,-1
 491 836 l 1,9,-1
 680 836 l 1,10,-1
 727 1149 l 1,11,-1
 845 1158 l 1,12,-1
 797 836 l 1,13,-1
 1056 836 l 1,14,-1
 1025 711 l 1,15,-1
 778 711 l 1,16,-1
 739 451 l 1,17,-1
 981 451 l 1,18,-1
 950 326 l 1,19,-1
 720 326 l 1,20,-1
 668 -19 l 1,21,-1
 551 -26 l 1,22,-1
 604 326 l 1,23,-1
 415 326 l 1,24,-1
 363 -19 l 1,25,-1
 246 -26 l 1,26,-1
 299 326 l 1,27,-1
 42 326 l 1,0,-1
622 451 m 1,28,-1
 661 711 l 1,29,-1
 472 711 l 1,30,-1
 433 451 l 1,31,-1
 622 451 l 1,28,-1
EndSplineSet
Colour: ffff
EndChar

StartChar: dollar
Encoding: 4 36 3
Width: 938
VWidth: 0
Flags: MW
LayerCount: 2
Back
SplineSet
66 122 m 1,0,-1
 79 389 l 1,1,-1
 181 375 l 1,2,-1
 220 187 l 1,3,4
 249 141 249 141 304.5 109 c 0
 360 77 360 77 426 77 c 0,5,6
 483 77 483 77 534.5 97.5 c 0
 586 118 586 118 624.5 167.5 c 0
 663 217 663 217 663 287 c 0,7,8
 663 339 663 339 631.5 383.5 c 0
 600 428 600 428 549.5 461 c 0
 499 494 499 494 437.5 526 c 0
 376 558 376 558 315 594.5 c 0
 254 631 254 631 203.5 673.5 c 0
 153 716 153 716 121.5 778.5 c 0
 90 841 90 841 90 916 c 0,9,10
 90 1025 90 1025 147 1107 c 0
 204 1189 204 1189 291 1229 c 0
 378 1269 378 1269 479 1269 c 0,11,12
 641 1269 641 1269 761 1169 c 1,13,14
 739 887 l 1,15,-1
 640 899 l 1,16,-1
 615 1090 l 1,17,18
 599 1122 599 1122 549.5 1153.5 c 0
 500 1185 500 1185 445 1185 c 0,19,20
 365 1185 365 1185 314 1137 c 0
 263 1089 263 1089 263 995 c 0,21,22
 263 937 263 937 295 889.5 c 0
 327 842 327 842 378.5 807.5 c 0
 430 773 430 773 492.5 741 c 0
 555 709 555 709 617.5 673 c 0
 680 637 680 637 731.5 595.5 c 0
 783 554 783 554 815 492 c 0
 847 430 847 430 847 354 c 0,23,24
 847 243 847 243 783 155 c 0
 719 67 719 67 618 21.5 c 0
 517 -24 517 -24 402 -24 c 0,25,26
 298 -24 298 -24 207.5 17.5 c 0
 117 59 117 59 66 122 c 1,0,-1
367 -179 m 1,27,-1
 379 9 l 1,28,-1
 416 54 l 1,29,-1
 416 631 l 1,30,-1
 421 700 l 1,31,-1
 421 1207 l 1,32,-1
 385 1242 l 1,33,-1
 370 1394 l 1,34,-1
 535 1409 l 1,35,-1
 518 1242 l 1,36,-1
 483 1202 l 1,37,-1
 483 666 l 1,38,-1
 486 582 l 1,39,-1
 486 54 l 1,40,-1
 527 20 l 1,41,-1
 540 -164 l 1,42,-1
 367 -179 l 1,27,-1
EndSplineSet
Fore
SplineSet
832 887 m 1,0,-1
 735 898 l 1,1,-1
 738 1090 l 1,2,3
 732 1112 732 1112 697 1142 c 128,-1,4
 662 1172 662 1172 616 1181 c 1,5,-1
 548 751 l 1,6,7
 563 742 563 742 591 725.5 c 128,-1,8
 619 709 619 709 635 699.5 c 128,-1,9
 651 690 651 690 677 673.5 c 128,-1,10
 703 657 703 657 719.5 644.5 c 128,-1,11
 736 632 736 632 757.5 614 c 128,-1,12
 779 596 779 596 792.5 580 c 128,-1,13
 806 564 806 564 820.5 542.5 c 128,-1,14
 835 521 835 521 843 500 c 128,-1,15
 851 479 851 479 856.5 453 c 128,-1,16
 862 427 862 427 862 400 c 0,17,18
 862 323 862 323 830.5 253 c 128,-1,19
 799 183 799 183 745 131 c 128,-1,20
 691 79 691 79 621.5 42 c 128,-1,21
 552 5 552 5 473 -12 c 1,22,23
 460 -164 l 1,24,-1
 285 -179 l 1,25,-1
 319 -24 l 1,26,27
 223 -17 223 -17 145.5 24 c 128,-1,28
 68 65 68 65 39 122 c 1,29,-1
 96 390 l 1,30,-1
 195 375 l 1,31,-1
 201 187 l 1,32,33
 222 140 222 140 266.5 111 c 128,-1,34
 311 82 311 82 374 78 c 1,35,-1
 448 541 l 1,36,37
 414 561 414 561 393 574.5 c 128,-1,38
 372 588 372 588 341 610 c 128,-1,39
 310 632 310 632 291 650 c 128,-1,40
 272 668 272 668 250 694 c 128,-1,41
 228 720 228 720 215.5 745.5 c 128,-1,42
 203 771 203 771 194.5 803 c 128,-1,43
 186 835 186 835 186 870 c 0,44,45
 186 949 186 949 214 1017 c 128,-1,46
 242 1085 242 1085 290 1133 c 128,-1,47
 338 1181 338 1181 398.5 1213 c 128,-1,48
 459 1245 459 1245 529 1259 c 1,49,-1
 537 1394 l 1,50,-1
 704 1409 l 1,51,-1
 668 1269 l 1,52,53
 823 1258 823 1258 898 1169 c 1,54,-1
 832 887 l 1,0,-1
511 502 m 1,55,-1
 445 83 l 1,56,57
 487 90 487 90 524.5 107.5 c 128,-1,58
 562 125 562 125 594.5 152 c 128,-1,59
 627 179 627 179 646 220.5 c 128,-1,60
 665 262 665 262 665 312 c 0,61,62
 665 368 665 368 625.5 411.5 c 128,-1,63
 586 455 586 455 511 502 c 1,55,-1
492 787 m 1,64,-1
 554 1182 l 1,65,66
 474 1173 474 1173 422.5 1118 c 128,-1,67
 371 1063 371 1063 371 968 c 0,68,69
 371 913 371 913 402.5 870 c 128,-1,70
 434 827 434 827 492 787 c 1,64,-1
EndSplineSet
Colour: ffff
EndChar

StartChar: percent
Encoding: 5 37 4
Width: 1241
VWidth: 0
Flags: MW
LayerCount: 2
Back
SplineSet
29 898 m 0,0,1
 29 1020 29 1020 117 1115.5 c 0
 205 1211 205 1211 301 1211 c 0,2,3
 321 1211 321 1211 330 1208 c 1,4,-1
 340 1142 l 1,5,6
 310 1154 310 1154 295 1154 c 0,7,8
 258 1154 258 1154 234 1112 c 0
 210 1070 210 1070 202 1016 c 0
 194 962 194 962 194 898 c 0,9,10
 194 798 194 798 220 723.5 c 0
 246 649 246 649 297 649 c 0,11,12
 402 649 402 649 402 898 c 0,13,14
 402 1082 402 1082 364 1198 c 1,15,-1
 921 1210 l 1,16,-1
 931 1121 l 1,17,-1
 491 1137 l 1,18,19
 525 1102 525 1102 545.5 1024 c 0
 566 946 566 946 566 898 c 0,20,21
 566 775 566 775 478 679 c 0
 390 583 390 583 297 583 c 0,22,23
 195 583 195 583 112 672 c 0
 29 761 29 761 29 898 c 0,0,1
123 -10 m 1,24,-1
 530 588 l 1,25,-1
 921 1210 l 1,26,-1
 1087 1207 l 1,27,-1
 1085 1178 l 1,28,-1
 684 591 l 1,29,-1
 313 -32 l 1,30,-1
 123 -10 l 1,24,-1
647 277 m 0,31,32
 647 399 647 399 734 494.5 c 0
 821 590 821 590 917 590 c 0,33,34
 1025 590 1025 590 1103 498.5 c 0
 1181 407 1181 407 1181 274 c 0,35,36
 1181 152 1181 152 1096.5 58 c 0
 1012 -36 1012 -36 920 -36 c 0,37,38
 818 -36 818 -36 732.5 53 c 0
 647 142 647 142 647 277 c 0,31,32
812 277 m 0,39,40
 812 180 812 180 840 106 c 0
 868 32 868 32 920 32 c 0,41,42
 1021 32 1021 32 1021 279 c 0,43,44
 1021 344 1021 344 1011.5 399 c 0
 1002 454 1002 454 977.5 494 c 0
 953 534 953 534 917 534 c 0,45,46
 887 534 887 534 865 510.5 c 0
 843 487 843 487 832 447.5 c 0
 821 408 821 408 816.5 366 c 0
 812 324 812 324 812 277 c 0,39,40
EndSplineSet
Fore
SplineSet
769 187 m 0,0,1
 769 119 769 119 788 75.5 c 128,-1,2
 807 32 807 32 846 32 c 0,3,4
 883 32 883 32 912.5 66.5 c 128,-1,5
 942 101 942 101 959 155.5 c 128,-1,6
 976 210 976 210 985.5 269.5 c 128,-1,7
 995 329 995 329 995 386 c 0,8,9
 995 453 995 453 977.5 493.5 c 128,-1,10
 960 534 960 534 922 534 c 0,11,12
 886 534 886 534 856 499.5 c 128,-1,13
 826 465 826 465 807.5 411.5 c 128,-1,14
 789 358 789 358 779 299 c 128,-1,15
 769 240 769 240 769 187 c 0,0,1
931 590 m 0,16,17
 1026 590 1026 590 1088 517.5 c 128,-1,18
 1150 445 1150 445 1150 334 c 0,19,20
 1150 261 1150 261 1119 191 c 128,-1,21
 1088 121 1088 121 1041.5 72.5 c 128,-1,22
 995 24 995 24 939.5 -6 c 128,-1,23
 884 -36 884 -36 835 -36 c 0,24,25
 792 -36 792 -36 751 -17.5 c 128,-1,26
 710 1 710 1 678 33.5 c 128,-1,27
 646 66 646 66 626.5 115 c 128,-1,28
 607 164 607 164 607 221 c 0,29,30
 607 293 607 293 638.5 363 c 128,-1,31
 670 433 670 433 718 481.5 c 128,-1,32
 766 530 766 530 823 560 c 128,-1,33
 880 590 880 590 931 590 c 0,16,17
42 -10 m 1,34,-1
 544 588 l 1,35,-1
 965 1123 l 1,36,-1
 592 1137 l 1,37,38
 613 1111 613 1111 622.5 1059 c 128,-1,39
 632 1007 632 1007 632 953 c 0,40,41
 632 879 632 879 600 809 c 128,-1,42
 568 739 568 739 519.5 690.5 c 128,-1,43
 471 642 471 642 415 612.5 c 128,-1,44
 359 583 359 583 310 583 c 0,45,46
 221 583 221 583 154 654.5 c 128,-1,47
 87 726 87 726 87 840 c 0,48,49
 87 913 87 913 119 983 c 128,-1,50
 151 1053 151 1053 199 1102 c 128,-1,51
 247 1151 247 1151 304.5 1181 c 128,-1,52
 362 1211 362 1211 413 1211 c 0,53,54
 433 1211 433 1211 442 1208 c 1,55,-1
 441 1142 l 1,56,57
 413 1154 413 1154 398 1154 c 0,58,59
 363 1154 363 1154 334 1118 c 128,-1,60
 305 1082 305 1082 286.5 1026.5 c 128,-1,61
 268 971 268 971 258 910.5 c 128,-1,62
 248 850 248 850 248 797 c 0,63,64
 248 731 248 731 265.5 690 c 128,-1,65
 283 649 283 649 320 649 c 0,66,67
 356 649 356 649 385 681.5 c 128,-1,68
 414 714 414 714 432 762.5 c 128,-1,69
 450 811 450 811 461.5 873.5 c 128,-1,70
 473 936 473 936 477.5 990.5 c 128,-1,71
 482 1045 482 1045 482 1094 c 0,72,73
 482 1152 482 1152 474 1198 c 1,74,-1
 1033 1210 l 1,75,-1
 1199 1207 l 1,76,-1
 1192 1178 l 1,77,-1
 698 591 l 1,78,-1
 229 -32 l 1,79,-1
 42 -10 l 1,34,-1
EndSplineSet
Colour: ffff
EndChar

StartChar: ampersand
Encoding: 6 38 5
Width: 1454
VWidth: 0
Flags: MW
LayerCount: 2
Back
SplineSet
33 313 m 0,0,1
 33 544 33 544 310 701 c 1,2,3
 256 746 256 746 217 820 c 0
 178 894 178 894 178 974 c 0,4,5
 178 1090 178 1090 275.5 1180.5 c 0
 373 1271 373 1271 494 1271 c 0,6,7
 634 1271 634 1271 710 1207 c 0
 786 1143 786 1143 786 1011 c 0,8,9
 786 856 786 856 556 716 c 1,10,-1
 556 705 l 1,11,-1
 787 449 l 1,12,-1
 964 719 l 1,13,-1
 813 761 l 1,14,-1
 823 837 l 1,15,-1
 1255 837 l 1,16,-1
 1245 761 l 1,17,-1
 1075 722 l 1,18,-1
 859 380 l 1,19,20
 1113 106 1113 106 1202 79 c 1,21,-1
 1235 70 l 1,22,-1
 1220 0 l 1,23,24
 1166 -19 1166 -19 1100 -19 c 0,25,26
 1061 -19 1061 -19 1023 -6 c 0
 985 7 985 7 951 32.5 c 0
 917 58 917 58 895 78 c 0
 873 98 873 98 844 128 c 2,27,-1
 756 218 l 1,28,29
 717 161 717 161 684 123 c 0
 651 85 651 85 605.5 50 c 0
 560 15 560 15 504 -2 c 0
 448 -19 448 -19 380 -19 c 0,30,31
 225 -19 225 -19 129 72 c 0
 33 163 33 163 33 313 c 0,0,1
221 393 m 0,32,33
 221 270 221 270 276.5 187.5 c 0
 332 105 332 105 439 105 c 0,34,35
 519 105 519 105 584.5 159 c 0
 650 213 650 213 685 282 c 1,36,-1
 372 629 l 1,37,-1
 355 632 l 1,38,39
 297 592 297 592 259 531 c 0
 221 470 221 470 221 393 c 0,32,33
338 1024 m 0,40,41
 338 956 338 956 385 886 c 0
 432 816 432 816 488 773 c 1,42,43
 533 803 533 803 557.5 827 c 0
 582 851 582 851 599 891.5 c 0
 616 932 616 932 616 988 c 0,44,45
 616 1078 616 1078 582 1133 c 0
 548 1188 548 1188 474 1188 c 0,46,47
 413 1188 413 1188 375.5 1139 c 0
 338 1090 338 1090 338 1024 c 0,40,41
EndSplineSet
Fore
SplineSet
594 773 m 1,0,1
 655 810 655 810 690.5 842 c 128,-1,2
 726 874 726 874 747 920.5 c 128,-1,3
 768 967 768 967 768 1029 c 0,4,5
 768 1098 768 1098 731.5 1142.5 c 128,-1,6
 695 1187 695 1187 628 1187 c 0,7,8
 560 1187 560 1187 512.5 1129.5 c 128,-1,9
 465 1072 465 1072 465 1002 c 0,10,11
 465 942 465 942 504.5 881 c 128,-1,12
 544 820 544 820 594 773 c 1,0,1
453 629 m 1,13,-1
 438 631 l 1,14,15
 246 512 246 512 246 338 c 0,16,17
 246 275 246 275 266 224 c 128,-1,18
 286 173 286 173 330.5 139.5 c 128,-1,19
 375 106 375 106 438 106 c 0,20,21
 490 106 490 106 544.5 127.5 c 128,-1,22
 599 149 599 149 639.5 180.5 c 128,-1,23
 680 212 680 212 707 238 c 128,-1,24
 734 264 734 264 746 282 c 1,25,-1
 453 629 l 1,13,-1
1213 723 m 1,26,-1
 947 353 l 1,27,28
 973 319 973 319 1002.5 284.5 c 128,-1,29
 1032 250 1032 250 1074.5 203 c 128,-1,30
 1117 156 1117 156 1159 122 c 128,-1,31
 1201 88 1201 88 1231 79 c 2,32,-1
 1263 69 l 1,33,-1
 1236 0 l 1,34,35
 1176 -20 1176 -20 1112 -20 c 0,36,37
 1072 -20 1072 -20 1032 -1.5 c 128,-1,38
 992 17 992 17 952.5 53 c 128,-1,39
 913 89 913 89 881 126.5 c 128,-1,40
 849 164 849 164 807 218 c 1,41,42
 776 183 776 183 750.5 157 c 128,-1,43
 725 131 725 131 680 95.5 c 128,-1,44
 635 60 635 60 590.5 36.5 c 128,-1,45
 546 13 546 13 484.5 -3.5 c 128,-1,46
 423 -20 423 -20 359 -20 c 0,47,48
 214 -20 214 -20 129.5 60.5 c 128,-1,49
 45 141 45 141 45 262 c 0,50,51
 45 328 45 328 69 389.5 c 128,-1,52
 93 451 93 451 128 495.5 c 128,-1,53
 163 540 163 540 214 582 c 128,-1,54
 265 624 265 624 307 650 c 128,-1,55
 349 676 349 676 400 702 c 1,56,57
 358 743 358 743 326.5 804.5 c 128,-1,58
 295 866 295 866 295 935 c 0,59,60
 295 1021 295 1021 349 1100 c 128,-1,61
 403 1179 403 1179 488 1225.5 c 128,-1,62
 573 1272 573 1272 661 1272 c 0,63,64
 719 1272 719 1272 767.5 1261 c 128,-1,65
 816 1250 816 1250 856.5 1226.5 c 128,-1,66
 897 1203 897 1203 920 1160.5 c 128,-1,67
 943 1118 943 1118 943 1061 c 0,68,69
 943 1011 943 1011 924.5 965.5 c 128,-1,70
 906 920 906 920 880 887 c 128,-1,71
 854 854 854 854 811.5 820 c 128,-1,72
 769 786 769 786 735.5 765 c 128,-1,73
 702 744 702 744 653 717 c 1,74,-1
 651 705 l 1,75,-1
 888 423 l 1,76,-1
 1102 720 l 1,77,-1
 941 761 l 1,78,-1
 962 837 l 1,79,-1
 1411 837 l 1,80,-1
 1390 761 l 1,81,-1
 1213 723 l 1,26,-1
EndSplineSet
Colour: ffff
EndChar

StartChar: quotesingle
Encoding: 7 39 6
Width: 315
VWidth: 0
Flags: MW
LayerCount: 2
Back
SplineSet
50 1302 m 1,0,-1
 233 1286 l 1,1,-1
 197 903 l 1,2,-1
 104 892 l 1,3,-1
 50 1302 l 1,0,-1
EndSplineSet
Fore
SplineSet
83 1303 m 1,0,-1
 263 1286 l 1,1,-1
 167 903 l 1,2,-1
 71 892 l 1,3,-1
 83 1303 l 1,0,-1
EndSplineSet
Colour: ffff
EndChar

StartChar: parenleft
Encoding: 8 40 7
Width: 611
VWidth: 0
Flags: MW
LayerCount: 2
Back
SplineSet
49 445 m 0,0,1
 49 553 49 553 65 652.5 c 0
 81 752 81 752 103.5 825 c 0
 126 898 126 898 161.5 967 c 0
 197 1036 197 1036 225 1078 c 0
 253 1120 253 1120 291 1162 c 0
 329 1204 329 1204 346 1219.5 c 0
 363 1235 363 1235 386 1255 c 1,2,-1
 436 1189 l 1,3,4
 405 1148 405 1148 380.5 1109.5 c 0
 356 1071 356 1071 325.5 1004 c 0
 295 937 295 937 275 864 c 0
 255 791 255 791 241 684 c 0
 227 577 227 577 227 455 c 0,5,6
 227 51 227 51 449 -317 c 1,7,-1
 381 -375 l 1,8,9
 360 -355 360 -355 346 -341 c 0
 332 -327 332 -327 294 -282 c 0
 256 -237 256 -237 228.5 -194 c 0
 201 -151 201 -151 165 -79.5 c 0
 129 -8 129 -8 105.5 66 c 0
 82 140 82 140 65.5 239.5 c 0
 49 339 49 339 49 445 c 0,0,1
EndSplineSet
Fore
SplineSet
347 -317 m 1,0,-1
 268 -375 l 1,1,2
 250 -355 250 -355 230.5 -329.5 c 128,-1,3
 211 -304 211 -304 176 -243 c 128,-1,4
 141 -182 141 -182 115.5 -115 c 128,-1,5
 90 -48 90 -48 70 53 c 128,-1,6
 50 154 50 154 50 261 c 0,7,8
 50 378 50 378 72.5 492 c 128,-1,9
 95 606 95 606 130.5 696.5 c 128,-1,10
 166 787 166 787 213.5 872 c 128,-1,11
 261 957 261 957 306.5 1017.5 c 128,-1,12
 352 1078 352 1078 399.5 1130.5 c 128,-1,13
 447 1183 447 1183 477.5 1210.5 c 128,-1,14
 508 1238 508 1238 531 1255 c 1,15,-1
 570 1189 l 1,16,17
 533 1150 533 1150 492 1091.5 c 128,-1,18
 451 1033 451 1033 403 941 c 128,-1,19
 355 849 355 849 317 747 c 128,-1,20
 279 645 279 645 254 513 c 128,-1,21
 229 381 229 381 229 249 c 0,22,23
 229 147 229 147 242.5 49 c 128,-1,24
 256 -49 256 -49 278.5 -124.5 c 128,-1,25
 301 -200 301 -200 316 -241.5 c 128,-1,26
 331 -283 331 -283 347 -317 c 1,0,-1
EndSplineSet
Colour: ffff
EndChar

StartChar: parenright
Encoding: 9 41 8
Width: 634
VWidth: 0
Flags: MW
LayerCount: 2
Back
SplineSet
44 1189 m 1,0,-1
 93 1255 l 1,1,2
 116 1235 116 1235 133 1219.5 c 0
 150 1204 150 1204 188 1162 c 0
 226 1120 226 1120 254.5 1078 c 0
 283 1036 283 1036 318 967 c 0
 353 898 353 898 376 825 c 0
 399 752 399 752 415 652.5 c 0
 431 553 431 553 431 445 c 0,3,4
 431 339 431 339 414.5 239.5 c 0
 398 140 398 140 374.5 66 c 0
 351 -8 351 -8 315 -79.5 c 0
 279 -151 279 -151 251.5 -194 c 0
 224 -237 224 -237 186 -282 c 0
 148 -327 148 -327 134 -341 c 0
 120 -355 120 -355 99 -375 c 1,5,-1
 30 -317 l 1,6,7
 253 53 253 53 253 455 c 0,8,9
 253 577 253 577 239 684 c 0
 225 791 225 791 205 864 c 0
 185 937 185 937 154.5 1004 c 0
 124 1071 124 1071 99.5 1109.5 c 0
 75 1148 75 1148 44 1189 c 1,0,-1
EndSplineSet
Fore
SplineSet
40 -317 m 1,0,1
 43 -313 43 -313 51 -302 c 0,2,3
 80 -265 80 -265 99.5 -238.5 c 128,-1,4
 119 -212 119 -212 160 -149 c 128,-1,5
 201 -86 201 -86 230 -30 c 128,-1,6
 259 26 259 26 295.5 113 c 128,-1,7
 332 200 332 200 354.5 285 c 128,-1,8
 377 370 377 370 393 480 c 128,-1,9
 409 590 409 590 409 702 c 0,10,11
 409 865 409 865 374.5 988 c 128,-1,12
 340 1111 340 1111 293 1189 c 1,13,-1
 352 1255 l 1,14,15
 373 1235 373 1235 395.5 1207.5 c 128,-1,16
 418 1180 418 1180 453 1122 c 128,-1,17
 488 1064 488 1064 514.5 998 c 128,-1,18
 541 932 541 932 560.5 833.5 c 128,-1,19
 580 735 580 735 580 629 c 0,20,21
 580 530 580 530 565 434 c 128,-1,22
 550 338 550 338 527.5 260.5 c 128,-1,23
 505 183 505 183 470.5 107.5 c 128,-1,24
 436 32 436 32 404 -24 c 128,-1,25
 372 -80 372 -80 329.5 -136 c 128,-1,26
 287 -192 287 -192 257 -226 c 128,-1,27
 227 -260 227 -260 189 -296 c 128,-1,28
 151 -332 151 -332 136 -345 c 128,-1,29
 121 -358 121 -358 100 -375 c 1,30,-1
 40 -317 l 1,0,1
EndSplineSet
Colour: ffff
EndChar

StartChar: asterisk
Encoding: 10 42 9
Width: 807
VWidth: 0
Flags: MW
LayerCount: 2
Back
SplineSet
328 1292 m 1,0,-1
 464 1279 l 1,1,-1
 438 988 l 1,2,-1
 727 1119 l 1,3,-1
 756 989 l 1,4,-1
 471 921 l 1,5,-1
 690 692 l 1,6,-1
 572 623 l 1,7,-1
 419 870 l 1,8,-1
 264 593 l 1,9,-1
 162 685 l 1,10,-1
 355 904 l 1,11,-1
 43 964 l 1,12,-1
 98 1091 l 1,13,-1
 365 977 l 1,14,-1
 328 1292 l 1,0,-1
EndSplineSet
Fore
SplineSet
333 1292 m 1,0,-1
 469 1279 l 1,1,-1
 443 988 l 1,2,-1
 732 1119 l 1,3,-1
 761 989 l 1,4,-1
 476 921 l 1,5,-1
 695 692 l 1,6,-1
 577 623 l 1,7,-1
 424 870 l 1,8,-1
 269 593 l 1,9,-1
 167 685 l 1,10,-1
 360 904 l 1,11,-1
 48 964 l 1,12,-1
 103 1091 l 1,13,-1
 370 977 l 1,14,-1
 333 1292 l 1,0,-1
EndSplineSet
Colour: ffff
EndChar

StartChar: plus
Encoding: 11 43 10
Width: 653
VWidth: 0
Flags: MW
LayerCount: 2
Back
SplineSet
50 409 m 1,0,-1
 62 510 l 1,1,-1
 271 510 l 1,2,-1
 271 741 l 1,3,-1
 380 729 l 1,4,-1
 381 510 l 1,5,-1
 601 510 l 1,6,-1
 589 409 l 1,7,-1
 381 409 l 1,8,-1
 383 174 l 1,9,-1
 271 185 l 1,10,-1
 271 409 l 1,11,-1
 50 409 l 1,0,-1
EndSplineSet
Fore
SplineSet
50 409 m 1,0,-1
 62 510 l 1,1,-1
 271 510 l 1,2,-1
 271 741 l 1,3,-1
 380 729 l 1,4,-1
 381 510 l 1,5,-1
 601 510 l 1,6,-1
 589 409 l 1,7,-1
 381 409 l 1,8,-1
 383 174 l 1,9,-1
 271 185 l 1,10,-1
 271 409 l 1,11,-1
 50 409 l 1,0,-1
EndSplineSet
Colour: ffff
EndChar

StartChar: comma
Encoding: 12 44 11
Width: 483
VWidth: 0
Flags: MW
LayerCount: 2
Back
SplineSet
54 -244 m 1,0,1
 146 -220 146 -220 191 -171.5 c 0
 236 -123 236 -123 236 -70 c 0,2,3
 236 -27 236 -27 203.5 4.5 c 0
 171 36 171 36 120 36 c 0,4,5
 110 36 110 36 90 34 c 1,6,7
 76 71 76 71 76 97 c 0,8,9
 76 152 76 152 115.5 185 c 0
 155 218 155 218 198 218 c 0,10,11
 226 218 226 218 255 206 c 0
 284 194 284 194 311 171 c 0
 338 148 338 148 355 106 c 0
 372 64 372 64 372 10 c 0,12,13
 372 -234 372 -234 77 -313 c 1,14,-1
 54 -244 l 1,0,1
EndSplineSet
Fore
SplineSet
51 -244 m 1,0,1
 147 -219 147 -219 204 -165.5 c 128,-1,2
 261 -112 261 -112 261 -61 c 128,-1,3
 261 -10 261 -10 224.5 17.5 c 128,-1,4
 188 45 188 45 130 30 c 1,5,6
 111 111 111 111 151.5 164.5 c 128,-1,7
 192 218 192 218 267 218 c 0,8,9
 330 218 330 218 374.5 175.5 c 128,-1,10
 419 133 419 133 419 30 c 0,11,12
 419 -10 419 -10 401 -55.5 c 128,-1,13
 383 -101 383 -101 344.5 -151 c 128,-1,14
 306 -201 306 -201 232.5 -245.5 c 128,-1,15
 159 -290 159 -290 62 -314 c 1,16,-1
 51 -244 l 1,0,1
EndSplineSet
Colour: ffff
EndChar

StartChar: hyphen
Encoding: 13 45 12
Width: 558
VWidth: 0
Flags: MW
LayerCount: 2
Back
SplineSet
81 398 m 1,0,-1
 92 498 l 1,1,-1
 500 517 l 1,2,-1
 489 415 l 1,3,-1
 81 398 l 1,0,-1
EndSplineSet
Fore
SplineSet
87 499 m 1,0,-1
 497 517 l 1,1,-1
 470 416 l 1,2,-1
 59 398 l 1,3,-1
 87 499 l 1,0,-1
EndSplineSet
Colour: ffff
EndChar

StartChar: period
Encoding: 14 46 13
Width: 364
VWidth: 0
Flags: MW
LayerCount: 2
Back
SplineSet
73 92 m 0,0,1
 73 140 73 140 108 172.5 c 0
 143 205 143 205 191 205 c 0,2,3
 241 205 241 205 277 171.5 c 0
 313 138 313 138 313 90 c 0,4,5
 313 40 313 40 277 4.5 c 0
 241 -31 241 -31 191 -31 c 0,6,7
 142 -31 142 -31 107.5 5 c 0
 73 41 73 41 73 92 c 0,0,1
EndSplineSet
Fore
SplineSet
200 215 m 0,0,1
 245 215 245 215 272.5 182.5 c 128,-1,2
 300 150 300 150 300 107 c 0,3,4
 300 45 300 45 260.5 6 c 128,-1,5
 221 -33 221 -33 163 -33 c 0,6,7
 124 -33 124 -33 90.5 1 c 128,-1,8
 57 35 57 35 57 74 c 0,9,10
 57 133 57 133 99 174 c 128,-1,11
 141 215 141 215 200 215 c 0,0,1
EndSplineSet
Colour: ffff
EndChar

StartChar: colon
Encoding: 26 58 14
Width: 428
VWidth: 0
Flags: MW
LayerCount: 2
Back
SplineSet
99 119 m 0,0,1
 99 163 99 163 132.5 193.5 c 0
 166 224 166 224 212 224 c 0,2,3
 258 224 258 224 291.5 192.5 c 0
 325 161 325 161 325 117 c 0,4,5
 325 69 325 69 291.5 35 c 0
 258 1 258 1 212 1 c 0,6,7
 166 1 166 1 132.5 36 c 0
 99 71 99 71 99 119 c 0,0,1
99 747 m 0,8,9
 99 792 99 792 132.5 822.5 c 0
 166 853 166 853 212 853 c 0,10,11
 258 853 258 853 291.5 821 c 0
 325 789 325 789 325 744 c 0,12,13
 325 696 325 696 291.5 662.5 c 0
 258 629 258 629 212 629 c 0,14,15
 166 629 166 629 132.5 664 c 0
 99 699 99 699 99 747 c 0,8,9
EndSplineSet
Fore
SplineSet
182 225 m 0,0,1
 223 225 223 225 250.5 199 c 128,-1,2
 278 173 278 173 278 134 c 0,3,4
 278 80 278 80 236.5 41 c 128,-1,5
 195 2 195 2 145 2 c 0,6,7
 103 2 103 2 76.5 30 c 128,-1,8
 50 58 50 58 50 100 c 0,9,10
 50 152 50 152 90.5 188.5 c 128,-1,11
 131 225 131 225 182 225 c 0,0,1
281 852 m 0,12,13
 322 852 322 852 349.5 826.5 c 128,-1,14
 377 801 377 801 377 762 c 0,15,16
 377 707 377 707 336 668 c 128,-1,17
 295 629 295 629 245 629 c 0,18,19
 203 629 203 629 177 657 c 128,-1,20
 151 685 151 685 151 727 c 0,21,22
 151 781 151 781 190.5 816.5 c 128,-1,23
 230 852 230 852 281 852 c 0,12,13
EndSplineSet
Colour: ffff
EndChar

StartChar: semicolon
Encoding: 27 59 15
Width: 488
VWidth: 0
Flags: MW
LayerCount: 2
Back
SplineSet
77 -230 m 1,0,1
 163 -207 163 -207 204.5 -163.5 c 0
 246 -120 246 -120 246 -70 c 0,2,3
 246 -29 246 -29 216 1 c 0
 186 31 186 31 138 31 c 0,4,5
 137 31 137 31 110 28 c 1,6,7
 96 61 96 61 96 87 c 0,8,9
 96 138 96 138 132.5 168.5 c 0
 169 199 169 199 210 199 c 0,10,11
 268 199 268 199 320 149.5 c 0
 372 100 372 100 372 6 c 0,12,13
 372 -223 372 -223 98 -295 c 1,14,-1
 77 -230 l 1,0,1
126 744 m 0,15,16
 126 790 126 790 159.5 821.5 c 0
 193 853 193 853 240 853 c 0,17,18
 288 853 288 853 322 821 c 0
 356 789 356 789 356 743 c 0,19,20
 356 694 356 694 322 660 c 0
 288 626 288 626 240 626 c 0,21,22
 192 626 192 626 159 660.5 c 0
 126 695 126 695 126 744 c 0,15,16
EndSplineSet
Fore
SplineSet
342 852 m 0,0,1
 383 852 383 852 410 826.5 c 128,-1,2
 437 801 437 801 437 762 c 0,3,4
 437 707 437 707 396 668 c 128,-1,5
 355 629 355 629 306 629 c 0,6,7
 264 629 264 629 237.5 657 c 128,-1,8
 211 685 211 685 211 727 c 0,9,10
 211 781 211 781 251 816.5 c 128,-1,11
 291 852 291 852 342 852 c 0,0,1
45 -216 m 1,12,13
 132 -194 132 -194 183 -146 c 128,-1,14
 234 -98 234 -98 234 -52 c 0,15,16
 234 -6 234 -6 201.5 18.5 c 128,-1,17
 169 43 169 43 116 30 c 1,18,19
 99 103 99 103 135 151 c 128,-1,20
 171 199 171 199 239 199 c 0,21,22
 265 199 265 199 287.5 191.5 c 128,-1,23
 310 184 310 184 331 166.5 c 128,-1,24
 352 149 352 149 364 114 c 128,-1,25
 376 79 376 79 376 30 c 0,26,27
 376 2 376 2 366.5 -29.5 c 128,-1,28
 357 -61 357 -61 333.5 -98 c 128,-1,29
 310 -135 310 -135 275 -168.5 c 128,-1,30
 240 -202 240 -202 183 -232 c 128,-1,31
 126 -262 126 -262 55 -279 c 1,32,-1
 45 -216 l 1,12,13
EndSplineSet
Colour: ffff
EndChar

StartChar: slash
Encoding: 15 47 16
Width: 677
VWidth: 0
Flags: MW
LayerCount: 2
Back
SplineSet
439 1235 m 21,0,-1
 571 1244 l 1,1,-1
 106 -355 l 1,2,-1
 -23 -363 l 1,3,-1
 439 1235 l 21,0,-1
EndSplineSet
Fore
SplineSet
41 -363 m 1,0,-1
 503 1235 l 1,1,-1
 635 1244 l 1,2,-1
 169 -355 l 1,3,-1
 41 -363 l 1,0,-1
EndSplineSet
Colour: ffff
EndChar

StartChar: equal
Encoding: 29 61 17
Width: 792
VWidth: 0
Flags: MW
LayerCount: 2
Back
SplineSet
92 319 m 1,0,-1
 102 424 l 1,1,-1
 717 424 l 1,2,-1
 706 319 l 1,3,-1
 92 319 l 1,0,-1
95 559 m 1,4,-1
 105 663 l 1,5,-1
 721 663 l 1,6,-1
 709 559 l 1,7,-1
 95 559 l 1,4,-1
EndSplineSet
Fore
SplineSet
63 559 m 1,0,-1
 73 663 l 1,1,-1
 729 663 l 1,2,-1
 717 559 l 1,3,-1
 63 559 l 1,0,-1
60 319 m 1,4,-1
 70 424 l 1,5,-1
 725 424 l 1,6,-1
 714 319 l 1,7,-1
 60 319 l 1,4,-1
EndSplineSet
Colour: ffff
EndChar

StartChar: greater
Encoding: 30 62 18
Width: 789
VWidth: 0
Flags: MW
LayerCount: 2
Back
SplineSet
59 -13 m 1,0,-1
 519 434 l 1,1,-1
 79 900 l 1,2,-1
 135 973 l 1,3,-1
 755 472 l 1,4,-1
 756 415 l 1,5,-1
 122 -83 l 1,6,-1
 59 -13 l 1,0,-1
EndSplineSet
Fore
SplineSet
43 -13 m 1,0,-1
 503 434 l 1,1,-1
 63 900 l 1,2,-1
 119 973 l 1,3,-1
 739 472 l 1,4,-1
 740 415 l 1,5,-1
 106 -83 l 1,6,-1
 43 -13 l 1,0,-1
EndSplineSet
Colour: ffff
EndChar

StartChar: question
Encoding: 31 63 19
Width: 648
VWidth: 0
Flags: MW
LayerCount: 2
Back
SplineSet
47 1152 m 0,0,1
 47 1203 47 1203 92.5 1245 c 0
 138 1287 138 1287 243 1287 c 0,2,3
 301 1287 301 1287 362 1255.5 c 0
 423 1224 423 1224 473 1169.5 c 0
 523 1115 523 1115 555 1033 c 0
 587 951 587 951 587 860 c 0,4,5
 587 812 587 812 571 774 c 0
 555 736 555 736 529.5 712 c 0
 504 688 504 688 473.5 669 c 0
 443 650 443 650 412.5 634 c 0
 382 618 382 618 356.5 601.5 c 0
 331 585 331 585 315 561.5 c 0
 299 538 299 538 299 508 c 0,6,7
 299 455 299 455 321 383 c 1,8,-1
 246 366 l 1,9,10
 219 405 219 405 194 468.5 c 0
 169 532 169 532 169 585 c 0,11,12
 169 630 169 630 186 664 c 0
 203 698 203 698 230 718 c 0
 257 738 257 738 289.5 753.5 c 0
 322 769 322 769 355 784.5 c 0
 388 800 388 800 415 818 c 0
 442 836 442 836 459 867 c 0
 476 898 476 898 476 939 c 0,13,14
 476 1004 476 1004 419 1058.5 c 0
 362 1113 362 1113 313 1113 c 0,15,16
 255 1113 255 1113 204 1094 c 0
 153 1075 153 1075 121 1041 c 1,17,18
 93 1052 93 1052 70 1083 c 0
 47 1114 47 1114 47 1152 c 0,0,1
159 92 m 0,19,20
 159 142 159 142 195.5 176 c 0
 232 210 232 210 282 210 c 0,21,22
 333 210 333 210 369.5 175 c 0
 406 140 406 140 406 90 c 0,23,24
 406 37 406 37 370 0.5 c 0
 334 -36 334 -36 282 -36 c 0,25,26
 230 -36 230 -36 194.5 1.5 c 0
 159 39 159 39 159 92 c 0,19,20
EndSplineSet
Fore
SplineSet
150 -36 m 0,0,1
 104 -36 104 -36 74 -5.5 c 128,-1,2
 44 25 44 25 44 70 c 0,3,4
 44 130 44 130 88 170 c 128,-1,5
 132 210 132 210 188 210 c 0,6,7
 235 210 235 210 265.5 181.5 c 128,-1,8
 296 153 296 153 296 108 c 0,9,10
 296 48 296 48 250.5 6 c 128,-1,11
 205 -36 205 -36 150 -36 c 0,0,1
321 1288 m 0,12,13
 373 1288 373 1288 423.5 1262.5 c 128,-1,14
 474 1237 474 1237 514 1192.5 c 128,-1,15
 554 1148 554 1148 578.5 1081 c 128,-1,16
 603 1014 603 1014 603 937 c 0,17,18
 603 877 603 877 591 831.5 c 128,-1,19
 579 786 579 786 558.5 758 c 128,-1,20
 538 730 538 730 511.5 709.5 c 128,-1,21
 485 689 485 689 455.5 676 c 128,-1,22
 426 663 426 663 396.5 651 c 128,-1,23
 367 639 367 639 340.5 624 c 128,-1,24
 314 609 314 609 293.5 588.5 c 128,-1,25
 273 568 273 568 261 534 c 128,-1,26
 249 500 249 500 249 454 c 0,27,28
 249 424 249 424 255 383 c 1,29,-1
 178 367 l 1,30,31
 161 401 161 401 146.5 451 c 128,-1,32
 132 501 132 501 132 548 c 0,33,34
 132 598 132 598 148 636 c 128,-1,35
 164 674 164 674 189.5 696 c 128,-1,36
 215 718 215 718 248 737 c 128,-1,37
 281 756 281 756 315.5 767.5 c 128,-1,38
 350 779 350 779 383 796 c 128,-1,39
 416 813 416 813 442 832 c 128,-1,40
 468 851 468 851 484 884 c 128,-1,41
 500 917 500 917 500 960 c 0,42,43
 500 1019 500 1019 453.5 1066 c 128,-1,44
 407 1113 407 1113 363 1113 c 0,45,46
 305 1113 305 1113 251 1094.5 c 128,-1,47
 197 1076 197 1076 160 1042 c 1,48,49
 137 1052 137 1052 119.5 1078 c 128,-1,50
 102 1104 102 1104 102 1137 c 0,51,52
 102 1164 102 1164 114 1189.5 c 128,-1,53
 126 1215 126 1215 150.5 1237.5 c 128,-1,54
 175 1260 175 1260 219 1274 c 128,-1,55
 263 1288 263 1288 321 1288 c 0,12,13
EndSplineSet
Colour: ffff
EndChar

StartChar: at
Encoding: 32 64 20
Width: 1362
VWidth: 0
Flags: MW
LayerCount: 2
Back
SplineSet
54 325 m 0,0,1
 54 523 54 523 146.5 687 c 0
 239 851 239 851 407.5 947.5 c 0
 576 1044 576 1044 787 1044 c 0,2,3
 927 1044 927 1044 1045 988.5 c 0
 1163 933 1163 933 1234.5 827.5 c 0
 1306 722 1306 722 1306 589 c 0,4,5
 1306 454 1306 454 1245.5 335.5 c 0
 1185 217 1185 217 1075 143.5 c 0
 965 70 965 70 832 70 c 0,6,7
 783 70 783 70 759.5 101.5 c 0
 736 133 736 133 738 187 c 1,8,-1
 728 187 l 1,9,10
 693 135 693 135 643 97 c 0
 593 59 593 59 541 59 c 0,11,12
 460 59 460 59 410 130 c 0
 360 201 360 201 360 326 c 0,13,14
 360 428 360 428 398.5 517.5 c 0
 437 607 437 607 496.5 665 c 0
 556 723 556 723 625 756 c 0
 694 789 694 789 758 789 c 0,15,16
 854 789 854 789 924 773 c 1,17,-1
 943 751 l 1,18,-1
 902 385 l 2,19,20
 901 372 901 372 897.5 347 c 0
 894 322 894 322 892 304.5 c 0
 890 287 890 287 888 264.5 c 0
 886 242 886 242 886.5 226.5 c 0
 887 211 887 211 889 196.5 c 0
 891 182 891 182 897.5 175 c 0
 904 168 904 168 914 168 c 0,21,22
 1025 168 1025 168 1099 280.5 c 0
 1173 393 1173 393 1173 549 c 0,23,24
 1173 739 1173 739 1053.5 847 c 0
 934 955 934 955 751 955 c 0,25,26
 631 955 631 955 528 905 c 0
 425 855 425 855 356 771 c 0
 287 687 287 687 248 578 c 0
 209 469 209 469 209 351 c 0,27,28
 209 127 209 127 346 -4 c 0
 483 -135 483 -135 727 -135 c 0,29,30
 828 -135 828 -135 931.5 -96 c 0
 1035 -57 1035 -57 1079 -19 c 1,31,-1
 1115 -83 l 1,32,33
 1111 -85 1111 -85 1069 -111 c 0
 1027 -137 1027 -137 1011.5 -145.5 c 0
 996 -154 996 -154 952 -174.5 c 0
 908 -195 908 -195 875.5 -203.5 c 0
 843 -212 843 -212 793 -220 c 0
 743 -228 743 -228 691 -228 c 0,34,35
 596 -228 596 -228 507.5 -209.5 c 0
 419 -191 419 -191 335.5 -148.5 c 0
 252 -106 252 -106 190.5 -43.5 c 0
 129 19 129 19 91.5 114 c 0
 54 209 54 209 54 325 c 0,0,1
516 368 m 0,36,37
 516 262 516 262 538 221.5 c 0
 560 181 560 181 601 181 c 0,38,39
 677 181 677 181 739 254 c 1,40,-1
 792 692 l 1,41,42
 740 703 740 703 704 703 c 0,43,44
 649 703 649 703 604.5 651 c 0
 560 599 560 599 538 523 c 0
 516 447 516 447 516 368 c 0,36,37
EndSplineSet
Fore
SplineSet
817 69 m 0,0,1
 771 69 771 69 745 100 c 128,-1,2
 719 131 719 131 726 187 c 1,3,-1
 718 187 l 1,4,5
 683 136 683 136 630 97.5 c 128,-1,6
 577 59 577 59 525 59 c 0,7,8
 443 59 443 59 398 121 c 128,-1,9
 353 183 353 183 353 307 c 0,10,11
 353 410 353 410 394 502.5 c 128,-1,12
 435 595 435 595 497.5 656 c 128,-1,13
 560 717 560 717 632 753 c 128,-1,14
 704 789 704 789 768 789 c 0,15,16
 860 789 860 789 931 773 c 1,17,-1
 935 771 l 1,18,-1
 953 751 l 1,19,-1
 898 385 l 2,20,21
 875 234 875 234 880 199 c 0,22,23
 884 168 884 168 903 168 c 0,24,25
 1015 168 1015 168 1095.5 285.5 c 128,-1,26
 1176 403 1176 403 1176 558 c 0,27,28
 1176 750 1176 750 1063 852.5 c 128,-1,29
 950 955 950 955 766 955 c 0,30,31
 607 955 607 955 476.5 866.5 c 128,-1,32
 346 778 346 778 275.5 637.5 c 128,-1,33
 205 497 205 497 205 340 c 0,34,35
 205 115 205 115 334 -10 c 128,-1,36
 463 -135 463 -135 705 -135 c 0,37,38
 799 -135 799 -135 899.5 -98.5 c 128,-1,39
 1000 -62 1000 -62 1050 -28 c 2,40,-1
 1062 -20 l 1,41,-1
 1095 -83 l 1,42,-1
 1086 -88 l 1,43,44
 1045 -115 1045 -115 1012.5 -133.5 c 128,-1,45
 980 -152 980 -152 924.5 -177 c 128,-1,46
 869 -202 869 -202 803 -215 c 128,-1,47
 737 -228 737 -228 665 -228 c 0,48,49
 569 -228 569 -228 483 -211 c 128,-1,50
 397 -194 397 -194 316.5 -154 c 128,-1,51
 236 -114 236 -114 177.5 -54 c 128,-1,52
 119 6 119 6 84 99.5 c 128,-1,53
 49 193 49 193 49 310 c 0,54,55
 49 458 49 458 107 593 c 128,-1,56
 165 728 165 728 265 827 c 128,-1,57
 365 926 365 926 506.5 985 c 128,-1,58
 648 1044 648 1044 806 1044 c 0,59,60
 947 1044 947 1044 1061 990.5 c 128,-1,61
 1175 937 1175 937 1243 834.5 c 128,-1,62
 1311 732 1311 732 1311 598 c 128,-1,63
 1311 464 1311 464 1245.5 342 c 128,-1,64
 1180 220 1180 220 1065 144.5 c 128,-1,65
 950 69 950 69 817 69 c 0,0,1
799 692 m 1,66,67
 751 704 751 704 712 704 c 0,68,69
 657 704 657 704 609.5 647 c 128,-1,70
 562 590 562 590 537 509 c 128,-1,71
 512 428 512 428 512 350 c 0,72,73
 512 277 512 277 521.5 239 c 128,-1,74
 531 201 531 201 546 190.5 c 128,-1,75
 561 180 561 180 589 180 c 0,76,77
 663 180 663 180 730 254 c 1,78,-1
 799 692 l 1,66,67
EndSplineSet
Colour: ffff
EndChar

StartChar: A
Encoding: 33 65 21
Width: 1379
VWidth: 1691
Flags: MW
LayerCount: 2
Back
SplineSet
-37 0 m 1,0,-1
 -28 74 l 1,1,-1
 121 129 l 1,2,-1
 559 1237 l 1,3,-1
 710 1268 l 1,4,-1
 1100 124 l 1,5,-1
 1237 80 l 1,6,-1
 1228 0 l 1,7,-1
 713 0 l 1,8,-1
 725 74 l 1,9,-1
 896 129 l 1,10,-1
 787 432 l 1,11,-1
 368 432 l 1,12,-1
 256 124 l 1,13,-1
 442 80 l 1,14,-1
 431 0 l 1,15,-1
 -37 0 l 1,0,-1
406 534 m 1,16,-1
 758 534 l 1,17,-1
 592 1034 l 1,18,-1
 406 534 l 1,16,-1
EndSplineSet
Fore
SplineSet
570 533 m 1,0,-1
 922 533 l 1,1,-1
 836 1034 l 1,2,-1
 570 533 l 1,0,-1
984 1268 m 1,3,-1
 1203 124 l 1,4,-1
 1332 81 l 1,5,-1
 1310 0 l 1,6,-1
 795 0 l 1,7,-1
 818 74 l 1,8,-1
 1000 129 l 1,9,-1
 937 433 l 1,10,-1
 518 433 l 1,11,-1
 359 124 l 1,12,-1
 537 81 l 1,13,-1
 513 0 l 1,14,-1
 44 0 l 1,15,-1
 65 74 l 1,16,-1
 224 129 l 1,17,-1
 827 1237 l 1,18,-1
 984 1268 l 1,3,-1
EndSplineSet
Colour: ffff
EndChar

StartChar: B
Encoding: 34 66 22
Width: 1219
VWidth: 1691
Flags: MW
LayerCount: 2
Back
SplineSet
50 0 m 1,0,-1
 61 74 l 1,1,-1
 228 121 l 1,2,-1
 228 1104 l 1,3,-1
 57 1134 l 1,4,-1
 67 1211 l 1,5,6
 385 1257 385 1257 559 1257 c 0,7,8
 671 1257 671 1257 757.5 1233 c 0
 844 1209 844 1209 894.5 1168 c 0
 945 1127 945 1127 970.5 1076.5 c 0
 996 1026 996 1026 996 967 c 0,9,10
 996 910 996 910 978.5 858.5 c 0
 961 807 961 807 912.5 756.5 c 0
 864 706 864 706 790 679 c 1,11,-1
 790 672 l 1,12,13
 934 664 934 664 1017 576 c 0
 1100 488 1100 488 1100 380 c 0,14,15
 1100 321 1100 321 1083.5 268 c 0
 1067 215 1067 215 1028 165 c 0
 989 115 989 115 929.5 79 c 0
 870 43 870 43 777.5 21.5 c 0
 685 0 685 0 568 0 c 2,16,-1
 50 0 l 1,0,-1
420 96 m 1,17,-1
 640 96 l 2,18,19
 764 96 764 96 834 169.5 c 0
 904 243 904 243 904 347 c 0,20,21
 904 449 904 449 835 527 c 0
 766 605 766 605 643 605 c 2,22,-1
 420 605 l 1,23,-1
 420 96 l 1,17,-1
420 688 m 1,24,-1
 678 688 l 1,25,26
 808 742 808 742 808 909 c 0,27,28
 808 959 808 959 793.5 1002.5 c 0
 779 1046 779 1046 746 1085.5 c 0
 713 1125 713 1125 650 1148 c 0
 587 1171 587 1171 500 1171 c 0,29,30
 467 1171 467 1171 420 1164 c 1,31,-1
 420 688 l 1,24,-1
EndSplineSet
Fore
SplineSet
618 1164 m 1,0,-1
 535 689 l 1,1,-1
 743 689 l 2,2,3
 845 689 845 689 905 758 c 128,-1,4
 965 827 965 827 965 946 c 0,5,6
 965 989 965 989 952 1026.5 c 128,-1,7
 939 1064 939 1064 910 1098 c 128,-1,8
 881 1132 881 1132 827 1151.5 c 128,-1,9
 773 1171 773 1171 699 1171 c 0,10,11
 657 1171 657 1171 618 1164 c 1,0,-1
902 680 m 1,12,-1
 900 672 l 1,13,14
 1028 665 1028 665 1098.5 587.5 c 128,-1,15
 1169 510 1169 510 1169 411 c 0,16,17
 1169 336 1169 336 1130 265 c 128,-1,18
 1091 194 1091 194 1015.5 134 c 128,-1,19
 940 74 940 74 813 37 c 128,-1,20
 686 0 686 0 527 0 c 2,21,-1
 43 0 l 1,22,-1
 66 74 l 1,23,-1
 243 121 l 1,24,-1
 415 1105 l 1,25,-1
 250 1135 l 1,26,-1
 273 1211 l 1,27,28
 599 1257 599 1257 773 1257 c 0,29,30
 874 1257 874 1257 951 1235 c 128,-1,31
 1028 1213 1028 1213 1073 1175 c 128,-1,32
 1118 1137 1118 1137 1140.5 1091 c 128,-1,33
 1163 1045 1163 1045 1163 993 c 0,34,35
 1163 902 1163 902 1100.5 814.5 c 128,-1,36
 1038 727 1038 727 902 680 c 1,12,-1
742 604 m 2,37,-1
 519 604 l 1,38,-1
 430 96 l 1,39,-1
 633 96 l 2,40,41
 716 96 716 96 782 120.5 c 128,-1,42
 848 145 848 145 887.5 186 c 128,-1,43
 927 227 927 227 947.5 276.5 c 128,-1,44
 968 326 968 326 968 380 c 0,45,46
 968 471 968 471 909.5 537.5 c 128,-1,47
 851 604 851 604 742 604 c 2,37,-1
EndSplineSet
Colour: ffff
EndChar

StartChar: C
Encoding: 35 67 23
Width: 1190
VWidth: 1691
Flags: MW
LayerCount: 2
Back
SplineSet
61 589 m 0,0,1
 61 681 61 681 83.5 773.5 c 0
 106 866 106 866 156.5 956 c 0
 207 1046 207 1046 279.5 1115 c 0
 352 1184 352 1184 462 1226.5 c 0
 572 1269 572 1269 704 1269 c 0,2,3
 934 1269 934 1269 1066 1169 c 1,4,-1
 1035 837 l 1,5,-1
 947 850 l 1,6,-1
 905 1070 l 1,7,8
 824 1174 824 1174 647 1174 c 0,9,10
 487 1174 487 1174 381 1034 c 0
 275 894 275 894 275 658 c 0,11,12
 275 528 275 528 312.5 422 c 0
 350 316 350 316 413 249 c 0
 476 182 476 182 557 146.5 c 0
 638 111 638 111 728 111 c 0,13,14
 822 111 822 111 914.5 153.5 c 0
 1007 196 1007 196 1078 261 c 1,15,-1
 1113 185 l 1,16,17
 1045 102 1045 102 920 39 c 0
 795 -24 795 -24 651 -24 c 0,18,19
 534 -24 534 -24 429 16.5 c 0
 324 57 324 57 241.5 132 c 0
 159 207 159 207 110 325.5 c 0
 61 444 61 444 61 589 c 0,0,1
EndSplineSet
Fore
SplineSet
662 106 m 0,0,1
 761 106 761 106 847 134 c 128,-1,2
 933 162 933 162 1021 240 c 1,3,-1
 1064 185 l 1,4,5
 876 -25 876 -25 558 -25 c 0,6,7
 456 -25 456 -25 364 15.5 c 128,-1,8
 272 56 272 56 203 128 c 128,-1,9
 134 200 134 200 93.5 306 c 128,-1,10
 53 412 53 412 53 535 c 0,11,12
 53 605 53 605 68 677.5 c 128,-1,13
 83 750 83 750 115 822 c 128,-1,14
 147 894 147 894 192 960 c 128,-1,15
 237 1026 237 1026 300.5 1082.5 c 128,-1,16
 364 1139 364 1139 439.5 1181 c 128,-1,17
 515 1223 515 1223 611.5 1246.5 c 128,-1,18
 708 1270 708 1270 814 1270 c 0,19,20
 910 1270 910 1270 996.5 1237.5 c 128,-1,21
 1083 1205 1083 1205 1148 1149 c 1,22,-1
 1065 817 l 1,23,-1
 981 831 l 1,24,-1
 973 1050 l 1,25,26
 897 1174 897 1174 738 1174 c 0,27,28
 647 1174 647 1174 564 1132.5 c 128,-1,29
 481 1091 481 1091 417 1016 c 128,-1,30
 353 941 353 941 314.5 826.5 c 128,-1,31
 276 712 276 712 276 575 c 0,32,33
 276 463 276 463 306.5 373 c 128,-1,34
 337 283 337 283 390 225 c 128,-1,35
 443 167 443 167 512.5 136.5 c 128,-1,36
 582 106 582 106 662 106 c 0,0,1
EndSplineSet
Colour: ffff
EndChar

StartChar: D
Encoding: 36 68 24
Width: 1462
VWidth: 1691
Flags: MW
LayerCount: 2
Back
SplineSet
47 0 m 1,0,-1
 61 74 l 1,1,-1
 233 129 l 1,2,-1
 233 1103 l 1,3,-1
 61 1133 l 1,4,-1
 70 1209 l 1,5,6
 381 1258 381 1258 583 1258 c 0,7,8
 746 1258 746 1258 873 1224 c 0
 1000 1190 1000 1190 1080 1134 c 0
 1160 1078 1160 1078 1211.5 998.5 c 0
 1263 919 1263 919 1283.5 834.5 c 0
 1304 750 1304 750 1304 653 c 0,9,10
 1304 549 1304 549 1274.5 453.5 c 0
 1245 358 1245 358 1182.5 275 c 0
 1120 192 1120 192 1031 131 c 0
 942 70 942 70 816.5 35 c 0
 691 0 691 0 541 0 c 2,11,-1
 47 0 l 1,0,-1
424 104 m 1,12,-1
 569 104 l 2,13,14
 698 104 698 104 800 143.5 c 0
 902 183 902 183 965 251.5 c 0
 1028 320 1028 320 1060.5 408 c 0
 1093 496 1093 496 1093 598 c 0,15,16
 1093 715 1093 715 1058.5 815 c 0
 1024 915 1024 915 958 991.5 c 0
 892 1068 892 1068 786 1111.5 c 0
 680 1155 680 1155 546 1155 c 0,17,18
 464 1155 464 1155 424 1151 c 1,19,-1
 424 104 l 1,12,-1
EndSplineSet
Fore
SplineSet
1416 758 m 0,0,1
 1416 614 1416 614 1352 478 c 128,-1,2
 1288 342 1288 342 1174.5 235.5 c 128,-1,3
 1061 129 1061 129 891 64.5 c 128,-1,4
 721 0 721 0 524 0 c 2,5,-1
 43 0 l 1,6,-1
 68 74 l 1,7,-1
 250 129 l 1,8,-1
 402 1103 l 1,9,-1
 235 1133 l 1,10,-1
 256 1209 l 1,11,12
 574 1258 574 1258 776 1258 c 0,13,14
 916 1258 916 1258 1027 1230.5 c 128,-1,15
 1138 1203 1138 1203 1209.5 1157 c 128,-1,16
 1281 1111 1281 1111 1328.5 1046 c 128,-1,17
 1376 981 1376 981 1396 910 c 128,-1,18
 1416 839 1416 839 1416 758 c 0,0,1
601 1149 m 1,19,-1
 436 104 l 1,20,-1
 583 104 l 2,21,22
 720 104 720 104 835 149 c 128,-1,23
 950 194 950 194 1027.5 271 c 128,-1,24
 1105 348 1105 348 1148 452 c 128,-1,25
 1191 556 1191 556 1191 674 c 0,26,27
 1191 814 1191 814 1141.5 920.5 c 128,-1,28
 1092 1027 1092 1027 984.5 1091.5 c 128,-1,29
 877 1156 877 1156 722 1156 c 0,30,31
 658 1156 658 1156 601 1149 c 1,19,-1
EndSplineSet
Colour: ffff
EndChar

StartChar: E
Encoding: 37 69 25
Width: 1259
VWidth: 1691
Flags: MW
LayerCount: 2
Back
SplineSet
50 1168 m 1,0,-1
 61 1244 l 1,1,-1
 1056 1244 l 1,2,-1
 1025 924 l 1,3,-1
 938 937 l 1,4,-1
 897 1152 l 1,5,-1
 426 1152 l 1,6,-1
 426 676 l 1,7,-1
 716 676 l 1,8,-1
 758 796 l 1,9,-1
 853 810 l 1,10,-1
 819 421 l 1,11,-1
 734 408 l 1,12,-1
 700 583 l 1,13,-1
 426 583 l 1,14,-1
 426 96 l 1,15,-1
 921 96 l 1,16,-1
 1019 326 l 1,17,-1
 1102 313 l 1,18,-1
 1072 0 l 1,19,-1
 57 0 l 1,20,-1
 65 74 l 1,21,-1
 232 121 l 1,22,-1
 232 1126 l 1,23,-1
 50 1168 l 1,0,-1
EndSplineSet
Fore
SplineSet
242 1244 m 1,0,-1
 1217 1244 l 1,1,-1
 1148 925 l 1,2,-1
 1064 938 l 1,3,-1
 1044 1153 l 1,4,-1
 592 1153 l 1,5,-1
 519 677 l 1,6,-1
 810 677 l 1,7,-1
 861 796 l 1,8,-1
 957 809 l 1,9,-1
 874 421 l 1,10,-1
 787 408 l 1,11,-1
 780 583 l 1,12,-1
 504 583 l 1,13,-1
 427 96 l 1,14,-1
 934 96 l 1,15,-1
 1047 325 l 1,16,-1
 1130 314 l 1,17,-1
 1069 0 l 1,18,-1
 43 0 l 1,19,-1
 63 74 l 1,20,-1
 238 121 l 1,21,-1
 397 1126 l 1,22,-1
 220 1168 l 1,23,-1
 242 1244 l 1,0,-1
EndSplineSet
Colour: ffff
EndChar

StartChar: F
Encoding: 38 70 26
Width: 1116
VWidth: 1691
Flags: MW
LayerCount: 2
Back
SplineSet
50 1168 m 1,0,-1
 61 1244 l 1,1,-1
 1054 1244 l 1,2,-1
 1013 922 l 1,3,-1
 925 936 l 1,4,-1
 891 1152 l 1,5,-1
 426 1152 l 1,6,-1
 426 670 l 1,7,-1
 713 670 l 1,8,-1
 755 790 l 1,9,-1
 845 804 l 1,10,-1
 818 412 l 1,11,-1
 730 398 l 1,12,-1
 700 578 l 1,13,-1
 426 578 l 1,14,-1
 423 122 l 1,15,-1
 661 83 l 1,16,-1
 648 0 l 1,17,-1
 57 0 l 1,18,-1
 65 74 l 1,19,-1
 232 121 l 1,20,-1
 232 1126 l 1,21,-1
 50 1168 l 1,0,-1
EndSplineSet
Fore
SplineSet
242 1244 m 1,0,-1
 1236 1244 l 1,1,-1
 1167 923 l 1,2,-1
 1081 936 l 1,3,-1
 1057 1153 l 1,4,-1
 592 1153 l 1,5,-1
 517 670 l 1,6,-1
 805 670 l 1,7,-1
 856 791 l 1,8,-1
 947 804 l 1,9,-1
 872 413 l 1,10,-1
 781 398 l 1,11,-1
 777 578 l 1,12,-1
 502 578 l 1,13,-1
 430 122 l 1,14,-1
 661 84 l 1,15,-1
 635 0 l 1,16,-1
 43 0 l 1,17,-1
 63 74 l 1,18,-1
 238 121 l 1,19,-1
 397 1126 l 1,20,-1
 220 1168 l 1,21,-1
 242 1244 l 1,0,-1
EndSplineSet
Colour: ffff
EndChar

StartChar: G
Encoding: 39 71 27
Width: 1319
VWidth: 1691
Flags: MW
LayerCount: 2
Back
SplineSet
61 578 m 0,0,1
 61 703 61 703 97 813 c 0
 133 923 133 923 196 1004 c 0
 259 1085 259 1085 342.5 1143 c 0
 426 1201 426 1201 521.5 1230.5 c 0
 617 1260 617 1260 717 1260 c 0,2,3
 976 1260 976 1260 1139 1163 c 1,4,-1
 1115 841 l 1,5,-1
 1028 856 l 1,6,-1
 992 1047 l 1,7,8
 950 1089 950 1089 861.5 1125 c 0
 773 1161 773 1161 667 1161 c 0,9,10
 590 1161 590 1161 522 1131.5 c 0
 454 1102 454 1102 398 1042.5 c 0
 342 983 342 983 309 881 c 0
 276 779 276 779 276 647 c 0,11,12
 276 558 276 558 296.5 474 c 0
 317 390 317 390 359 318 c 0
 401 246 401 246 459.5 192 c 0
 518 138 518 138 598 107.5 c 0
 678 77 678 77 771 77 c 0,13,14
 870 77 870 77 943 119 c 1,15,-1
 943 434 l 1,16,-1
 707 472 l 1,17,-1
 719 555 l 1,18,-1
 1275 555 l 1,19,-1
 1263 480 l 1,20,-1
 1139 439 l 1,21,-1
 1139 79 l 1,22,23
 1042 21 1042 21 926.5 -5 c 0
 811 -31 811 -31 658 -31 c 0,24,25
 511 -31 511 -31 395.5 16 c 0
 280 63 280 63 208 146 c 0
 136 229 136 229 98.5 338.5 c 0
 61 448 61 448 61 578 c 0,0,1
EndSplineSet
Fore
SplineSet
1236 1163 m 1,0,-1
 1160 841 l 1,1,-1
 1074 855 l 1,2,-1
 1069 1047 l 1,3,4
 1038 1094 1038 1094 961 1127.5 c 128,-1,5
 884 1161 884 1161 759 1161 c 0,6,7
 687 1161 687 1161 620 1141.5 c 128,-1,8
 553 1122 553 1122 490.5 1076.5 c 128,-1,9
 428 1031 428 1031 382 963.5 c 128,-1,10
 336 896 336 896 308.5 792 c 128,-1,11
 281 688 281 688 281 559 c 0,12,13
 281 479 281 479 296 408.5 c 128,-1,14
 311 338 311 338 343.5 276.5 c 128,-1,15
 376 215 376 215 423 171 c 128,-1,16
 470 127 470 127 537.5 101.5 c 128,-1,17
 605 76 605 76 686 76 c 0,18,19
 820 76 820 76 876 122 c 1,20,-1
 924 434 l 1,21,-1
 694 472 l 1,22,-1
 719 555 l 1,23,-1
 1276 555 l 1,24,-1
 1252 481 l 1,25,-1
 1120 439 l 1,26,-1
 1066 88 l 1,27,28
 980 32 980 32 846 0.5 c 128,-1,29
 712 -31 712 -31 549 -31 c 0,30,31
 447 -31 447 -31 364 -3 c 128,-1,32
 281 25 281 25 224 73 c 128,-1,33
 167 121 167 121 128 187.5 c 128,-1,34
 89 254 89 254 71 329.5 c 128,-1,35
 53 405 53 405 53 489 c 0,36,37
 53 632 53 632 97.5 757.5 c 128,-1,38
 142 883 142 883 218.5 973.5 c 128,-1,39
 295 1064 295 1064 394 1129.5 c 128,-1,40
 493 1195 493 1195 603 1227.5 c 128,-1,41
 713 1260 713 1260 825 1260 c 0,42,43
 969 1260 969 1260 1068 1236.5 c 128,-1,44
 1167 1213 1167 1213 1236 1163 c 1,0,-1
EndSplineSet
Colour: ffff
EndChar

StartChar: H
Encoding: 40 72 28
Width: 1650
VWidth: 1691
Flags: MW
LayerCount: 2
Back
SplineSet
50 1168 m 1,0,-1
 61 1244 l 1,1,-1
 605 1244 l 1,2,-1
 595 1168 l 1,3,-1
 427 1130 l 1,4,-1
 427 692 l 1,5,-1
 1054 692 l 1,6,-1
 1054 1126 l 1,7,-1
 871 1168 l 1,8,-1
 882 1244 l 1,9,-1
 1428 1244 l 1,10,-1
 1416 1168 l 1,11,-1
 1249 1130 l 1,12,-1
 1249 114 l 1,13,-1
 1431 80 l 1,14,-1
 1421 0 l 1,15,-1
 878 0 l 1,16,-1
 888 74 l 1,17,-1
 1054 121 l 1,18,-1
 1054 589 l 1,19,-1
 427 589 l 1,20,-1
 427 114 l 1,21,-1
 611 80 l 1,22,-1
 598 0 l 1,23,-1
 57 0 l 1,24,-1
 65 74 l 1,25,-1
 232 121 l 1,26,-1
 232 1126 l 1,27,-1
 50 1168 l 1,0,-1
EndSplineSet
Fore
SplineSet
585 0 m 1,0,-1
 43 0 l 1,1,-1
 63 74 l 1,2,-1
 238 121 l 1,3,-1
 397 1126 l 1,4,-1
 220 1168 l 1,5,-1
 242 1244 l 1,6,-1
 787 1244 l 1,7,-1
 765 1168 l 1,8,-1
 592 1130 l 1,9,-1
 522 692 l 1,10,-1
 1150 692 l 1,11,-1
 1219 1126 l 1,12,-1
 1041 1168 l 1,13,-1
 1064 1244 l 1,14,-1
 1609 1244 l 1,15,-1
 1586 1168 l 1,16,-1
 1414 1130 l 1,17,-1
 1254 114 l 1,18,-1
 1431 81 l 1,19,-1
 1407 0 l 1,20,-1
 864 0 l 1,21,-1
 887 74 l 1,22,-1
 1061 121 l 1,23,-1
 1135 590 l 1,24,-1
 506 590 l 1,25,-1
 431 114 l 1,26,-1
 611 81 l 1,27,-1
 585 0 l 1,0,-1
EndSplineSet
Colour: ffff
EndChar

StartChar: I
Encoding: 41 73 29
Width: 828
VWidth: 1691
Flags: MW
LayerCount: 2
Back
SplineSet
50 1168 m 1,0,-1
 61 1244 l 1,1,-1
 605 1244 l 1,2,-1
 595 1168 l 1,3,-1
 426 1130 l 1,4,-1
 426 114 l 1,5,-1
 607 80 l 1,6,-1
 597 0 l 1,7,-1
 57 0 l 1,8,-1
 65 74 l 1,9,-1
 232 121 l 1,10,-1
 232 1126 l 1,11,-1
 50 1168 l 1,0,-1
EndSplineSet
Fore
SplineSet
583 0 m 1,0,-1
 43 0 l 1,1,-1
 63 74 l 1,2,-1
 238 121 l 1,3,-1
 397 1126 l 1,4,-1
 220 1168 l 1,5,-1
 242 1244 l 1,6,-1
 787 1244 l 1,7,-1
 765 1168 l 1,8,-1
 590 1130 l 1,9,-1
 430 114 l 1,10,-1
 607 81 l 1,11,-1
 583 0 l 1,0,-1
EndSplineSet
Colour: ffff
EndChar

StartChar: J
Encoding: 42 74 30
Width: 927
VWidth: 1691
Flags: MW
LayerCount: 2
Back
SplineSet
-4 -237 m 1,0,1
 117 -122 117 -122 174.5 -20.5 c 0
 232 81 232 81 232 197 c 2,2,-1
 233 1126 l 1,3,-1
 52 1168 l 1,4,-1
 62 1244 l 1,5,-1
 607 1244 l 1,6,-1
 597 1168 l 1,7,-1
 427 1130 l 1,8,-1
 426 385 l 2,9,10
 426 281 426 281 418.5 203.5 c 0
 411 126 411 126 391.5 60.5 c 0
 372 -5 372 -5 346 -53 c 0
 320 -101 320 -101 274.5 -149 c 0
 229 -197 229 -197 178 -236 c 0
 127 -275 127 -275 50 -326 c 1,11,-1
 -4 -237 l 1,0,1
EndSplineSet
Fore
SplineSet
84 -325 m 1,0,1
 54 -284 54 -284 42 -238 c 1,2,3
 181 -123 181 -123 254.5 -21 c 128,-1,4
 328 81 328 81 346 197 c 2,5,-1
 495 1126 l 1,6,-1
 320 1168 l 1,7,-1
 340 1244 l 1,8,-1
 885 1244 l 1,9,-1
 865 1168 l 1,10,-1
 690 1130 l 1,11,-1
 562 318 l 2,12,13
 548 228 548 228 530 160.5 c 128,-1,14
 512 93 512 93 483 35 c 128,-1,15
 454 -23 454 -23 421.5 -66 c 128,-1,16
 389 -109 389 -109 335.5 -154 c 128,-1,17
 282 -199 282 -199 226 -236.5 c 128,-1,18
 170 -274 170 -274 84 -325 c 1,0,1
EndSplineSet
Colour: ffff
EndChar

StartChar: K
Encoding: 43 75 31
Width: 1433
VWidth: 1691
Flags: MW
LayerCount: 2
Back
SplineSet
47 1168 m 1,0,-1
 61 1244 l 1,1,-1
 611 1244 l 1,2,-1
 601 1168 l 1,3,-1
 429 1121 l 1,4,-1
 429 124 l 1,5,-1
 618 80 l 1,6,-1
 607 0 l 1,7,-1
 54 0 l 1,8,-1
 64 74 l 1,9,-1
 236 129 l 1,10,-1
 236 1117 l 1,11,-1
 47 1168 l 1,0,-1
453 626 m 1,12,13
 476 649 476 649 529.5 709.5 c 0
 583 770 583 770 605 798 c 2,14,-1
 851 1121 l 1,15,-1
 696 1168 l 1,16,-1
 704 1244 l 1,17,-1
 1197 1244 l 1,18,-1
 1185 1168 l 1,19,-1
 1008 1121 l 1,20,-1
 635 653 l 1,21,-1
 862 385 l 2,22,23
 991 232 991 232 1057.5 171.5 c 0
 1124 111 1124 111 1213 83 c 1,24,-1
 1250 70 l 1,25,-1
 1240 1 l 1,26,27
 1177 -21 1177 -21 1109 -21 c 0,28,29
 994 -21 994 -21 899 52.5 c 0
 804 126 804 126 706 261 c 2,30,-1
 454 605 l 1,31,-1
 453 626 l 1,12,13
EndSplineSet
Fore
SplineSet
440 124 m 1,0,-1
 622 81 l 1,1,-1
 597 0 l 1,2,-1
 44 0 l 1,3,-1
 65 74 l 1,4,-1
 247 129 l 1,5,-1
 402 1118 l 1,6,-1
 220 1168 l 1,7,-1
 245 1244 l 1,8,-1
 795 1244 l 1,9,-1
 774 1168 l 1,10,-1
 595 1121 l 1,11,-1
 440 124 l 1,0,-1
747 261 m 1,12,-1
 612 509 l 1,13,14
 568 579 568 579 543 604 c 1,15,-1
 547 629 l 1,16,17
 617 678 617 678 675 737 c 1,18,-1
 1030 1121 l 1,19,-1
 874 1168 l 1,20,-1
 894 1244 l 1,21,-1
 1391 1244 l 1,22,-1
 1368 1168 l 1,23,-1
 1185 1121 l 1,24,-1
 731 644 l 1,25,-1
 914 378 l 2,26,27
 1010 238 1010 238 1074.5 175 c 128,-1,28
 1139 112 1139 112 1226 83 c 2,29,-1
 1261 71 l 1,30,-1
 1239 2 l 1,31,32
 1174 -21 1174 -21 1106 -21 c 0,33,34
 990 -21 990 -21 906 52.5 c 128,-1,35
 822 126 822 126 747 261 c 1,12,-1
EndSplineSet
Colour: ffff
EndChar

StartChar: L
Encoding: 44 76 32
Width: 1149
VWidth: 1691
Flags: MW
LayerCount: 2
Back
SplineSet
58 0 m 5,0,-1
 67 74 l 1,1,-1
 233 121 l 1,2,-1
 233 1117 l 1,3,-1
 45 1168 l 1,4,-1
 58 1244 l 1,5,-1
 608 1244 l 1,6,-1
 598 1168 l 1,7,-1
 427 1121 l 1,8,-1
 427 96 l 1,9,-1
 869 96 l 1,10,-1
 1000 344 l 1,11,-1
 1085 331 l 1,12,-1
 1048 0 l 1,13,-1
 58 0 l 5,0,-1
EndSplineSet
Fore
SplineSet
788 1244 m 1,0,-1
 766 1168 l 1,1,-1
 588 1121 l 1,2,-1
 426 96 l 1,3,-1
 879 96 l 1,4,-1
 1017 344 l 1,5,-1
 1101 330 l 1,6,-1
 1042 0 l 1,7,-1
 43 0 l 1,8,-1
 63 74 l 1,9,-1
 238 121 l 1,10,-1
 395 1118 l 1,11,-1
 213 1168 l 1,12,-1
 238 1244 l 1,13,-1
 788 1244 l 1,0,-1
EndSplineSet
Colour: ffff
EndChar

StartChar: M
Encoding: 45 77 33
Width: 1832
VWidth: 1691
Flags: MW
LayerCount: 2
Back
SplineSet
24 0 m 1,0,-1
 35 74 l 1,1,-1
 202 121 l 1,2,-1
 275 1126 l 1,3,-1
 92 1168 l 1,4,-1
 102 1244 l 1,5,-1
 505 1244 l 1,6,-1
 583 1050 l 1,7,-1
 845 313 l 1,8,-1
 1152 1083 l 1,9,-1
 1223 1244 l 1,10,-1
 1618 1244 l 1,11,-1
 1608 1168 l 1,12,-1
 1440 1130 l 1,13,-1
 1492 114 l 1,14,-1
 1674 80 l 1,15,-1
 1664 0 l 1,16,-1
 1128 0 l 1,17,-1
 1139 74 l 1,18,-1
 1305 121 l 1,19,-1
 1249 1004 l 1,20,-1
 868 50 l 1,21,-1
 740 31 l 1,22,-1
 397 967 l 1,23,-1
 334 114 l 1,24,-1
 517 80 l 1,25,-1
 504 0 l 1,26,-1
 24 0 l 1,0,-1
EndSplineSet
Fore
SplineSet
766 31 m 1,0,-1
 528 966 l 1,1,-1
 370 114 l 1,2,-1
 550 81 l 1,3,-1
 523 0 l 1,4,-1
 43 0 l 1,5,-1
 66 74 l 1,6,-1
 241 121 l 1,7,-1
 432 1126 l 1,8,-1
 254 1168 l 1,9,-1
 277 1244 l 1,10,-1
 670 1244 l 1,11,-1
 726 1050 l 1,12,-1
 901 310 l 1,13,-1
 1292 1083 l 1,14,-1
 1391 1244 l 1,15,-1
 1791 1244 l 1,16,-1
 1770 1168 l 1,17,-1
 1596 1130 l 1,18,-1
 1529 114 l 1,19,-1
 1706 81 l 1,20,-1
 1682 0 l 1,21,-1
 1147 0 l 1,22,-1
 1171 74 l 1,23,-1
 1344 121 l 1,24,-1
 1385 1004 l 1,25,-1
 893 51 l 1,26,-1
 766 31 l 1,0,-1
EndSplineSet
Colour: ffff
EndChar

StartChar: N
Encoding: 46 78 34
Width: 1580
VWidth: 1691
Flags: MW
LayerCount: 2
Back
SplineSet
50 1168 m 1,0,-1
 61 1244 l 1,1,-1
 411 1244 l 1,2,-1
 1054 274 l 1,3,-1
 1054 1126 l 1,4,-1
 869 1168 l 1,5,-1
 881 1244 l 1,6,-1
 1356 1244 l 1,7,-1
 1343 1168 l 1,8,-1
 1176 1130 l 1,9,-1
 1176 1 l 1,10,-1
 1023 -30 l 1,11,-1
 360 961 l 1,12,-1
 360 114 l 1,13,-1
 543 80 l 1,14,-1
 532 0 l 1,15,-1
 57 0 l 1,16,-1
 65 74 l 1,17,-1
 232 121 l 1,18,-1
 232 1117 l 1,19,-1
 50 1168 l 1,0,-1
EndSplineSet
Fore
SplineSet
1004 -30 m 1,0,-1
 499 961 l 1,1,-1
 365 114 l 1,2,-1
 543 81 l 1,3,-1
 520 0 l 1,4,-1
 44 0 l 1,5,-1
 64 74 l 1,6,-1
 239 121 l 1,7,-1
 396 1118 l 1,8,-1
 221 1168 l 1,9,-1
 243 1244 l 1,10,-1
 591 1244 l 1,11,-1
 1085 262 l 1,12,-1
 1220 1126 l 1,13,-1
 1040 1168 l 1,14,-1
 1063 1244 l 1,15,-1
 1539 1244 l 1,16,-1
 1514 1168 l 1,17,-1
 1342 1130 l 1,18,-1
 1164 2 l 1,19,-1
 1004 -30 l 1,0,-1
EndSplineSet
Colour: ffff
EndChar

StartChar: O
Encoding: 47 79 35
Width: 1344
VWidth: 1691
Flags: MW
LayerCount: 2
Back
SplineSet
61 619 m 0,0,1
 61 911 61 911 236 1091.5 c 0
 411 1272 411 1272 706 1272 c 0,2,3
 838 1272 838 1272 948.5 1219.5 c 0
 1059 1167 1059 1167 1131.5 1077 c 0
 1204 987 1204 987 1244 869 c 0
 1284 751 1284 751 1284 619 c 0,4,5
 1284 489 1284 489 1240.5 372.5 c 0
 1197 256 1197 256 1116.5 167 c 0
 1036 78 1036 78 911.5 25.5 c 0
 787 -27 787 -27 636 -27 c 0,6,7
 467 -27 467 -27 335 59 c 0
 203 145 203 145 132 292 c 0
 61 439 61 439 61 619 c 0,0,1
283 676 m 0,8,9
 283 585 283 585 297 501 c 0
 311 417 311 417 342.5 339.5 c 0
 374 262 374 262 419.5 204.5 c 0
 465 147 465 147 533.5 113 c 0
 602 79 602 79 686 79 c 0,10,11
 774 79 774 79 841.5 107.5 c 0
 909 136 909 136 950 182.5 c 0
 991 229 991 229 1017 295 c 0
 1043 361 1043 361 1052.5 428 c 0
 1062 495 1062 495 1062 573 c 0,12,13
 1062 661 1062 661 1048 745 c 0
 1034 829 1034 829 1002 907.5 c 0
 970 986 970 986 924.5 1045.5 c 0
 879 1105 879 1105 810 1140.5 c 0
 741 1176 741 1176 658 1176 c 0,14,15
 283 1176 283 1176 283 676 c 0,8,9
EndSplineSet
Fore
SplineSet
1297 725 m 0,0,1
 1297 574 1297 574 1248.5 439.5 c 128,-1,2
 1200 305 1200 305 1110 200.5 c 128,-1,3
 1020 96 1020 96 879.5 35 c 128,-1,4
 739 -26 739 -26 568 -26 c 0,5,6
 438 -26 438 -26 338 16 c 128,-1,7
 238 58 238 58 176.5 132 c 128,-1,8
 115 206 115 206 84.5 303 c 128,-1,9
 54 400 54 400 54 515 c 0,10,11
 54 737 54 737 140.5 908 c 128,-1,12
 227 1079 227 1079 393 1176 c 128,-1,13
 559 1273 559 1273 782 1273 c 0,14,15
 909 1273 909 1273 1009 1228.5 c 128,-1,16
 1109 1184 1109 1184 1171 1107.5 c 128,-1,17
 1233 1031 1233 1031 1265 933.5 c 128,-1,18
 1297 836 1297 836 1297 725 c 0,0,1
737 1176 m 0,19,20
 669 1176 669 1176 612 1162.5 c 128,-1,21
 555 1149 555 1149 512 1126 c 128,-1,22
 469 1103 469 1103 434.5 1068.5 c 128,-1,23
 400 1034 400 1034 376.5 997 c 128,-1,24
 353 960 353 960 335.5 913 c 128,-1,25
 318 866 318 866 308 823 c 128,-1,26
 298 780 298 780 292.5 728 c 128,-1,27
 287 676 287 676 285 635.5 c 128,-1,28
 283 595 283 595 283 547 c 0,29,30
 283 457 283 457 303 375 c 128,-1,31
 323 293 323 293 362.5 226 c 128,-1,32
 402 159 402 159 467 119 c 128,-1,33
 532 79 532 79 614 79 c 0,34,35
 699 79 699 79 768.5 101.5 c 128,-1,36
 838 124 838 124 885 160.5 c 128,-1,37
 932 197 932 197 967 250 c 128,-1,38
 1002 303 1002 303 1022 356 c 128,-1,39
 1042 409 1042 409 1054 473 c 128,-1,40
 1066 537 1066 537 1069.5 587.5 c 128,-1,41
 1073 638 1073 638 1073 693 c 0,42,43
 1073 782 1073 782 1052.5 866 c 128,-1,44
 1032 950 1032 950 992 1020.5 c 128,-1,45
 952 1091 952 1091 886 1133.5 c 128,-1,46
 820 1176 820 1176 737 1176 c 0,19,20
EndSplineSet
Colour: ffff
EndChar

StartChar: P
Encoding: 48 80 36
Width: 1227
VWidth: 1691
Flags: MW
LayerCount: 2
Back
SplineSet
50 0 m 1,0,-1
 61 74 l 1,1,-1
 228 121 l 1,2,-1
 228 1104 l 1,3,-1
 57 1134 l 1,4,-1
 67 1211 l 1,5,6
 366 1255 366 1255 543 1255 c 0,7,8
 1045 1255 1045 1255 1045 892 c 0,9,10
 1045 805 1045 805 1007 730 c 0
 969 655 969 655 905.5 604 c 0
 842 553 842 553 758.5 523.5 c 0
 675 494 675 494 584 494 c 0,11,12
 577 494 577 494 484 497 c 1,13,-1
 466 580 l 1,14,-1
 519 581 l 1,15,16
 838 590 838 590 838 856 c 0,17,18
 838 995 838 995 760.5 1083.5 c 0
 683 1172 683 1172 522 1172 c 1,19,20
 420 1166 l 1,21,-1
 420 122 l 1,22,-1
 657 83 l 1,23,-1
 643 0 l 1,24,-1
 50 0 l 1,0,-1
EndSplineSet
Fore
SplineSet
1184 926 m 0,0,1
 1184 793 1184 793 1111 692 c 128,-1,2
 1038 591 1038 591 922.5 540.5 c 128,-1,3
 807 490 807 490 671 490 c 0,4,5
 629 490 629 490 557 499 c 1,6,-1
 550 581 l 1,7,-1
 603 581 l 2,8,9
 970 581 970 581 970 907 c 0,10,11
 970 1027 970 1027 903.5 1100 c 128,-1,12
 837 1173 837 1173 704 1173 c 1,13,-1
 596 1168 l 1,14,-1
 433 122 l 1,15,-1
 662 84 l 1,16,-1
 636 0 l 1,17,-1
 43 0 l 1,18,-1
 65 74 l 1,19,-1
 241 121 l 1,20,-1
 395 1105 l 1,21,-1
 230 1135 l 1,22,-1
 251 1211 l 1,23,24
 541 1255 541 1255 735 1255 c 0,25,26
 827 1255 827 1255 905 1237.5 c 128,-1,27
 983 1220 983 1220 1047 1182.5 c 128,-1,28
 1111 1145 1111 1145 1147.5 1079.5 c 128,-1,29
 1184 1014 1184 1014 1184 926 c 0,0,1
EndSplineSet
Colour: ffff
EndChar

StartChar: Q
Encoding: 49 81 37
Width: 1362
VWidth: 1691
Flags: MW
LayerCount: 2
Back
SplineSet
61 608 m 0,0,1
 61 800 61 800 142.5 950.5 c 0
 224 1101 224 1101 375 1186.5 c 0
 526 1272 526 1272 721 1272 c 0,2,3
 895 1272 895 1272 1028 1184 c 0
 1161 1096 1161 1096 1230 951 c 0
 1299 806 1299 806 1299 629 c 0,4,5
 1299 481 1299 481 1243 351 c 0
 1187 221 1187 221 1076.5 125.5 c 0
 966 30 966 30 818 -6 c 1,6,7
 842 -61 842 -61 870.5 -99 c 0
 899 -137 899 -137 947.5 -172.5 c 0
 996 -208 996 -208 1070.5 -233 c 0
 1145 -258 1145 -258 1250 -275 c 1,8,9
 1250 -324 1250 -324 1241 -351 c 1,10,11
 1171 -385 1171 -385 1065 -385 c 0,12,13
 924 -385 924 -385 820 -286 c 0
 716 -187 716 -187 703 -21 c 1,14,15
 683 -27 683 -27 638 -27 c 0,16,17
 469 -27 469 -27 336.5 56 c 0
 204 139 204 139 132.5 283.5 c 0
 61 428 61 428 61 608 c 0,0,1
263 679 m 0,18,19
 263 615 263 615 273 551 c 0
 283 487 283 487 304.5 418.5 c 0
 326 350 326 350 364 290.5 c 0
 402 231 402 231 453.5 182 c 0
 505 133 505 133 581 102.5 c 0
 657 72 657 72 749 67 c 1,20,21
 828 87 828 87 888 123 c 0
 948 159 948 159 986.5 205 c 0
 1025 251 1025 251 1049 310 c 0
 1073 369 1073 369 1082.5 430 c 0
 1092 491 1092 491 1092 563 c 0,22,23
 1092 674 1092 674 1061.5 781.5 c 0
 1031 889 1031 889 977.5 975.5 c 0
 924 1062 924 1062 842 1115 c 0
 760 1168 760 1168 664 1168 c 0,24,25
 475 1168 475 1168 369 1039.5 c 0
 263 911 263 911 263 679 c 0,18,19
EndSplineSet
Fore
SplineSet
605 -21 m 1,0,1
 588 -26 588 -26 551 -26 c 0,2,3
 404 -26 404 -26 289.5 46.5 c 128,-1,4
 175 119 175 119 114.5 242 c 128,-1,5
 54 365 54 365 54 515 c 0,6,7
 54 738 54 738 145.5 910 c 128,-1,8
 237 1082 237 1082 406.5 1177.5 c 128,-1,9
 576 1273 576 1273 797 1273 c 0,10,11
 922 1273 922 1273 1022.5 1227.5 c 128,-1,12
 1123 1182 1123 1182 1185.5 1104.5 c 128,-1,13
 1248 1027 1248 1027 1281.5 929.5 c 128,-1,14
 1315 832 1315 832 1315 723 c 0,15,16
 1315 550 1315 550 1243 399 c 128,-1,17
 1171 248 1171 248 1036 141 c 128,-1,18
 901 34 901 34 724 -7 c 1,19,20
 744 -80 744 -80 779.5 -127.5 c 128,-1,21
 815 -175 815 -175 897.5 -214 c 128,-1,22
 980 -253 980 -253 1116 -276 c 1,23,24
 1106 -324 1106 -324 1092 -350 c 1,25,26
 1013 -385 1013 -385 909 -385 c 0,27,28
 768 -385 768 -385 680 -286 c 128,-1,29
 592 -187 592 -187 605 -21 c 1,0,1
754 1168 m 0,30,31
 530 1168 530 1168 398.5 1001.5 c 128,-1,32
 267 835 267 835 267 560 c 0,33,34
 267 492 267 492 279 428 c 128,-1,35
 291 364 291 364 320 299.5 c 128,-1,36
 349 235 349 235 393 186.5 c 128,-1,37
 437 138 437 138 507.5 105.5 c 128,-1,38
 578 73 578 73 666 68 c 1,39,40
 746 88 746 88 811 120.5 c 128,-1,41
 876 153 876 153 920.5 192 c 128,-1,42
 965 231 965 231 998 280.5 c 128,-1,43
 1031 330 1031 330 1050 377 c 128,-1,44
 1069 424 1069 424 1080.5 480 c 128,-1,45
 1092 536 1092 536 1095.5 582 c 128,-1,46
 1099 628 1099 628 1099 680 c 0,47,48
 1099 774 1099 774 1076 861 c 128,-1,49
 1053 948 1053 948 1010.5 1017 c 128,-1,50
 968 1086 968 1086 901.5 1127 c 128,-1,51
 835 1168 835 1168 754 1168 c 0,30,31
EndSplineSet
Colour: ffff
EndChar

StartChar: R
Encoding: 50 82 38
Width: 1296
VWidth: 1691
Flags: MW
LayerCount: 2
Back
SplineSet
50 0 m 1,0,-1
 61 74 l 1,1,-1
 228 121 l 1,2,-1
 228 1100 l 1,3,-1
 57 1130 l 1,4,-1
 67 1207 l 1,5,6
 361 1253 361 1253 523 1253 c 0,7,8
 639 1253 639 1253 727.5 1237 c 0
 816 1221 816 1221 884.5 1185.5 c 0
 953 1150 953 1150 989 1089 c 0
 1025 1028 1025 1028 1025 943 c 0,9,10
 1025 841 1025 841 949 744 c 0
 873 647 873 647 738 599 c 1,11,-1
 738 598 l 1,12,-1
 918 349 l 2,13,14
 963 287 963 287 983 260.5 c 0
 1003 234 1003 234 1035 195.5 c 0
 1067 157 1067 157 1089.5 140 c 0
 1112 123 1112 123 1143 105.5 c 0
 1174 88 1174 88 1211 77 c 2,15,-1
 1244 67 l 1,16,-1
 1229 -1 l 1,17,18
 1172 -21 1172 -21 1109 -21 c 0,19,20
 998 -21 998 -21 911.5 51.5 c 0
 825 124 825 124 753 253 c 2,21,-1
 594 537 l 1,22,-1
 420 537 l 1,23,-1
 420 126 l 1,24,-1
 608 83 l 1,25,-1
 598 0 l 1,26,-1
 50 0 l 1,0,-1
420 628 m 1,27,-1
 618 628 l 1,28,29
 702 656 702 656 760 722 c 0
 818 788 818 788 818 887 c 0,30,31
 818 1013 818 1013 744 1091 c 0
 670 1169 670 1169 540 1169 c 1,32,33
 420 1164 l 1,34,-1
 420 628 l 1,27,-1
EndSplineSet
Fore
SplineSet
677 628 m 2,0,1
 781 628 781 628 868.5 721 c 128,-1,2
 956 814 956 814 956 943 c 0,3,4
 956 1051 956 1051 894.5 1110 c 128,-1,5
 833 1169 833 1169 719 1169 c 1,6,-1
 597 1164 l 1,7,-1
 511 628 l 1,8,-1
 677 628 l 2,0,1
1160 978 m 0,9,10
 1160 858 1160 858 1074 756 c 128,-1,11
 988 654 988 654 827 599 c 1,12,-1
 829 598 l 1,13,-1
 967 348 l 1,14,15
 1044 212 1044 212 1090 159 c 128,-1,16
 1136 106 1136 106 1218 78 c 2,17,-1
 1248 68 l 1,18,-1
 1223 -2 l 1,19,20
 1166 -21 1166 -21 1099 -21 c 0,21,22
 988 -21 988 -21 914.5 51 c 128,-1,23
 841 123 841 123 787 253 c 1,24,-1
 672 537 l 1,25,-1
 498 537 l 1,26,-1
 436 126 l 1,27,-1
 616 83 l 1,28,-1
 592 0 l 1,29,-1
 44 0 l 1,30,-1
 66 74 l 1,31,-1
 242 121 l 1,32,-1
 396 1102 l 1,33,-1
 229 1131 l 1,34,-1
 252 1207 l 1,35,36
 552 1253 552 1253 716 1253 c 0,37,38
 926 1253 926 1253 1043 1186.5 c 128,-1,39
 1160 1120 1160 1120 1160 978 c 0,9,10
EndSplineSet
Colour: ffff
EndChar

StartChar: S
Encoding: 51 83 39
Width: 944
VWidth: 1691
Flags: MW
LayerCount: 2
Back
SplineSet
66 122 m 5,0,-1
 79 389 l 1,1,-1
 181 375 l 1,2,-1
 220 187 l 1,3,4
 249 141 249 141 304.5 109 c 0
 360 77 360 77 426 77 c 0,5,6
 483 77 483 77 534.5 97.5 c 0
 586 118 586 118 624.5 167.5 c 0
 663 217 663 217 663 287 c 0,7,8
 663 339 663 339 631.5 383.5 c 0
 600 428 600 428 549.5 461 c 0
 499 494 499 494 437.5 526 c 0
 376 558 376 558 315 594.5 c 0
 254 631 254 631 203.5 673.5 c 0
 153 716 153 716 121.5 778.5 c 0
 90 841 90 841 90 916 c 0,9,10
 90 1025 90 1025 147 1107 c 0
 204 1189 204 1189 291 1229 c 0
 378 1269 378 1269 479 1269 c 0,11,12
 641 1269 641 1269 761 1169 c 1,13,14
 739 887 l 1,15,-1
 640 899 l 1,16,-1
 615 1090 l 1,17,18
 599 1122 599 1122 549.5 1153.5 c 0
 500 1185 500 1185 445 1185 c 0,19,20
 365 1185 365 1185 314 1137 c 0
 263 1089 263 1089 263 995 c 0,21,22
 263 937 263 937 295 889.5 c 0
 327 842 327 842 378.5 807.5 c 0
 430 773 430 773 492.5 741 c 0
 555 709 555 709 617.5 673 c 0
 680 637 680 637 731.5 595.5 c 0
 783 554 783 554 815 492 c 0
 847 430 847 430 847 354 c 0,23,24
 847 243 847 243 783 155 c 0
 719 67 719 67 618 21.5 c 0
 517 -24 517 -24 402 -24 c 0,25,26
 298 -24 298 -24 207.5 17.5 c 0
 117 59 117 59 66 122 c 5,0,-1
EndSplineSet
Fore
SplineSet
835 887 m 1,0,-1
 738 898 l 1,1,-1
 741 1090 l 1,2,3
 734 1117 734 1117 688.5 1150.5 c 128,-1,4
 643 1184 643 1184 587 1184 c 0,5,6
 495 1184 495 1184 434.5 1130 c 128,-1,7
 374 1076 374 1076 374 968 c 0,8,9
 374 921 374 921 401 880 c 128,-1,10
 428 839 428 839 471.5 807 c 128,-1,11
 515 775 515 775 567.5 743 c 128,-1,12
 620 711 620 711 672 675.5 c 128,-1,13
 724 640 724 640 767.5 600 c 128,-1,14
 811 560 811 560 838 503.5 c 128,-1,15
 865 447 865 447 865 380 c 0,16,17
 865 288 865 288 820.5 210.5 c 128,-1,18
 776 133 776 133 704 82 c 128,-1,19
 632 31 632 31 541 3 c 128,-1,20
 450 -25 450 -25 355 -25 c 0,21,22
 249 -25 249 -25 161 17.5 c 128,-1,23
 73 60 73 60 42 122 c 1,24,-1
 99 390 l 1,25,-1
 198 375 l 1,26,-1
 204 187 l 1,27,28
 226 137 226 137 275 107.5 c 128,-1,29
 324 78 324 78 394 78 c 0,30,31
 430 78 430 78 467 86.5 c 128,-1,32
 504 95 504 95 540.5 113.5 c 128,-1,33
 577 132 577 132 605 159 c 128,-1,34
 633 186 633 186 650.5 225.5 c 128,-1,35
 668 265 668 265 668 312 c 0,36,37
 668 355 668 355 641.5 393 c 128,-1,38
 615 431 615 431 573 461 c 128,-1,39
 531 491 531 491 479.5 522 c 128,-1,40
 428 553 428 553 377 588 c 128,-1,41
 326 623 326 623 284 662.5 c 128,-1,42
 242 702 242 702 215.5 758 c 128,-1,43
 189 814 189 814 189 880 c 0,44,45
 189 972 189 972 228 1047.5 c 128,-1,46
 267 1123 267 1123 330.5 1170.5 c 128,-1,47
 394 1218 394 1218 473 1244 c 128,-1,48
 552 1270 552 1270 635 1270 c 0,49,50
 711 1270 711 1270 783.5 1246.5 c 128,-1,51
 856 1223 856 1223 901 1169 c 1,52,-1
 835 887 l 1,0,-1
EndSplineSet
Colour: ffff
EndChar

StartChar: T
Encoding: 52 84 40
Width: 1242
VWidth: 1691
Flags: MW
LayerCount: 2
Back
SplineSet
23 1244 m 1,0,-1
 1134 1244 l 1,1,-1
 1100 906 l 1,2,-1
 1005 921 l 1,3,-1
 967 1152 l 1,4,-1
 662 1152 l 1,5,-1
 662 114 l 1,6,-1
 847 80 l 1,7,-1
 833 0 l 1,8,-1
 294 0 l 1,9,-1
 301 74 l 1,10,-1
 470 121 l 1,11,-1
 470 1152 l 1,12,-1
 175 1152 l 1,13,-1
 122 909 l 1,14,-1
 31 922 l 1,15,-1
 23 1244 l 1,0,-1
EndSplineSet
Fore
SplineSet
88 1244 m 1,0,-1
 1199 1244 l 1,1,-1
 1113 907 l 1,2,-1
 1021 922 l 1,3,-1
 1018 1153 l 1,4,-1
 714 1153 l 1,5,-1
 550 114 l 1,6,-1
 729 81 l 1,7,-1
 702 0 l 1,8,-1
 162 0 l 1,9,-1
 184 74 l 1,10,-1
 360 121 l 1,11,-1
 522 1153 l 1,12,-1
 227 1153 l 1,13,-1
 136 910 l 1,14,-1
 46 923 l 1,15,-1
 88 1244 l 1,0,-1
EndSplineSet
Colour: ffff
EndChar

StartChar: U
Encoding: 53 85 41
Width: 1458
VWidth: 1691
Flags: MW
LayerCount: 2
Back
SplineSet
22 1168 m 1,0,-1
 35 1244 l 1,1,-1
 577 1244 l 1,2,-1
 568 1168 l 1,3,-1
 399 1130 l 1,4,-1
 399 510 l 2,5,6
 399 304 399 304 492.5 204.5 c 0
 586 105 586 105 747 105 c 0,7,8
 903 105 903 105 987 198 c 0
 1071 291 1071 291 1072 482 c 2,9,-1
 1075 1126 l 1,10,-1
 892 1168 l 1,11,-1
 902 1244 l 1,12,-1
 1380 1244 l 1,13,-1
 1369 1168 l 1,14,-1
 1203 1130 l 1,15,-1
 1198 515 l 2,16,17
 1196 241 1196 241 1075 107 c 0
 954 -27 954 -27 697 -27 c 0,18,19
 620 -27 620 -27 556.5 -16.5 c 0
 493 -6 493 -6 425.5 26.5 c 0
 358 59 358 59 311.5 112 c 0
 265 165 265 165 235.5 256 c 0
 206 347 206 347 206 469 c 2,20,-1
 206 1126 l 1,21,-1
 22 1168 l 1,0,-1
EndSplineSet
Fore
SplineSet
603 92 m 0,0,1
 689 92 689 92 756 118.5 c 128,-1,2
 823 145 823 145 862 183 c 128,-1,3
 901 221 901 221 929.5 278.5 c 128,-1,4
 958 336 958 336 969.5 380 c 128,-1,5
 981 424 981 424 990 481 c 2,6,-1
 1092 1126 l 1,7,-1
 917 1168 l 1,8,-1
 937 1244 l 1,9,-1
 1416 1244 l 1,10,-1
 1394 1168 l 1,11,-1
 1221 1130 l 1,12,-1
 1117 499 l 2,13,14
 1030 -26 1030 -26 517 -26 c 0,15,16
 479 -26 479 -26 443.5 -22 c 128,-1,17
 408 -18 408 -18 367 -8 c 128,-1,18
 326 2 326 2 292.5 19.5 c 128,-1,19
 259 37 259 37 225 63.5 c 128,-1,20
 191 90 191 90 169 127 c 128,-1,21
 147 164 147 164 130 214 c 128,-1,22
 113 264 113 264 113 327 c 128,-1,23
 113 390 113 390 123 469 c 1,24,-1
 227 1126 l 1,25,-1
 47 1168 l 1,26,-1
 70 1244 l 1,27,-1
 611 1244 l 1,28,-1
 592 1168 l 1,29,-1
 417 1130 l 1,30,-1
 317 494 l 2,31,32
 285 288 285 288 363 190 c 128,-1,33
 441 92 441 92 603 92 c 0,0,1
EndSplineSet
Colour: ffff
EndChar

StartChar: V
Encoding: 54 86 42
Width: 1384
VWidth: 1691
Flags: MW
LayerCount: 2
Back
SplineSet
-21 1168 m 1,0,-1
 -11 1244 l 1,1,-1
 527 1244 l 1,2,-1
 517 1168 l 1,3,-1
 347 1130 l 1,4,-1
 660 251 l 1,5,-1
 980 1126 l 1,6,-1
 798 1168 l 1,7,-1
 805 1244 l 1,8,-1
 1260 1244 l 1,9,-1
 1253 1168 l 1,10,-1
 1121 1130 l 1,11,-1
 696 4 l 1,12,-1
 544 -24 l 1,13,-1
 126 1126 l 1,14,-1
 -21 1168 l 1,0,-1
EndSplineSet
Fore
SplineSet
508 -25 m 1,0,-1
 188 1126 l 1,1,-1
 49 1168 l 1,2,-1
 70 1244 l 1,3,-1
 597 1244 l 1,4,-1
 576 1168 l 1,5,-1
 402 1130 l 1,6,-1
 640 240 l 1,7,-1
 1043 1126 l 1,8,-1
 866 1168 l 1,9,-1
 886 1244 l 1,10,-1
 1342 1244 l 1,11,-1
 1322 1168 l 1,12,-1
 1187 1130 l 1,13,-1
 663 5 l 1,14,-1
 508 -25 l 1,0,-1
EndSplineSet
Colour: ffff
EndChar

StartChar: W
Encoding: 55 87 43
Width: 1910
VWidth: 1691
Flags: MW
LayerCount: 2
Back
SplineSet
-11 1168 m 1,0,-1
 -2 1244 l 1,1,-1
 512 1244 l 1,2,-1
 497 1168 l 1,3,-1
 330 1130 l 1,4,-1
 572 271 l 1,5,-1
 853 1194 l 1,6,-1
 1029 1219 l 1,7,-1
 1277 287 l 1,8,-1
 1538 1126 l 1,9,-1
 1357 1168 l 1,10,-1
 1368 1244 l 1,11,-1
 1817 1244 l 1,12,-1
 1806 1168 l 1,13,-1
 1683 1130 l 1,14,-1
 1318 4 l 1,15,-1
 1164 -24 l 1,16,-1
 902 951 l 1,17,-1
 617 4 l 1,18,-1
 454 -24 l 1,19,-1
 129 1126 l 1,20,-1
 -11 1168 l 1,0,-1
EndSplineSet
Fore
SplineSet
1076 -25 m 1,0,-1
 928 951 l 1,1,-1
 533 5 l 1,2,-1
 368 -25 l 1,3,-1
 181 1126 l 1,4,-1
 49 1168 l 1,5,-1
 68 1244 l 1,6,-1
 582 1244 l 1,7,-1
 557 1168 l 1,8,-1
 384 1130 l 1,9,-1
 511 252 l 1,10,-1
 905 1194 l 1,11,-1
 1086 1219 l 1,12,-1
 1228 269 l 1,13,-1
 1571 1126 l 1,14,-1
 1396 1168 l 1,15,-1
 1419 1244 l 1,16,-1
 1868 1244 l 1,17,-1
 1845 1168 l 1,18,-1
 1718 1130 l 1,19,-1
 1235 5 l 1,20,-1
 1076 -25 l 1,0,-1
EndSplineSet
Colour: ffff
EndChar

StartChar: X
Encoding: 56 88 44
Width: 1460
VWidth: 1691
Flags: MW
LayerCount: 2
Back
SplineSet
-1 0 m 1,0,-1
 11 76 l 1,1,-1
 138 121 l 1,2,-1
 504 615 l 1,3,-1
 165 1123 l 1,4,-1
 28 1166 l 1,5,-1
 40 1244 l 1,6,-1
 553 1244 l 1,7,-1
 543 1166 l 1,8,-1
 386 1121 l 1,9,-1
 633 750 l 1,10,-1
 904 1126 l 1,11,-1
 734 1166 l 1,12,-1
 747 1244 l 1,13,-1
 1182 1244 l 1,14,-1
 1174 1168 l 1,15,-1
 1047 1130 l 1,16,-1
 709 657 l 1,17,-1
 1050 114 l 1,18,-1
 1185 80 l 1,19,-1
 1172 0 l 1,20,-1
 669 0 l 1,21,-1
 682 74 l 1,22,-1
 842 121 l 1,23,-1
 580 529 l 1,24,-1
 288 117 l 1,25,-1
 454 83 l 1,26,-1
 439 0 l 1,27,-1
 -1 0 l 1,0,-1
EndSplineSet
Fore
SplineSet
851 637 m 1,0,-1
 1109 114 l 1,1,-1
 1243 81 l 1,2,-1
 1217 0 l 1,3,-1
 703 0 l 1,4,-1
 728 74 l 1,5,-1
 903 121 l 1,6,-1
 690 536 l 1,7,-1
 343 114 l 1,8,-1
 520 81 l 1,9,-1
 497 0 l 1,10,-1
 44 0 l 1,11,-1
 69 74 l 1,12,-1
 198 121 l 1,13,-1
 639 627 l 1,14,-1
 381 1118 l 1,15,-1
 256 1168 l 1,16,-1
 279 1244 l 1,17,-1
 806 1244 l 1,18,-1
 782 1168 l 1,19,-1
 604 1121 l 1,20,-1
 796 725 l 1,21,-1
 1124 1126 l 1,22,-1
 943 1168 l 1,23,-1
 966 1244 l 1,24,-1
 1418 1244 l 1,25,-1
 1398 1168 l 1,26,-1
 1266 1130 l 1,27,-1
 851 637 l 1,0,-1
EndSplineSet
Colour: ffff
EndChar

StartChar: Y
Encoding: 57 89 45
Width: 1225
VWidth: 1691
Flags: MW
LayerCount: 2
Back
SplineSet
-21 1168 m 1,0,-1
 -8 1244 l 1,1,-1
 500 1244 l 1,2,-1
 488 1168 l 1,3,-1
 330 1130 l 1,4,-1
 607 640 l 1,5,-1
 871 1126 l 1,6,-1
 688 1168 l 1,7,-1
 698 1244 l 1,8,-1
 1143 1244 l 1,9,-1
 1133 1168 l 1,10,-1
 1008 1130 l 1,11,-1
 663 529 l 1,12,-1
 663 114 l 1,13,-1
 826 80 l 1,14,-1
 816 0 l 1,15,-1
 310 0 l 1,16,-1
 320 74 l 1,17,-1
 470 121 l 1,18,-1
 470 504 l 1,19,-1
 117 1126 l 1,20,-1
 -21 1168 l 1,0,-1
EndSplineSet
Fore
SplineSet
632 528 m 1,0,-1
 567 114 l 1,1,-1
 726 81 l 1,2,-1
 703 0 l 1,3,-1
 196 0 l 1,4,-1
 217 74 l 1,5,-1
 376 121 l 1,6,-1
 437 505 l 1,7,-1
 179 1126 l 1,8,-1
 49 1168 l 1,9,-1
 73 1244 l 1,10,-1
 580 1244 l 1,11,-1
 557 1168 l 1,12,-1
 394 1130 l 1,13,-1
 594 641 l 1,14,-1
 894 1126 l 1,15,-1
 717 1168 l 1,16,-1
 739 1244 l 1,17,-1
 1183 1244 l 1,18,-1
 1161 1168 l 1,19,-1
 1033 1130 l 1,20,-1
 632 528 l 1,0,-1
EndSplineSet
Colour: ffff
EndChar

StartChar: Z
Encoding: 58 90 46
Width: 1223
VWidth: 1691
Flags: MW
LayerCount: 2
Back
SplineSet
47 104 m 1,0,-1
 792 1149 l 1,1,-1
 255 1149 l 1,2,-1
 178 903 l 1,3,-1
 88 921 l 1,4,-1
 98 1244 l 1,5,-1
 1026 1244 l 1,6,-1
 1026 1168 l 1,7,-1
 262 100 l 1,8,-1
 832 100 l 1,9,-1
 955 351 l 1,10,-1
 1048 335 l 1,11,-1
 991 0 l 1,12,-1
 55 0 l 1,13,-1
 47 104 l 1,0,-1
EndSplineSet
Fore
SplineSet
263 1244 m 1,0,-1
 1181 1244 l 1,1,-1
 1170 1168 l 1,2,-1
 268 101 l 1,3,-1
 858 101 l 1,4,-1
 990 350 l 1,5,-1
 1081 335 l 1,6,-1
 1002 0 l 1,7,-1
 45 0 l 1,8,-1
 54 104 l 1,9,-1
 923 1149 l 1,10,-1
 407 1149 l 1,11,-1
 309 903 l 1,12,-1
 222 922 l 1,13,-1
 263 1244 l 1,0,-1
EndSplineSet
Colour: ffff
EndChar

StartChar: bracketleft
Encoding: 59 91 47
Width: 615
VWidth: 0
Flags: MW
LayerCount: 2
Back
SplineSet
109 -376 m 1,0,-1
 109 1255 l 1,1,-1
 463 1255 l 1,2,-1
 474 1166 l 1,3,-1
 260 1146 l 1,4,-1
 260 -260 l 1,5,-1
 476 -279 l 1,6,-1
 466 -375 l 1,7,-1
 109 -376 l 1,0,-1
EndSplineSet
Fore
SplineSet
318 -375 m 1,0,-1
 41 -377 l 1,1,-1
 302 1255 l 1,2,-1
 573 1255 l 1,3,-1
 570 1166 l 1,4,-1
 426 1146 l 1,5,-1
 204 -259 l 1,6,-1
 343 -279 l 1,7,-1
 318 -375 l 1,0,-1
EndSplineSet
Colour: ffff
EndChar

StartChar: backslash
Encoding: 60 92 48
Width: 433
VWidth: 0
Flags: MW
LayerCount: 2
Back
SplineSet
37 1274 m 1,0,-1
 171 1266 l 1,1,-1
 632 -376 l 1,2,-1
 504 -368 l 1,3,-1
 37 1274 l 1,0,-1
EndSplineSet
Fore
SplineSet
179 1235 m 1,0,-1
 389 -363 l 1,1,-1
 261 -355 l 1,2,-1
 48 1244 l 1,3,-1
 179 1235 l 1,0,-1
EndSplineSet
Colour: ffff
EndChar

StartChar: bracketright
Encoding: 61 93 49
Width: 616
VWidth: 0
Flags: MW
LayerCount: 2
Back
SplineSet
0 -279 m 1,0,-1
 217 -260 l 1,1,-1
 217 1146 l 1,2,-1
 1 1166 l 1,3,-1
 13 1255 l 1,4,-1
 366 1255 l 1,5,-1
 368 -376 l 1,6,-1
 10 -375 l 1,7,-1
 0 -279 l 1,0,-1
EndSplineSet
Fore
SplineSet
41 -375 m 1,0,-1
 46 -279 l 1,1,-1
 191 -259 l 1,2,-1
 414 1146 l 1,3,-1
 277 1166 l 1,4,-1
 302 1255 l 1,5,-1
 573 1255 l 1,6,-1
 317 -377 l 1,7,-1
 41 -375 l 1,0,-1
EndSplineSet
Colour: ffff
EndChar

StartChar: asciicircum
Encoding: 62 94 50
Width: 746
VWidth: 0
Flags: MW
LayerCount: 2
Back
SplineSet
42 826 m 1,0,-1
 331 1237 l 1,1,-1
 386 1250 l 1,2,-1
 681 824 l 1,3,-1
 624 787 l 1,4,-1
 353 1073 l 1,5,-1
 343 1073 l 1,6,-1
 92 793 l 1,7,-1
 42 826 l 1,0,-1
EndSplineSet
Fore
SplineSet
467 1250 m 1,0,-1
 695 824 l 1,1,-1
 634 788 l 1,2,-1
 406 1073 l 1,3,-1
 396 1073 l 1,4,-1
 100 793 l 1,5,-1
 56 826 l 1,6,-1
 411 1237 l 1,7,-1
 467 1250 l 1,0,-1
EndSplineSet
Colour: ffff
EndChar

StartChar: underscore
Encoding: 63 95 51
Width: 970
VWidth: 0
Flags: MW
LayerCount: 2
Back
SplineSet
-1 -132 m 1,0,-1
 11 -27 l 1,1,-1
 839 -27 l 1,2,-1
 828 -132 l 1,3,-1
 -1 -132 l 1,0,-1
EndSplineSet
Fore
SplineSet
63 -132 m 1,0,-1
 75 -27 l 1,1,-1
 903 -27 l 1,2,-1
 892 -132 l 1,3,-1
 63 -132 l 1,0,-1
EndSplineSet
Colour: ffff
EndChar

StartChar: grave
Encoding: 64 96 52
Width: 406
VWidth: 0
Flags: MW
LayerCount: 2
Back
SplineSet
122 1659 m 1,0,-1
 237 1697 l 1,1,-1
 369 1364 l 1,2,-1
 313 1329 l 1,3,-1
 122 1659 l 1,0,-1
EndSplineSet
Fore
SplineSet
79 1659 m 1,0,-1
 194 1697 l 1,1,-1
 326 1364 l 1,2,-1
 270 1329 l 1,3,-1
 79 1659 l 1,0,-1
EndSplineSet
Colour: ffff
EndChar

StartChar: a
Encoding: 65 97 53
Width: 839
VWidth: 0
Flags: MW
LayerCount: 2
Back
SplineSet
47 168 m 4,0,1
 47 225 47 225 74 276.5 c 0
 101 328 101 328 154.5 372.5 c 0
 208 417 208 417 299 447 c 0
 390 477 390 477 508 485 c 1,2,-1
 508 540 l 2,3,4
 508 594 508 594 499.5 639 c 0
 491 684 491 684 471.5 723.5 c 0
 452 763 452 763 416.5 785 c 0
 381 807 381 807 331 807 c 0,5,6
 303 807 303 807 285 801 c 0
 267 795 267 795 256 781 c 0
 245 767 245 767 239 743.5 c 0
 233 720 233 720 229 687 c 0
 225 654 225 654 221.364 608.061 c 0
 220 597 220 597 220 592 c 1,7,8
 199 592 199 592 184.5 593 c 0
 170 594 170 594 148.5 600 c 0
 127 606 127 606 114 616 c 0
 101 626 101 626 91 646.5 c 0
 81 667 81 667 81 695 c 0,9,10
 81 747 81 747 138 795.5 c 0
 195 844 195 844 274 872 c 0
 353 900 353 900 423 900 c 0,11,12
 555 900 555 900 612.5 826.5 c 0
 670 753 670 753 670 593 c 2,13,-1
 670 230 l 2,14,15
 670 160 670 160 691.5 133.5 c 0
 713 107 713 107 782 96 c 1,16,-1
 832 87 l 1,17,-1
 819 1 l 1,18,19
 811 0 811 0 764.5 -9 c 0
 718 -18 718 -18 683 -18 c 0,20,21
 604 -18 604 -18 566 23 c 0
 528 64 528 64 528 116 c 2,22,-1
 528 131 l 1,23,-1
 517 131 l 1,24,25
 505 107 505 107 485 83.5 c 0
 465 60 465 60 432.5 34 c 0
 400 8 400 8 350.5 -8 c 0
 301 -24 301 -24 243 -24 c 0,26,27
 161 -24 161 -24 104 28 c 0
 47 80 47 80 47 168 c 4,0,1
222 215 m 4,28,29
 222 173 222 173 252.5 136 c 0
 283 99 283 99 334 99 c 0,30,31
 382 99 382 99 430 127 c 0
 478 155 478 155 508 188 c 1,32,-1
 508 428 l 1,33,34
 352 397 352 397 287 344.5 c 0
 222 292 222 292 222 215 c 4,28,29
EndSplineSet
Fore
SplineSet
587 746 m 1,0,1
 549 781 549 781 468 781 c 0,2,3
 392 781 392 781 330.5 709.5 c 128,-1,4
 269 638 269 638 238.5 533.5 c 128,-1,5
 208 429 208 429 208 320 c 0,6,7
 208 106 208 106 329 106 c 0,8,9
 381 106 381 106 420.5 130.5 c 128,-1,10
 460 155 460 155 501 201 c 1,11,-1
 587 746 l 1,0,1
714 96 m 2,12,-1
 790 84 l 1,13,-1
 772 15 l 1,14,15
 686 -17 686 -17 621 -17 c 0,16,17
 550 -17 550 -17 514 25 c 128,-1,18
 478 67 478 67 496 132 c 1,19,-1
 484 132 l 1,20,21
 448 66 448 66 384 22.5 c 128,-1,22
 320 -21 320 -21 248 -21 c 0,23,24
 156 -21 156 -21 101.5 58 c 128,-1,25
 47 137 47 137 47 274 c 0,26,27
 47 388 47 388 79 488 c 128,-1,28
 111 588 111 588 163 659.5 c 128,-1,29
 215 731 215 731 282 782.5 c 128,-1,30
 349 834 349 834 419.5 859.5 c 128,-1,31
 490 885 490 885 557 885 c 0,32,33
 716 885 716 885 758 832 c 1,34,-1
 686 378 l 2,35,36
 668 261 668 261 665 205 c 128,-1,37
 662 149 662 149 672.5 125 c 128,-1,38
 683 101 683 101 714 96 c 2,12,-1
EndSplineSet
Colour: ffff
EndChar

StartChar: b
Encoding: 66 98 54
Width: 843
VWidth: 0
Flags: MW
LayerCount: 2
Back
SplineSet
-15 1161 m 1,0,-1
 -2 1237 l 1,1,-1
 275 1258 l 1,2,-1
 299 1235 l 1,3,-1
 299 849 l 1,4,-1
 285 744 l 1,5,-1
 296 744 l 1,6,7
 434 899 434 899 581 899 c 0,8,9
 726 899 726 899 815 780.5 c 0
 904 662 904 662 904 472 c 0,10,11
 904 319 904 319 834.5 204.5 c 0
 765 90 765 90 654 33.5 c 0
 543 -23 543 -23 411 -23 c 0,12,13
 251 -23 251 -23 136 49 c 1,14,-1
 136 1108 l 1,15,-1
 -15 1161 l 1,0,-1
299 155 m 1,16,17
 329 125 329 125 387 106 c 0
 445 87 445 87 510 87 c 0,18,19
 602 87 602 87 663.5 168.5 c 0
 725 250 725 250 725 408 c 0,20,21
 725 456 725 456 719.5 502.5 c 0
 714 549 714 549 699.5 598.5 c 0
 685 648 685 648 662 684.5 c 0
 639 721 639 721 600.5 744.5 c 0
 562 768 562 768 513 768 c 0,22,23
 390 768 390 768 299 672 c 1,24,-1
 299 155 l 1,16,17
EndSplineSet
Fore
SplineSet
626 505 m 0,0,1
 626 558 626 558 611 612 c 128,-1,2
 596 666 596 666 562.5 707 c 128,-1,3
 529 748 529 748 485 748 c 0,4,5
 425 748 425 748 384 727 c 128,-1,6
 343 706 343 706 300 666 c 1,7,-1
 214 155 l 1,8,9
 233 125 233 125 277 107 c 128,-1,10
 321 89 321 89 375 89 c 0,11,12
 405 89 405 89 436.5 100.5 c 128,-1,13
 468 112 468 112 502.5 142 c 128,-1,14
 537 172 537 172 564 217 c 128,-1,15
 591 262 591 262 608.5 336.5 c 128,-1,16
 626 411 626 411 626 505 c 0,0,1
216 1126 m 1,17,-1
 82 1149 l 1,18,-1
 92 1225 l 1,19,-1
 365 1250 l 1,20,-1
 385 1227 l 1,21,-1
 323 842 l 1,22,-1
 297 722 l 1,23,-1
 309 722 l 1,24,25
 349 791 349 791 423 840.5 c 128,-1,26
 497 890 497 890 565 890 c 0,27,28
 631 890 631 890 684.5 839.5 c 128,-1,29
 738 789 738 789 766 708.5 c 128,-1,30
 794 628 794 628 794 535 c 0,31,32
 794 383 794 383 727 255 c 128,-1,33
 660 127 660 127 540.5 52 c 128,-1,34
 421 -23 421 -23 276 -23 c 0,35,36
 215 -23 215 -23 149 -4.5 c 128,-1,37
 83 14 83 14 44 50 c 1,38,-1
 216 1126 l 1,17,-1
EndSplineSet
Colour: ffff
EndChar

StartChar: c
Encoding: 67 99 55
Width: 708
VWidth: 0
Flags: MW
LayerCount: 2
Back
SplineSet
50 415 m 0,0,1
 50 523 50 523 86 615.5 c 0
 122 708 122 708 181.5 769.5 c 0
 241 831 241 831 317 865.5 c 0
 393 900 393 900 475 900 c 0,2,3
 593 900 593 900 654.5 855.5 c 0
 716 811 716 811 716 747 c 0,4,5
 716 702 716 702 683 674 c 0
 650 646 650 646 589 642 c 1,6,7
 576 674 576 674 563.5 697 c 0
 551 720 551 720 531 748 c 0
 511 776 511 776 485 791 c 0
 459 806 459 806 428 806 c 0,8,9
 339 806 339 806 285 724.5 c 0
 231 643 231 643 231 507 c 0,10,11
 231 441 231 441 249 371 c 0
 267 301 267 301 301 236.5 c 0
 335 172 335 172 394.5 131 c 0
 454 90 454 90 528 90 c 0,12,13
 595 90 595 90 640 106 c 0
 685 122 685 122 730 151 c 1,14,-1
 755 93 l 1,15,16
 713 43 713 43 625.5 6.5 c 0
 538 -30 538 -30 445 -30 c 0,17,18
 270 -30 270 -30 160 100 c 0
 50 230 50 230 50 415 c 0,0,1
EndSplineSet
Fore
SplineSet
371 92 m 0,0,1
 427 92 427 92 467.5 108.5 c 128,-1,2
 508 125 508 125 554 157 c 1,3,-1
 578 106 l 1,4,5
 531 48 531 48 456 9 c 128,-1,6
 381 -30 381 -30 310 -30 c 0,7,8
 187 -30 187 -30 117 58.5 c 128,-1,9
 47 147 47 147 47 307 c 0,10,11
 47 438 47 438 93 553.5 c 128,-1,12
 139 669 139 669 208 742.5 c 128,-1,13
 277 816 277 816 354 858 c 128,-1,14
 431 900 431 900 497 900 c 0,15,16
 576 900 576 900 620.5 861 c 128,-1,17
 665 822 665 822 665 756 c 0,18,19
 665 707 665 707 625.5 677.5 c 128,-1,20
 586 648 586 648 526 642 c 1,21,22
 514 806 514 806 447 806 c 0,23,24
 367 806 367 806 293 670 c 128,-1,25
 219 534 219 534 219 330 c 0,26,27
 219 220 219 220 256.5 156 c 128,-1,28
 294 92 294 92 371 92 c 0,0,1
EndSplineSet
Colour: ffff
EndChar

StartChar: d
Encoding: 68 100 56
Width: 861
VWidth: 0
Flags: MW
LayerCount: 2
Back
SplineSet
54 399 m 0,0,1
 54 504 54 504 93.5 599.5 c 0
 133 695 133 695 195.5 759.5 c 0
 258 824 258 824 336 862 c 0
 414 900 414 900 491 900 c 0,2,3
 540 900 540 900 589 887 c 0
 638 874 638 874 663 856 c 1,4,-1
 670 856 l 1,5,-1
 658 984 l 1,6,-1
 658 1111 l 1,7,-1
 506 1166 l 1,8,-1
 520 1241 l 1,9,-1
 798 1265 l 1,10,-1
 819 1241 l 1,11,-1
 819 215 l 2,12,13
 819 178 819 178 824.5 155.5 c 0
 830 133 830 133 848.5 119.5 c 0
 867 106 867 106 877.5 102 c 0
 888 98 888 98 921.361 90.5002 c 0
 926 90 926 90 928 89 c 2,14,-1
 973 79 l 1,15,-1
 962 -4 l 1,16,17
 887 -23 887 -23 815 -23 c 0,18,19
 743 -23 743 -23 704.5 18 c 0
 666 59 666 59 666 124 c 2,20,-1
 666 131 l 1,21,-1
 657 131 l 1,22,23
 546 -21 546 -21 380 -21 c 0,24,25
 240 -21 240 -21 147 90 c 0
 54 201 54 201 54 399 c 0,0,1
230 462 m 0,26,27
 230 290 230 290 291.5 197.5 c 0
 353 105 353 105 451 105 c 0,28,29
 509 105 509 105 568.5 134 c 0
 628 163 628 163 657 197 c 1,30,-1
 657 666 l 1,31,32
 619 728 619 728 557.5 765 c 0
 496 802 496 802 443 802 c 0,33,34
 332 802 332 802 281 709.5 c 0
 230 617 230 617 230 462 c 0,26,27
EndSplineSet
Fore
SplineSet
496 201 m 1,0,-1
 581 735 l 1,1,2
 526 781 526 781 466 781 c 0,3,4
 390 781 390 781 329 711 c 128,-1,5
 268 641 268 641 238 539 c 128,-1,6
 208 437 208 437 208 330 c 0,7,8
 208 212 208 212 239.5 159 c 128,-1,9
 271 106 271 106 332 106 c 0,10,11
 369 106 369 106 400.5 121 c 128,-1,12
 432 136 432 136 450 152.5 c 128,-1,13
 468 169 468 169 496 201 c 1,0,-1
700 97 m 2,14,-1
 766 86 l 1,15,-1
 747 17 l 1,16,17
 666 -15 666 -15 608 -15 c 0,18,19
 493 -15 493 -15 489 74 c 1,20,21
 489 102 489 102 494 132 c 1,22,-1
 481 132 l 1,23,24
 445 66 445 66 381 22.5 c 128,-1,25
 317 -21 317 -21 245 -21 c 0,26,27
 46 -21 46 -21 46 271 c 0,28,29
 46 402 46 402 89.5 519 c 128,-1,30
 133 636 133 636 201.5 714.5 c 128,-1,31
 270 793 270 793 354 839 c 128,-1,32
 438 885 438 885 520 885 c 0,33,34
 577 885 577 885 613 835 c 1,35,-1
 619 835 l 1,36,-1
 651 1140 l 1,37,-1
 511 1166 l 1,38,-1
 524 1239 l 1,39,-1
 798 1263 l 1,40,-1
 818 1240 l 1,41,-1
 684 380 l 2,42,43
 655 194 655 194 657.5 149 c 128,-1,44
 660 104 660 104 700 97 c 2,14,-1
EndSplineSet
Colour: ffff
EndChar

StartChar: e
Encoding: 69 101 57
Width: 696
VWidth: 0
Flags: MW
LayerCount: 2
Back
SplineSet
53 428 m 0,0,1
 53 536 53 536 90 627.5 c 0
 127 719 127 719 186 777 c 0
 245 835 245 835 317.5 867 c 0
 390 899 390 899 464 899 c 0,2,3
 579 899 579 899 655 816 c 0
 731 733 731 733 731 581 c 0,4,5
 731 519 731 519 715 451 c 1,6,-1
 231 445 l 1,7,8
 233 396 233 396 244.5 349 c 0
 256 302 256 302 279 256.5 c 0
 302 211 302 211 333 177 c 0
 364 143 364 143 410 122.5 c 0
 456 102 456 102 510 102 c 0,9,10
 557 102 557 102 580.5 104 c 0
 604 106 604 106 646 118.5 c 0
 688 131 688 131 737 157 c 1,11,-1
 758 104 l 1,12,13
 698 41 698 41 612.5 5.5 c 0
 527 -30 527 -30 429 -30 c 0,14,15
 357 -30 357 -30 290.5 -0.5 c 0
 224 29 224 29 170.5 84.5 c 0
 117 140 117 140 85 229 c 0
 53 318 53 318 53 428 c 0,0,1
233 523 m 1,16,-1
 547 546 l 1,17,18
 553 570 553 570 553 615 c 0,19,20
 553 801 553 801 415 801 c 0,21,22
 348 801 348 801 294 729.5 c 0
 240 658 240 658 233 523 c 1,16,-1
EndSplineSet
Fore
SplineSet
47 289 m 0,0,1
 44 406 44 406 79 517 c 128,-1,2
 114 628 114 628 172 709.5 c 128,-1,3
 230 791 230 791 308.5 840.5 c 128,-1,4
 387 890 387 890 469 890 c 0,5,6
 552 890 552 890 601.5 836.5 c 128,-1,7
 651 783 651 783 651 692 c 0,8,9
 651 643 651 643 635 600 c 128,-1,10
 619 557 619 557 592 525.5 c 128,-1,11
 565 494 565 494 528.5 468.5 c 128,-1,12
 492 443 492 443 451.5 428 c 128,-1,13
 411 413 411 413 368.5 402.5 c 128,-1,14
 326 392 326 392 286.5 392 c 128,-1,15
 247 392 247 392 212 396 c 1,16,17
 203 251 203 251 237 176.5 c 128,-1,18
 271 102 271 102 359 102 c 0,19,20
 433 102 433 102 490.5 126 c 128,-1,21
 548 150 548 150 579 177 c 1,22,-1
 605 132 l 1,23,24
 567 73 567 73 478 21.5 c 128,-1,25
 389 -30 389 -30 295 -30 c 0,26,27
 51 -30 51 -30 47 289 c 0,0,1
221 469 m 1,28,29
 274 463 274 463 322.5 470 c 128,-1,30
 371 477 371 477 411.5 498 c 128,-1,31
 452 519 452 519 476.5 561.5 c 128,-1,32
 501 604 501 604 501 663 c 0,33,34
 501 719 501 719 476 758.5 c 128,-1,35
 451 798 451 798 409 798 c 0,36,37
 384 798 384 798 361 789.5 c 128,-1,38
 338 781 338 781 314 758 c 128,-1,39
 290 735 290 735 271 699 c 128,-1,40
 252 663 252 663 238.5 604 c 128,-1,41
 225 545 225 545 221 469 c 1,28,29
EndSplineSet
Colour: ffff
EndChar

StartChar: f
Encoding: 70 102 58
Width: 656
VWidth: 0
Flags: MW
LayerCount: 2
Back
SplineSet
35 0 m 1,0,-1
 47 73 l 1,1,-1
 199 116 l 1,2,-1
 199 784 l 1,3,-1
 50 784 l 1,4,-1
 62 857 l 1,5,-1
 200 879 l 1,6,7
 212 982 212 982 252 1066 c 0
 292 1150 292 1150 347 1200.5 c 0
 402 1251 402 1251 461 1277.5 c 0
 520 1304 520 1304 575 1304 c 0,8,9
 659 1304 659 1304 710.5 1275 c 0
 762 1246 762 1246 762 1189 c 0,10,11
 762 1155 762 1155 732 1121.5 c 0
 702 1088 702 1088 673 1077 c 1,12,13
 635 1124 635 1124 587 1161 c 0
 539 1198 539 1198 497 1198 c 0,14,15
 436 1198 436 1198 403.5 1150 c 0
 371 1102 371 1102 368 981 c 2,16,-1
 366 873 l 1,17,-1
 623 873 l 1,18,-1
 611 784 l 1,19,-1
 366 784 l 1,20,-1
 366 121 l 1,21,-1
 611 83 l 1,22,-1
 604 0 l 1,23,-1
 35 0 l 1,0,-1
EndSplineSet
Fore
SplineSet
826 1193 m 0,0,1
 826 1163 826 1163 811.5 1134 c 128,-1,2
 797 1105 797 1105 769 1090 c 1,3,4
 678 1188 678 1188 603 1188 c 0,5,6
 581 1188 581 1188 564 1178 c 128,-1,7
 547 1168 547 1168 534 1147 c 128,-1,8
 521 1126 521 1126 511.5 1104 c 128,-1,9
 502 1082 502 1082 494.5 1047.5 c 128,-1,10
 487 1013 487 1013 482 987 c 128,-1,11
 477 961 477 961 470 920.5 c 128,-1,12
 463 880 463 880 459 858 c 1,13,-1
 639 858 l 1,14,-1
 621 768 l 1,15,-1
 446 768 l 1,16,-1
 342 109 l 1,17,-1
 550 79 l 1,18,-1
 532 2 l 1,19,-1
 43 2 l 1,20,-1
 60 76 l 1,21,-1
 184 109 l 1,22,-1
 285 768 l 1,23,-1
 136 768 l 1,24,-1
 150 836 l 1,25,-1
 307 872 l 1,26,27
 342 1056 342 1056 452.5 1181 c 128,-1,28
 563 1306 563 1306 674 1306 c 0,29,30
 826 1306 826 1306 826 1193 c 0,0,1
EndSplineSet
Colour: ffff
EndChar

StartChar: g
Encoding: 71 103 59
Width: 839
VWidth: 0
Flags: MW
LayerCount: 2
Back
SplineSet
371.209 542 m 4,0,1
 371.209 477.545 371.209 477.545 400.784 428.772 c 0
 430.359 380 430.359 380 481.209 380 c 0,2,3
 521.442 380 521.442 380 553.403 405.622 c 0
 585.365 431.244 585.365 431.244 604.104 472.955 c 0
 622.843 514.666 622.843 514.666 632.526 562.903 c 0
 642.209 611.14 642.209 611.14 642.209 661 c 0,4,5
 642.209 704.271 642.209 704.271 634.017 738.711 c 0
 625.826 773.152 625.826 773.152 604.109 797.576 c 0
 582.391 822 582.391 822 549.209 822 c 0,6,7
 494.73 822 494.73 822 452.73 777.423 c 0
 410.731 732.847 410.731 732.847 390.97 670.168 c 0
 371.209 607.489 371.209 607.489 371.209 542 c 4,0,1
473.209 169 m 6,8,-1
 551.209 169 l 2,9,10
 680.779 169 680.779 169 748.994 116.523 c 0
 817.209 64.0461 817.209 64.0461 817.209 -42 c 0,11,12
 817.209 -111.889 817.209 -111.889 773.756 -176.758 c 0
 730.303 -241.626 730.303 -241.626 661.584 -286.789 c 0
 592.865 -331.953 592.865 -331.953 506.656 -358.976 c 0
 420.448 -386 420.448 -386 336.209 -386 c 0,13,14
 273.66 -386 273.66 -386 218.707 -375.638 c 0
 163.754 -365.276 163.754 -365.276 116.415 -343.474 c 0
 69.0769 -321.673 69.0769 -321.673 41.0776 -282.529 c 0
 13.0783 -243.385 13.0783 -243.385 12.209 -191 c 0,15,16
 12.209 -139.027 12.209 -139.027 47.7594 -89.9193 c 0
 83.3097 -40.8118 83.3097 -40.8118 132.711 -9.1909 c 0
 182.112 22.43 182.112 22.43 234.209 37 c 1,17,-1
 234.209 45 l 1,18,19
 195.615 60.2887 195.615 60.2887 171.912 86.5134 c 0
 148.209 112.738 148.209 112.738 148.209 163 c 0,20,21
 148.209 212.252 148.209 212.252 207.802 261.135 c 0
 267.395 310.019 267.395 310.019 330.209 330 c 1,22,-1
 325.209 338 l 1,23,24
 292.195 351.988 292.195 351.988 255.702 411.223 c 0
 219.209 470.457 219.209 470.457 219.209 530 c 0,25,26
 219.209 625.285 219.209 625.285 270.995 710.706 c 0
 322.781 796.126 322.781 796.126 406.828 846.563 c 0
 490.874 897 490.874 897 582.209 897 c 0,27,28
 681.209 897 681.209 897 739.209 834 c 1,29,-1
 940.209 859 l 1,30,-1
 957.209 836 l 1,31,-1
 912.209 715 l 1,32,-1
 896.209 715 l 1,33,-1
 777.209 755 l 1,34,-1
 775.209 738 l 1,35,36
 790.209 718.422 790.209 718.422 790.209 631 c 0,37,38
 790.209 560.955 790.209 560.955 754.596 495.369 c 0
 718.984 429.782 718.984 429.782 664.229 385.819 c 0
 609.475 341.856 609.475 341.856 540.569 320.369 c 0
 471.663 298.881 471.663 298.881 408.209 311 c 1,39,40
 377.449 301.216 377.449 301.216 351.329 274.737 c 0
 325.209 248.257 325.209 248.257 325.209 220 c 0,41,42
 325.209 188.47 325.209 188.47 359.124 178.735 c 0
 393.039 169 393.039 169 473.209 169 c 6,8,-1
309.209 22 m 5,43,44
 263.459 9.94413 263.459 9.94413 218.334 -33.6171 c 0
 173.209 -77.1783 173.209 -77.1783 173.209 -128 c 0,45,46
 173.209 -194.779 173.209 -194.779 240.192 -236.889 c 0
 307.175 -279 307.175 -279 399.209 -279 c 0,47,48
 503.772 -279 503.772 -279 575.991 -233.227 c 0
 648.209 -187.455 648.209 -187.455 648.209 -116 c 0,49,50
 648.209 -40.7978 648.209 -40.7978 603.544 -9.3989 c 0
 558.879 22 558.879 22 439.209 22 c 2,51,-1
 309.209 22 l 5,43,44
EndSplineSet
Fore
SplineSet
309 22 m 1,0,1
 263 10 263 10 218 -33.5 c 128,-1,2
 173 -77 173 -77 173 -128 c 0,3,4
 173 -195 173 -195 240 -237 c 128,-1,5
 307 -279 307 -279 399 -279 c 0,6,7
 500 -279 500 -279 569.5 -237.5 c 128,-1,8
 639 -196 639 -196 639 -132 c 0,9,10
 639 -95 639 -95 629 -67.5 c 128,-1,11
 619 -40 619 -40 593.5 -24 c 128,-1,12
 568 -8 568 -8 545 2 c 128,-1,13
 522 12 522 12 476 16 c 128,-1,14
 430 20 430 20 399.5 21 c 128,-1,15
 369 22 369 22 309 22 c 1,0,1
473 169 m 0,16,17
 534 166 534 166 578 160.5 c 128,-1,18
 622 155 622 155 669 139.5 c 128,-1,19
 716 124 716 124 744.5 99 c 128,-1,20
 773 74 773 74 791.5 31.5 c 128,-1,21
 810 -11 810 -11 810 -69 c 0,22,23
 810 -152 810 -152 740.5 -223.5 c 128,-1,24
 671 -295 671 -295 562.5 -335 c 128,-1,25
 454 -375 454 -375 339 -375 c 0,26,27
 256 -375 256 -375 189 -357.5 c 128,-1,28
 122 -340 122 -340 73.5 -293.5 c 128,-1,29
 25 -247 25 -247 24 -177 c 0,30,31
 24 -128 24 -128 57.5 -82 c 128,-1,32
 91 -36 91 -36 138 -6.5 c 128,-1,33
 185 23 185 23 234 37 c 1,34,-1
 234 45 l 1,35,36
 195 60 195 60 171.5 86.5 c 128,-1,37
 148 113 148 113 148 163 c 0,38,39
 148 212 148 212 207.5 261 c 128,-1,40
 267 310 267 310 330 330 c 1,41,-1
 325 338 l 1,42,43
 292 352 292 352 255.5 411 c 128,-1,44
 219 470 219 470 219 530 c 0,45,46
 219 625 219 625 271 710.5 c 128,-1,47
 323 796 323 796 407 846.5 c 128,-1,48
 491 897 491 897 582 897 c 0,49,50
 681 897 681 897 739 834 c 1,51,-1
 940 859 l 1,52,-1
 957 836 l 1,53,-1
 912 715 l 1,54,-1
 896 715 l 1,55,-1
 777 755 l 1,56,-1
 775 738 l 1,57,58
 790 718 790 718 790 631 c 0,59,60
 790 561 790 561 754.5 495.5 c 128,-1,61
 719 430 719 430 664 386 c 128,-1,62
 609 342 609 342 540.5 320.5 c 128,-1,63
 472 299 472 299 408 311 c 1,64,65
 377 301 377 301 351 274.5 c 128,-1,66
 325 248 325 248 325 220 c 0,67,68
 325 209 325 209 328.5 201 c 128,-1,69
 332 193 332 193 342.5 187.5 c 128,-1,70
 353 182 353 182 362 179 c 128,-1,71
 371 176 371 176 392 174 c 128,-1,72
 413 172 413 172 427.5 171 c 128,-1,73
 442 170 442 170 473 169 c 0,16,17
371 542 m 0,74,75
 371 478 371 478 400.5 429 c 128,-1,76
 430 380 430 380 481 380 c 0,77,78
 521 380 521 380 553 405.5 c 128,-1,79
 585 431 585 431 604 473 c 128,-1,80
 623 515 623 515 632.5 563 c 128,-1,81
 642 611 642 611 642 661 c 0,82,83
 642 704 642 704 634 738.5 c 128,-1,84
 626 773 626 773 604 797.5 c 128,-1,85
 582 822 582 822 549 822 c 0,86,87
 495 822 495 822 453 777.5 c 128,-1,88
 411 733 411 733 391 670 c 128,-1,89
 371 607 371 607 371 542 c 0,74,75
EndSplineSet
Colour: ffff
EndChar

StartChar: h
Encoding: 72 104 60
Width: 954
VWidth: 0
Flags: MW
LayerCount: 2
Back
SplineSet
10 0 m 1,0,-1
 21 79 l 1,1,-1
 175 116 l 1,2,-1
 175 1117 l 1,3,-1
 15 1171 l 1,4,-1
 27 1247 l 1,5,-1
 316 1269 l 1,6,-1
 341 1245 l 1,7,-1
 341 850 l 1,8,-1
 325 744 l 1,9,-1
 335 744 l 1,10,11
 476 900 476 900 629 900 c 0,12,13
 684 900 684 900 725.5 886.5 c 0
 767 873 767 873 801.5 841 c 0
 836 809 836 809 854 748 c 0
 872 687 872 687 872 599 c 2,14,-1
 872 114 l 1,15,-1
 1017 79 l 1,16,-1
 1005 0 l 1,17,-1
 556 0 l 1,18,-1
 568 74 l 1,19,-1
 703 114 l 1,20,-1
 706 580 l 2,21,22
 706 677 706 677 655 720.5 c 0
 604 764 604 764 534 764 c 0,23,24
 426 764 426 764 341 675 c 1,25,-1
 341 116 l 1,26,-1
 487 80 l 1,27,-1
 475 0 l 1,28,-1
 10 0 l 1,0,-1
EndSplineSet
Fore
SplineSet
866 613 m 1,0,-1
 783 101 l 1,1,-1
 907 73 l 1,2,-1
 886 0 l 1,3,-1
 615 0 l 1,4,-1
 699 525 l 1,5,6
 733 745 733 745 620 745 c 0,7,8
 576 745 576 745 537.5 730.5 c 128,-1,9
 499 716 499 716 478.5 701 c 128,-1,10
 458 686 458 686 433 662 c 1,11,-1
 344 102 l 1,12,-1
 466 71 l 1,13,-1
 448 0 l 1,14,-1
 43 0 l 1,15,-1
 65 74 l 1,16,-1
 185 107 l 1,17,-1
 347 1126 l 1,18,-1
 213 1149 l 1,19,-1
 225 1225 l 1,20,-1
 499 1250 l 1,21,-1
 521 1227 l 1,22,-1
 459 846 l 1,23,-1
 431 722 l 1,24,-1
 443 722 l 1,25,26
 494 790 494 790 569.5 841.5 c 128,-1,27
 645 893 645 893 727 893 c 0,28,29
 910 893 910 893 866 613 c 1,0,-1
EndSplineSet
Colour: ffff
EndChar

StartChar: i
Encoding: 73 105 61
Width: 579
VWidth: 0
Flags: MW
LayerCount: 2
Back
SplineSet
37 0 m 1,0,-1
 49 79 l 1,1,-1
 200 116 l 1,2,-1
 200 731 l 1,3,-1
 49 786 l 1,4,-1
 62 862 l 1,5,-1
 343 885 l 1,6,-1
 368 860 l 1,7,-1
 368 116 l 1,8,-1
 528 80 l 1,9,-1
 517 0 l 1,10,-1
 37 0 l 1,0,-1
156 1194 m 0,11,12
 156 1241 156 1241 191.5 1273.5 c 0
 227 1306 227 1306 275 1306 c 0,13,14
 325 1306 325 1306 361 1273 c 0
 397 1240 397 1240 397 1192 c 0,15,16
 397 1142 397 1142 361 1106 c 0
 325 1070 325 1070 275 1070 c 0,17,18
 226 1070 226 1070 191 1106.5 c 0
 156 1143 156 1143 156 1194 c 0,11,12
EndSplineSet
Fore
SplineSet
444 1291 m 0,0,1
 481 1291 481 1291 507.5 1261.5 c 128,-1,2
 534 1232 534 1232 534 1194 c 0,3,4
 534 1138 534 1138 499 1102.5 c 128,-1,5
 464 1067 464 1067 411 1067 c 0,6,7
 374 1067 374 1067 343.5 1098 c 128,-1,8
 313 1129 313 1129 313 1164 c 0,9,10
 313 1218 313 1218 351.5 1254.5 c 128,-1,11
 390 1291 390 1291 444 1291 c 0,0,1
185 106 m 1,12,-1
 285 746 l 1,13,-1
 155 768 l 1,14,-1
 165 844 l 1,15,-1
 439 869 l 1,16,-1
 459 846 l 1,17,-1
 343 102 l 1,18,-1
 469 71 l 1,19,-1
 452 -2 l 1,20,-1
 44 -2 l 1,21,-1
 62 73 l 1,22,-1
 185 106 l 1,12,-1
EndSplineSet
Colour: ffff
EndChar

StartChar: j
Encoding: 74 106 62
Width: 703
VWidth: 0
Flags: MW
LayerCount: 2
Back
SplineSet
-34 -295 m 1,0,1
 3 -268 3 -268 31 -241.5 c 0
 59 -215 59 -215 90 -173.5 c 0
 121 -132 121 -132 141 -85.5 c 0
 161 -39 161 -39 174 27.5 c 0
 187 94 187 94 187 172 c 2,2,-1
 187 731 l 1,3,-1
 37 786 l 1,4,-1
 52 866 l 1,5,-1
 331 887 l 1,6,-1
 356 862 l 1,7,-1
 356 151 l 2,8,9
 356 -193 356 -193 61 -359 c 1,10,-1
 15 -383 l 1,11,-1
 -34 -295 l 1,0,1
139 1189 m 0,12,13
 139 1239 139 1239 175.5 1273.5 c 0
 212 1308 212 1308 263 1308 c 0,14,15
 313 1308 313 1308 348.5 1272.5 c 0
 384 1237 384 1237 384 1188 c 0,16,17
 384 1137 384 1137 348 1100 c 0
 312 1063 312 1063 262 1063 c 0,18,19
 212 1063 212 1063 175.5 1100.5 c 0
 139 1138 139 1138 139 1189 c 0,12,13
EndSplineSet
Fore
SplineSet
42 -307 m 1,0,1
 264 -145 264 -145 300 99 c 1,2,-1
 402 748 l 1,3,-1
 270 770 l 1,4,-1
 280 846 l 1,5,-1
 554 870 l 1,6,-1
 576 847 l 1,7,-1
 455 86 l 2,8,9
 442 6 442 6 409.5 -66 c 128,-1,10
 377 -138 377 -138 338.5 -187.5 c 128,-1,11
 300 -237 300 -237 251.5 -279.5 c 128,-1,12
 203 -322 203 -322 166 -345 c 128,-1,13
 129 -368 129 -368 92 -386 c 1,14,-1
 42 -307 l 1,0,1
561 1293 m 0,15,16
 601 1293 601 1293 629.5 1262 c 128,-1,17
 658 1231 658 1231 658 1192 c 0,18,19
 658 1133 658 1133 620.5 1095 c 128,-1,20
 583 1057 583 1057 528 1057 c 0,21,22
 489 1057 489 1057 458 1088.5 c 128,-1,23
 427 1120 427 1120 427 1159 c 0,24,25
 427 1213 427 1213 466.5 1253 c 128,-1,26
 506 1293 506 1293 561 1293 c 0,15,16
EndSplineSet
Colour: ffff
EndChar

StartChar: k
Encoding: 75 107 63
Width: 1000
VWidth: 0
Flags: MW
LayerCount: 2
Back
SplineSet
10 0 m 1,0,-1
 21 79 l 1,1,-1
 174 116 l 1,2,-1
 174 1108 l 1,3,-1
 16 1161 l 1,4,-1
 28 1237 l 1,5,-1
 316 1260 l 1,6,-1
 341 1235 l 1,7,-1
 341 116 l 1,8,-1
 500 80 l 1,9,-1
 488 0 l 1,10,-1
 10 0 l 1,0,-1
365 432 m 1,11,-1
 365 452 l 1,12,-1
 624 777 l 1,13,-1
 491 817 l 1,14,-1
 501 893 l 1,15,-1
 927 893 l 1,16,-1
 913 819 l 1,17,-1
 764 777 l 1,18,-1
 527 487 l 1,19,-1
 606 386 l 2,20,21
 631 354 631 354 671 301.5 c 0
 711 249 711 249 728.5 226.5 c 0
 746 204 746 204 775 171.5 c 0
 804 139 804 139 824.5 125.5 c 0
 845 112 845 112 872.5 99.5 c 0
 900 87 900 87 931 83 c 2,22,-1
 971 77 l 1,23,-1
 960 0 l 1,24,25
 889 -19 889 -19 841 -19 c 0,26,27
 747 -19 747 -19 675 44 c 0
 603 107 603 107 470 287 c 1,28,-1
 365 432 l 1,11,-1
EndSplineSet
Fore
SplineSet
185 107 m 1,0,-1
 347 1126 l 1,1,-1
 214 1148 l 1,2,-1
 226 1224 l 1,3,-1
 498 1249 l 1,4,-1
 520 1225 l 1,5,-1
 343 104 l 1,6,-1
 469 73 l 1,7,-1
 452 0 l 1,8,-1
 44 0 l 1,9,-1
 61 74 l 1,10,-1
 185 107 l 1,0,-1
419 434 m 1,11,-1
 422 451 l 1,12,-1
 685 770 l 1,13,-1
 563 803 l 1,14,-1
 578 874 l 1,15,-1
 958 874 l 1,16,-1
 936 798 l 1,17,-1
 804 765 l 1,18,-1
 565 487 l 1,19,-1
 614 383 l 2,20,21
 623 364 623 364 640.5 324.5 c 128,-1,22
 658 285 658 285 665.5 269.5 c 128,-1,23
 673 254 673 254 687.5 224 c 128,-1,24
 702 194 702 194 710.5 181.5 c 128,-1,25
 719 169 719 169 733.5 148.5 c 128,-1,26
 748 128 748 128 759.5 119 c 128,-1,27
 771 110 771 110 787.5 98.5 c 128,-1,28
 804 87 804 87 821.5 81.5 c 128,-1,29
 839 76 839 76 860 73 c 2,30,-1
 895 68 l 1,31,-1
 873 -2 l 1,32,33
 801 -20 801 -20 740 -20 c 0,34,35
 655 -20 655 -20 605.5 43.5 c 128,-1,36
 556 107 556 107 480 287 c 1,37,-1
 419 434 l 1,11,-1
EndSplineSet
Colour: ffff
EndChar

StartChar: l
Encoding: 76 108 64
Width: 562
VWidth: 0
Flags: MW
LayerCount: 2
Back
SplineSet
10 0 m 1,0,-1
 21 79 l 1,1,-1
 174 116 l 1,2,-1
 174 1117 l 1,3,-1
 16 1171 l 1,4,-1
 28 1247 l 1,5,-1
 316 1269 l 1,6,-1
 341 1245 l 1,7,-1
 341 116 l 1,8,-1
 500 80 l 1,9,-1
 488 0 l 1,10,-1
 10 0 l 1,0,-1
EndSplineSet
Fore
SplineSet
184 107 m 1,0,-1
 346 1126 l 1,1,-1
 213 1148 l 1,2,-1
 225 1224 l 1,3,-1
 497 1249 l 1,4,-1
 519 1225 l 1,5,-1
 342 104 l 1,6,-1
 469 73 l 1,7,-1
 451 0 l 1,8,-1
 43 0 l 1,9,-1
 61 74 l 1,10,-1
 184 107 l 1,0,-1
EndSplineSet
Colour: ffff
EndChar

StartChar: m
Encoding: 77 109 65
Width: 1391
VWidth: 0
Flags: MW
LayerCount: 2
Back
SplineSet
43 0 m 1,0,-1
 53 74 l 1,1,-1
 203 114 l 1,2,-1
 203 719 l 1,3,-1
 43 770 l 1,4,-1
 53 845 l 1,5,-1
 357 887 l 1,6,-1
 375 866 l 1,7,-1
 357 740 l 1,8,-1
 366 740 l 1,9,10
 419 806 419 806 498.5 851 c 0
 578 896 578 896 666 896 c 0,11,12
 742 896 742 896 803.5 856 c 0
 865 816 865 816 887 731 c 1,13,-1
 899 731 l 1,14,15
 952 799 952 799 1028.5 843.5 c 0
 1105 888 1105 888 1194 888 c 0,16,17
 1430 888 1430 888 1430 609 c 2,18,-1
 1430 116 l 1,19,-1
 1568 80 l 1,20,-1
 1555 1 l 1,21,-1
 1130 1 l 1,22,-1
 1137 74 l 1,23,-1
 1262 114 l 1,24,-1
 1262 585 l 2,25,26
 1262 660 1262 660 1217 710 c 0
 1172 760 1172 760 1094 760 c 0,27,28
 1034 760 1034 760 990.5 733.5 c 0
 947 707 947 707 903 660 c 1,29,-1
 903 114 l 1,30,-1
 1051 79 l 1,31,-1
 1041 0 l 1,32,-1
 598 0 l 1,33,-1
 609 74 l 1,34,-1
 740 114 l 1,35,-1
 740 585 l 2,36,37
 740 663 740 663 691 711.5 c 0
 642 760 642 760 569 760 c 0,38,39
 448 760 448 760 372 673 c 1,40,-1
 372 114 l 1,41,-1
 515 79 l 1,42,-1
 504 0 l 1,43,-1
 43 0 l 1,0,-1
EndSplineSet
Fore
SplineSet
1293 613 m 1,0,-1
 1218 101 l 1,1,-1
 1342 73 l 1,2,-1
 1321 0 l 1,3,-1
 1058 0 l 1,4,-1
 1047 13 l 1,5,-1
 1126 525 l 1,6,7
 1159 746 1159 746 1062 746 c 0,8,9
 954 746 954 746 870 662 c 1,10,11
 862 593 862 593 847 509 c 1,12,-1
 822 352 l 1,13,-1
 783 102 l 1,14,-1
 906 74 l 1,15,-1
 885 2 l 1,16,-1
 622 2 l 1,17,-1
 611 15 l 1,18,-1
 693 525 l 1,19,20
 712 620 712 620 698 683 c 128,-1,21
 684 746 684 746 626 746 c 0,22,23
 526 746 526 746 437 662 c 1,24,-1
 350 104 l 1,25,-1
 472 73 l 1,26,-1
 454 0 l 1,27,-1
 44 0 l 1,28,-1
 66 76 l 1,29,-1
 186 109 l 1,30,-1
 282 742 l 1,31,-1
 152 763 l 1,32,-1
 165 846 l 1,33,-1
 446 870 l 1,34,-1
 467 847 l 1,35,-1
 436 722 l 1,36,-1
 447 722 l 1,37,38
 461 743 461 743 485 768.5 c 128,-1,39
 509 794 509 794 546 824 c 128,-1,40
 583 854 583 854 632 873.5 c 128,-1,41
 681 893 681 893 731 893 c 0,42,43
 798 893 798 893 837.5 853 c 128,-1,44
 877 813 877 813 873 730 c 1,45,-1
 885 730 l 1,46,47
 1008 893 1008 893 1162 893 c 0,48,49
 1253 893 1253 893 1283 825 c 128,-1,50
 1313 757 1313 757 1293 613 c 1,0,-1
EndSplineSet
Colour: ffff
EndChar

StartChar: n
Encoding: 78 110 66
Width: 952
VWidth: 0
Flags: MW
LayerCount: 2
Back
SplineSet
37 0 m 1,0,-1
 47 73 l 1,1,-1
 198 114 l 1,2,-1
 198 721 l 1,3,-1
 44 773 l 1,4,-1
 54 849 l 1,5,-1
 352 888 l 1,6,-1
 369 869 l 1,7,-1
 352 741 l 1,8,-1
 362 741 l 1,9,10
 419 809 419 809 497 854 c 0
 575 899 575 899 663 899 c 0,11,12
 780 899 780 899 842 825 c 0
 904 751 904 751 904 616 c 2,13,-1
 904 114 l 1,14,-1
 1048 79 l 1,15,-1
 1038 0 l 1,16,-1
 589 0 l 1,17,-1
 599 73 l 1,18,-1
 737 114 l 1,19,-1
 737 577 l 2,20,21
 737 670 737 670 689.5 715.5 c 0
 642 761 642 761 563 761 c 0,22,23
 443 761 443 761 366 675 c 1,24,-1
 366 114 l 1,25,-1
 515 79 l 1,26,-1
 501 0 l 1,27,-1
 37 0 l 1,0,-1
EndSplineSet
Fore
SplineSet
858 613 m 1,0,-1
 779 104 l 1,1,-1
 903 76 l 1,2,-1
 882 3 l 1,3,-1
 616 3 l 1,4,-1
 604 17 l 1,5,-1
 687 525 l 1,6,7
 703 612 703 612 697.5 660.5 c 128,-1,8
 692 709 692 709 673.5 726 c 128,-1,9
 655 743 655 743 616 743 c 0,10,11
 515 743 515 743 432 664 c 1,12,-1
 343 106 l 1,13,-1
 465 74 l 1,14,-1
 447 2 l 1,15,-1
 44 2 l 1,16,-1
 66 74 l 1,17,-1
 186 107 l 1,18,-1
 282 742 l 1,19,-1
 152 763 l 1,20,-1
 165 846 l 1,21,-1
 442 870 l 1,22,-1
 464 847 l 1,23,-1
 429 722 l 1,24,-1
 441 722 l 1,25,26
 489 786 489 786 571 839.5 c 128,-1,27
 653 893 653 893 728 893 c 0,28,29
 814 893 814 893 847.5 831.5 c 128,-1,30
 881 770 881 770 858 613 c 1,0,-1
EndSplineSet
Colour: ffff
EndChar

StartChar: o
Encoding: 79 111 67
Width: 814
VWidth: 0
Flags: MW
LayerCount: 2
Back
SplineSet
52 426 m 4,0,1
 52 536 52 536 88.5 628 c 0
 125 720 125 720 186 779 c 0
 247 838 247 838 325 870.5 c 0
 403 903 403 903 487 903 c 0,2,3
 670 903 670 903 776 776.5 c 0
 882 650 882 650 882 441 c 0,4,5
 882 235 882 235 761.5 104 c 0
 641 -27 641 -27 463 -27 c 0,6,7
 270 -27 270 -27 161 100 c 0
 52 227 52 227 52 426 c 4,0,1
230 497 m 4,8,9
 230 416 230 416 244.5 343 c 0
 259 270 259 270 289 207 c 0
 319 144 319 144 372.5 107 c 0
 426 70 426 70 497 70 c 0,10,11
 596 70 596 70 650 156.5 c 0
 704 243 704 243 704 359 c 0,12,13
 704 438 704 438 689.5 512 c 0
 675 586 675 586 646 652 c 0
 617 718 617 718 565 758 c 0
 513 798 513 798 445 798 c 0,14,15
 373 798 373 798 323 754.5 c 0
 273 711 273 711 251.5 645 c 0
 230 579 230 579 230 497 c 4,8,9
EndSplineSet
Fore
SplineSet
327 -26 m 0,0,1
 194 -26 194 -26 121 73 c 128,-1,2
 48 172 48 172 48 327 c 0,3,4
 48 468 48 468 106.5 597.5 c 128,-1,5
 165 727 165 727 273 810 c 128,-1,6
 381 893 381 893 512 893 c 0,7,8
 565 893 565 893 608.5 873 c 128,-1,9
 652 853 652 853 680.5 819 c 128,-1,10
 709 785 709 785 728.5 739 c 128,-1,11
 748 693 748 693 756.5 642.5 c 128,-1,12
 765 592 765 592 765 537 c 0,13,14
 765 398 765 398 710.5 269.5 c 128,-1,15
 656 141 656 141 554 57.5 c 128,-1,16
 452 -26 452 -26 327 -26 c 0,0,1
589 552 m 0,17,18
 589 593 589 593 582.5 636.5 c 128,-1,19
 576 680 576 680 562.5 721.5 c 128,-1,20
 549 763 549 763 524.5 789.5 c 128,-1,21
 500 816 500 816 469 816 c 0,22,23
 390 816 390 816 334 742.5 c 128,-1,24
 278 669 278 669 253.5 559.5 c 128,-1,25
 229 450 229 450 229 320 c 0,26,27
 229 250 229 250 242.5 189.5 c 128,-1,28
 256 129 256 129 287 88.5 c 128,-1,29
 318 48 318 48 360 48 c 0,30,31
 430 48 430 48 483.5 123 c 128,-1,32
 537 198 537 198 563 311 c 128,-1,33
 589 424 589 424 589 552 c 0,17,18
EndSplineSet
Colour: ffff
EndChar

StartChar: p
Encoding: 80 112 68
Width: 1023
VWidth: 0
Flags: MW
LayerCount: 2
Back
SplineSet
13 -372 m 1,0,-1
 19 -294 l 1,1,-1
 172 -256 l 1,2,-1
 172 722 l 1,3,-1
 18 768 l 1,4,-1
 30 845 l 1,5,-1
 321 882 l 1,6,-1
 342 863 l 1,7,-1
 328 734 l 1,8,-1
 335 734 l 1,9,10
 383 801 383 801 453 850 c 0
 523 899 523 899 611 899 c 0,11,12
 747 899 747 899 830.5 792 c 0
 914 685 914 685 914 467 c 0,13,14
 914 254 914 254 788 117.5 c 0
 662 -19 662 -19 469 -19 c 0,15,16
 425 -19 425 -19 375 -10 c 1,17,-1
 369 111 l 1,18,19
 403 98 403 98 433 93.5 c 0
 463 89 463 89 522 89 c 0,20,21
 623 89 623 89 677 175 c 0
 731 261 731 261 731 406 c 0,22,23
 731 768 731 768 540 768 c 0,24,25
 433 768 433 768 335 666 c 1,26,-1
 335 -257 l 1,27,-1
 491 -292 l 1,28,-1
 479 -372 l 1,29,-1
 13 -372 l 1,0,-1
EndSplineSet
Fore
SplineSet
182 -258 m 1,0,-1
 328 748 l 1,1,-1
 196 770 l 1,2,-1
 207 846 l 1,3,-1
 489 870 l 1,4,-1
 509 847 l 1,5,-1
 478 720 l 1,6,-1
 489 720 l 1,7,8
 522 783 522 783 596 836.5 c 128,-1,9
 670 890 670 890 736 890 c 0,10,11
 835 890 835 890 904 786 c 128,-1,12
 973 682 973 682 973 532 c 0,13,14
 973 406 973 406 932.5 300.5 c 128,-1,15
 892 195 892 195 824.5 126.5 c 128,-1,16
 757 58 757 58 672.5 20 c 128,-1,17
 588 -18 588 -18 498 -18 c 0,18,19
 425 -18 425 -18 405 -7 c 1,20,-1
 427 107 l 1,21,22
 463 89 463 89 514 89 c 0,23,24
 541 89 541 89 562.5 91 c 128,-1,25
 584 93 584 93 614.5 102 c 128,-1,26
 645 111 645 111 669 127 c 128,-1,27
 693 143 693 143 718 172.5 c 128,-1,28
 743 202 743 202 760 243 c 128,-1,29
 777 284 777 284 787.5 346 c 128,-1,30
 798 408 798 408 798 486 c 0,31,32
 798 605 798 605 759 675.5 c 128,-1,33
 720 746 720 746 666 746 c 0,34,35
 609 746 609 746 571.5 727.5 c 128,-1,36
 534 709 534 709 480 661 c 1,37,-1
 341 -263 l 1,38,-1
 496 -294 l 1,39,-1
 478 -365 l 1,40,-1
 42 -365 l 1,41,-1
 62 -291 l 1,42,-1
 182 -258 l 1,0,-1
EndSplineSet
Colour: ffff
EndChar

StartChar: q
Encoding: 81 113 69
Width: 808
VWidth: 0
Flags: MW
LayerCount: 2
Back
SplineSet
54 412 m 0,0,1
 54 510 54 510 93.5 602 c 0
 133 694 133 694 195.5 758.5 c 0
 258 823 258 823 337 861.5 c 0
 416 900 416 900 494 900 c 0,2,3
 538 900 538 900 587.5 884.5 c 0
 637 869 637 869 667 853 c 1,4,-1
 784 892 l 1,5,-1
 813 890 l 1,6,-1
 813 -251 l 1,7,-1
 973 -285 l 1,8,-1
 962 -366 l 1,9,-1
 486 -366 l 1,10,-1
 496 -287 l 1,11,-1
 647 -251 l 1,12,-1
 647 663 l 1,13,14
 616 719 616 719 564.5 760 c 0
 513 801 513 801 445 801 c 0,15,16
 351 801 351 801 289.5 712 c 0
 228 623 228 623 228 474 c 0,17,18
 228 300 228 300 288.5 202 c 0
 349 104 349 104 446 104 c 0,19,20
 476 104 476 104 530.5 116 c 0
 585 128 585 128 618 148 c 1,21,-1
 621 73 l 1,22,23
 577 31 577 31 507 5 c 0
 437 -21 437 -21 381 -21 c 0,24,25
 239 -21 239 -21 146.5 89.5 c 0
 54 200 54 200 54 412 c 0,0,1
EndSplineSet
Fore
SplineSet
441 -258 m 1,0,-1
 588 745 l 1,1,2
 530 779 530 779 474 779 c 0,3,4
 412 779 412 779 361 735.5 c 128,-1,5
 310 692 310 692 279 624.5 c 128,-1,6
 248 557 248 557 231.5 480 c 128,-1,7
 215 403 215 403 215 330 c 0,8,9
 215 233 215 233 244.5 167.5 c 128,-1,10
 274 102 274 102 330 102 c 0,11,12
 417 102 417 102 471 147 c 1,13,-1
 479 96 l 1,14,15
 437 41 437 41 382.5 10 c 128,-1,16
 328 -21 328 -21 241 -21 c 0,17,18
 149 -21 149 -21 97.5 58.5 c 128,-1,19
 46 138 46 138 46 264 c 0,20,21
 46 386 46 386 88.5 501.5 c 128,-1,22
 131 617 131 617 199 700 c 128,-1,23
 267 783 267 783 356 833.5 c 128,-1,24
 445 884 445 884 535 884 c 0,25,26
 579 884 579 884 636 848 c 1,27,-1
 748 879 l 1,28,-1
 765 872 l 1,29,-1
 596 -263 l 1,30,-1
 732 -294 l 1,31,-1
 713 -365 l 1,32,-1
 267 -365 l 1,33,-1
 287 -291 l 1,34,-1
 441 -258 l 1,0,-1
EndSplineSet
Colour: ffff
EndChar

StartChar: r
Encoding: 82 114 70
Width: 677
VWidth: 0
Flags: MW
LayerCount: 2
Back
SplineSet
40 0 m 1,0,-1
 50 74 l 1,1,-1
 203 114 l 1,2,-1
 203 728 l 1,3,-1
 40 777 l 1,4,-1
 54 853 l 1,5,-1
 341 890 l 1,6,-1
 364 866 l 1,7,-1
 344 636 l 1,8,-1
 363 636 l 1,9,10
 401 765 401 765 466.5 835.5 c 0
 532 906 532 906 598 906 c 0,11,12
 652 906 652 906 685 872.5 c 0
 718 839 718 839 718 793 c 0,13,14
 718 726 718 726 640 673 c 1,15,16
 584 722 584 722 530 722 c 0,17,18
 483 722 483 722 433 664.5 c 0
 383 607 383 607 369 504 c 1,19,-1
 369 121 l 1,20,-1
 602 87 l 1,21,-1
 592 0 l 1,22,-1
 40 0 l 1,0,-1
EndSplineSet
Fore
SplineSet
185 107 m 1,0,-1
 284 742 l 1,1,-1
 152 763 l 1,2,-1
 163 846 l 1,3,-1
 441 870 l 1,4,-1
 462 847 l 1,5,-1
 403 607 l 1,6,-1
 414 607 l 1,7,8
 450 719 450 719 513.5 805.5 c 128,-1,9
 577 892 577 892 647 892 c 0,10,11
 701 892 701 892 726.5 854 c 128,-1,12
 752 816 752 816 738.5 763.5 c 128,-1,13
 725 711 725 711 677 672 c 1,14,15
 647 707 647 707 601 707 c 0,16,17
 560 707 560 707 517.5 669.5 c 128,-1,18
 475 632 475 632 450 592 c 128,-1,19
 425 552 425 552 404 508 c 1,20,-1
 342 106 l 1,21,-1
 535 74 l 1,22,-1
 517 2 l 1,23,-1
 44 2 l 1,24,-1
 66 74 l 1,25,-1
 185 107 l 1,0,-1
EndSplineSet
Colour: ffff
EndChar

StartChar: s
Encoding: 83 115 71
Width: 685
VWidth: 0
Flags: MW
LayerCount: 2
Back
SplineSet
50 141 m 0,0,1
 50 193 50 193 85.5 230 c 0
 121 267 121 267 182 271 c 1,2,3
 213 168 213 168 262.5 116 c 0
 312 64 312 64 371 64 c 0,4,5
 429 64 429 64 466 88.5 c 0
 503 113 503 113 503 165 c 0,6,7
 503 197 503 197 479.5 226.5 c 0
 456 256 456 256 418 280 c 0
 380 304 380 304 334 329.5 c 0
 288 355 288 355 242.5 385 c 0
 197 415 197 415 159 449 c 0
 121 483 121 483 97.5 531 c 0
 74 579 74 579 74 635 c 0,8,9
 74 680 74 680 92.5 725.5 c 0
 111 771 111 771 146.5 810.5 c 0
 182 850 182 850 241 875 c 0
 300 900 300 900 372 900 c 0,10,11
 476 900 476 900 546.5 856.5 c 0
 617 813 617 813 617 734 c 0,12,13
 617 672 617 672 579.5 632.5 c 0
 542 593 542 593 477 589 c 1,14,-1
 470 632 l 1,15,16
 435 816 435 816 321 816 c 0,17,18
 270 816 270 816 239.5 781 c 0
 209 746 209 746 209 696 c 0,19,20
 209 658 209 658 233 625 c 0
 257 592 257 592 296 566 c 0
 335 540 335 540 381.5 514.5 c 0
 428 489 428 489 475 460 c 0
 522 431 522 431 561 398.5 c 0
 600 366 600 366 624 320 c 0
 648 274 648 274 648 220 c 0,21,22
 648 149 648 149 603 89.5 c 0
 558 30 558 30 487.5 -2 c 0
 417 -34 417 -34 340 -34 c 0,23,24
 211 -34 211 -34 130.5 18 c 0
 50 70 50 70 50 141 c 0,0,1
EndSplineSet
Fore
SplineSet
642 763 m 0,0,1
 642 697 642 697 608 658.5 c 128,-1,2
 574 620 574 620 513 614 c 1,3,-1
 510 637 l 1,4,5
 495 826 495 826 411 826 c 0,6,7
 359 826 359 826 323.5 793 c 128,-1,8
 288 760 288 760 288 697 c 0,9,10
 288 646 288 646 319.5 598.5 c 128,-1,11
 351 551 351 551 395.5 512.5 c 128,-1,12
 440 474 440 474 484.5 435.5 c 128,-1,13
 529 397 529 397 560.5 347.5 c 128,-1,14
 592 298 592 298 592 244 c 0,15,16
 592 183 592 183 560 128.5 c 128,-1,17
 528 74 528 74 478.5 39.5 c 128,-1,18
 429 5 429 5 373.5 -15 c 128,-1,19
 318 -35 318 -35 268 -35 c 0,20,21
 165 -35 165 -35 104.5 12 c 128,-1,22
 44 59 44 59 44 122 c 0,23,24
 44 171 44 171 76.5 206.5 c 128,-1,25
 109 242 109 242 166 248 c 1,26,27
 214 54 214 54 308 54 c 0,28,29
 359 54 359 54 403 88.5 c 128,-1,30
 447 123 447 123 447 182 c 0,31,32
 447 218 447 218 415.5 254 c 128,-1,33
 384 290 384 290 339.5 324.5 c 128,-1,34
 295 359 295 359 250.5 397.5 c 128,-1,35
 206 436 206 436 174.5 492.5 c 128,-1,36
 143 549 143 549 143 614 c 0,37,38
 143 725 143 725 237 813.5 c 128,-1,39
 331 902 331 902 462 902 c 0,40,41
 542 902 542 902 592 867 c 128,-1,42
 642 832 642 832 642 763 c 0,0,1
EndSplineSet
Colour: ffff
EndChar

StartChar: t
Encoding: 84 116 72
Width: 588
VWidth: 0
Flags: MW
LayerCount: 2
Back
SplineSet
28 783 m 1,0,-1
 28 837 l 1,1,2
 156 936 156 936 275 1087 c 1,3,-1
 328 1087 l 1,4,-1
 328 869 l 1,5,-1
 611 869 l 1,6,-1
 602 781 l 1,7,-1
 326 781 l 1,8,-1
 323 319 l 2,9,10
 323 208 323 208 357 165 c 0
 391 122 391 122 470 122 c 0,11,12
 503 122 503 122 539 136 c 0
 575 150 575 150 594.5 164 c 2
 614 178 l 1,13,-1
 635 124 l 1,14,15
 588 55 588 55 518 16 c 0
 448 -23 448 -23 364 -23 c 0,16,17
 315 -23 315 -23 278.5 -9.5 c 0
 242 4 242 4 211.5 34.5 c 0
 181 65 181 65 165.5 122 c 0
 150 179 150 179 151 260 c 2,18,-1
 155 783 l 1,19,-1
 28 783 l 1,0,-1
EndSplineSet
Fore
SplineSet
302 1080 m 1,0,-1
 366 1080 l 1,1,-1
 332 872 l 1,2,-1
 546 872 l 1,3,-1
 527 776 l 1,4,-1
 312 776 l 1,5,-1
 244 347 l 2,6,7
 239 315 239 315 236.5 291.5 c 128,-1,8
 234 268 234 268 234 233.5 c 128,-1,9
 234 199 234 199 240 177 c 128,-1,10
 246 155 246 155 262 138.5 c 128,-1,11
 278 122 278 122 304 122 c 0,12,13
 379 122 379 122 449 155 c 1,14,-1
 462 102 l 1,15,16
 418 52 418 52 350 15.5 c 128,-1,17
 282 -21 282 -21 216 -21 c 0,18,19
 152 -21 152 -21 115.5 17.5 c 128,-1,20
 79 56 79 56 72.5 118.5 c 128,-1,21
 66 181 66 181 77 259 c 1,22,-1
 160 776 l 1,23,-1
 49 776 l 1,24,-1
 59 824 l 1,25,26
 127 872 127 872 182.5 933.5 c 128,-1,27
 238 995 238 995 302 1080 c 1,0,-1
EndSplineSet
Colour: ffff
EndChar

StartChar: u
Encoding: 85 117 73
Width: 862
VWidth: 0
Flags: MW
LayerCount: 2
Back
SplineSet
19 783 m 1,0,-1
 33 862 l 1,1,-1
 301 883 l 1,2,-1
 326 859 l 1,3,-1
 326 317 l 2,4,5
 326 114 326 114 480 114 c 0,6,7
 591 114 591 114 666 191 c 1,8,-1
 666 722 l 1,9,-1
 507 764 l 1,10,-1
 517 856 l 1,11,-1
 811 883 l 1,12,-1
 832 859 l 1,13,-1
 832 215 l 2,14,15
 832 179 832 179 838.5 156 c 0
 845 133 845 133 862 120 c 0
 879 107 879 107 894 101.5 c 0
 909 96 909 96 940 89 c 2,16,-1
 986 79 l 1,17,-1
 977 -4 l 1,18,19
 898 -23 898 -23 826 -23 c 0,20,21
 754 -23 754 -23 716.5 17 c 0
 679 57 679 57 679 122 c 2,22,-1
 679 131 l 1,23,-1
 666 131 l 1,24,25
 560 -23 560 -23 380 -23 c 0,26,27
 157 -23 157 -23 157 267 c 2,28,-1
 157 728 l 1,29,-1
 19 783 l 1,0,-1
EndSplineSet
Fore
SplineSet
746 96 m 2,0,-1
 812 84 l 1,1,-1
 794 15 l 1,2,3
 708 -17 708 -17 653 -17 c 0,4,5
 509 -17 509 -17 526 130 c 1,6,-1
 516 130 l 1,7,8
 489 80 489 80 415.5 30 c 128,-1,9
 342 -20 342 -20 253 -20 c 0,10,11
 221 -20 221 -20 196.5 -13 c 128,-1,12
 172 -6 172 -6 149 12.5 c 128,-1,13
 126 31 126 31 115 63 c 128,-1,14
 104 95 104 95 99.5 145 c 128,-1,15
 95 195 95 195 108 264 c 1,16,-1
 181 746 l 1,17,-1
 50 770 l 1,18,-1
 60 844 l 1,19,-1
 343 869 l 1,20,-1
 362 846 l 1,21,-1
 283 375 l 1,22,23
 257 242 257 242 270 179.5 c 128,-1,24
 283 117 283 117 348 117 c 0,25,26
 445 117 445 117 528 200 c 1,27,-1
 610 746 l 1,28,-1
 476 770 l 1,29,-1
 486 844 l 1,30,-1
 772 869 l 1,31,-1
 792 846 l 1,32,-1
 716 370 l 2,33,34
 698 255 698 255 697.5 195 c 128,-1,35
 697 135 697 135 708.5 118 c 128,-1,36
 720 101 720 101 746 96 c 2,0,-1
EndSplineSet
Colour: ffff
EndChar

StartChar: v
Encoding: 86 118 74
Width: 883
VWidth: 0
Flags: MW
LayerCount: 2
Back
SplineSet
-6 798 m 1,0,-1
 4 873 l 1,1,-1
 451 873 l 1,2,-1
 443 799 l 1,3,-1
 298 758 l 1,4,-1
 486 194 l 1,5,-1
 678 756 l 1,6,-1
 517 798 l 1,7,-1
 531 873 l 1,8,-1
 914 873 l 1,9,-1
 902 799 l 1,10,-1
 794 758 l 1,11,-1
 521 -10 l 1,12,-1
 394 -28 l 1,13,-1
 116 756 l 1,14,-1
 -6 798 l 1,0,-1
EndSplineSet
Fore
SplineSet
273 -28 m 1,0,-1
 146 771 l 1,1,-1
 50 803 l 1,2,-1
 68 874 l 1,3,-1
 416 874 l 1,4,-1
 398 804 l 1,5,-1
 306 766 l 1,6,-1
 375 215 l 1,7,-1
 615 770 l 1,8,-1
 493 803 l 1,9,-1
 509 874 l 1,10,-1
 841 874 l 1,11,-1
 821 799 l 1,12,-1
 722 765 l 1,13,-1
 377 -10 l 1,14,-1
 273 -28 l 1,0,-1
EndSplineSet
Colour: ffff
EndChar

StartChar: w
Encoding: 87 119 75
Width: 1276
VWidth: 0
Flags: MW
LayerCount: 2
Back
SplineSet
-2 799 m 1,0,-1
 8 875 l 1,1,-1
 423 875 l 1,2,-1
 414 801 l 1,3,-1
 279 760 l 1,4,-1
 390 360 l 1,5,-1
 414 240 l 1,6,-1
 565 811 l 1,7,-1
 704 829 l 1,8,-1
 841 345 l 1,9,-1
 862 234 l 1,10,-1
 998 758 l 1,11,-1
 848 799 l 1,12,-1
 858 875 l 1,13,-1
 1241 875 l 1,14,-1
 1229 801 l 1,15,-1
 1121 760 l 1,16,-1
 909 -10 l 1,17,-1
 790 -28 l 1,18,-1
 617 586 l 1,19,-1
 460 -10 l 1,20,-1
 341 -28 l 1,21,-1
 113 758 l 1,22,-1
 -2 799 l 1,0,-1
EndSplineSet
Fore
SplineSet
585 809 m 1,0,-1
 719 827 l 1,1,-1
 778 347 l 1,2,-1
 783 215 l 1,3,-1
 1013 771 l 1,4,-1
 892 803 l 1,5,-1
 909 874 l 1,6,-1
 1234 874 l 1,7,-1
 1214 799 l 1,8,-1
 1119 766 l 1,9,-1
 782 -12 l 1,10,-1
 676 -30 l 1,11,-1
 597 603 l 1,12,-1
 338 -12 l 1,13,-1
 222 -30 l 1,14,-1
 146 771 l 1,15,-1
 49 803 l 1,16,-1
 67 874 l 1,17,-1
 420 874 l 1,18,-1
 402 799 l 1,19,-1
 281 766 l 1,20,-1
 331 362 l 1,21,-1
 339 226 l 1,22,-1
 585 809 l 1,0,-1
EndSplineSet
Colour: ffff
EndChar

StartChar: x
Encoding: 88 120 76
Width: 1024
VWidth: 0
Flags: MW
LayerCount: 2
Back
SplineSet
21 0 m 1,0,-1
 31 73 l 1,1,-1
 138 114 l 1,2,-1
 383 436 l 1,3,-1
 154 764 l 1,4,-1
 36 806 l 1,5,-1
 46 882 l 1,6,-1
 480 882 l 1,7,-1
 467 807 l 1,8,-1
 352 767 l 1,9,-1
 508 549 l 1,10,-1
 675 764 l 1,11,-1
 538 806 l 1,12,-1
 552 882 l 1,13,-1
 927 882 l 1,14,-1
 914 807 l 1,15,-1
 810 767 l 1,16,-1
 580 467 l 1,17,-1
 823 114 l 1,18,-1
 936 74 l 1,19,-1
 927 0 l 1,20,-1
 482 0 l 1,21,-1
 495 73 l 1,22,-1
 623 114 l 1,23,-1
 458 351 l 1,24,-1
 277 114 l 1,25,-1
 419 74 l 1,26,-1
 409 0 l 1,27,-1
 21 0 l 1,0,-1
EndSplineSet
Fore
SplineSet
773 104 m 1,0,-1
 868 69 l 1,1,-1
 849 0 l 1,2,-1
 455 0 l 1,3,-1
 475 69 l 1,4,-1
 597 104 l 1,5,-1
 483 352 l 1,6,-1
 283 106 l 1,7,-1
 410 71 l 1,8,-1
 390 0 l 1,9,-1
 44 0 l 1,10,-1
 63 69 l 1,11,-1
 159 104 l 1,12,-1
 445 434 l 1,13,-1
 291 771 l 1,14,-1
 195 801 l 1,15,-1
 214 872 l 1,16,-1
 593 872 l 1,17,-1
 574 803 l 1,18,-1
 456 771 l 1,19,-1
 569 535 l 1,20,-1
 755 768 l 1,21,-1
 651 801 l 1,22,-1
 669 872 l 1,23,-1
 982 872 l 1,24,-1
 960 801 l 1,25,-1
 861 765 l 1,26,-1
 602 464 l 1,27,-1
 773 104 l 1,0,-1
EndSplineSet
Colour: ffff
EndChar

StartChar: y
Encoding: 89 121 77
Width: 1120
VWidth: 0
Flags: MW
LayerCount: 2
Back
SplineSet
8 -261 m 0,0,1
 8 -190 8 -190 64 -141 c 1,2,3
 141 -194 141 -194 215 -194 c 0,4,5
 238 -194 238 -194 256 -189.5 c 0
 274 -185 274 -185 298 -172 c 0
 322 -159 322 -159 344.5 -128 c 0
 367 -97 367 -97 386 -49 c 2,6,-1
 406 0 l 1,7,-1
 121 758 l 1,8,-1
 -3 796 l 1,9,-1
 8 873 l 1,10,-1
 428 873 l 1,11,-1
 419 799 l 1,12,-1
 292 761 l 1,13,-1
 496 222 l 1,14,-1
 712 756 l 1,15,-1
 581 798 l 1,16,-1
 595 873 l 1,17,-1
 937 873 l 1,18,-1
 930 799 l 1,19,-1
 829 758 l 1,20,-1
 498 -53 l 2,21,22
 421 -242 421 -242 349 -311 c 0
 277 -380 277 -380 162 -380 c 0,23,24
 96 -380 96 -380 52 -343 c 0
 8 -306 8 -306 8 -261 c 0,0,1
EndSplineSet
Fore
SplineSet
565 204 m 1,0,-1
 846 770 l 1,1,-1
 724 803 l 1,2,-1
 744 874 l 1,3,-1
 1078 874 l 1,4,-1
 1058 799 l 1,5,-1
 962 768 l 1,6,-1
 534 -53 l 2,7,8
 439 -237 439 -237 358.5 -308.5 c 128,-1,9
 278 -380 278 -380 174 -380 c 0,10,11
 108 -380 108 -380 75 -349 c 128,-1,12
 42 -318 42 -318 42 -268 c 0,13,14
 42 -235 42 -235 57 -202.5 c 128,-1,15
 72 -170 72 -170 101 -155 c 1,16,17
 139 -191 139 -191 169 -209.5 c 128,-1,18
 199 -228 199 -228 235 -228 c 0,19,20
 300 -228 300 -228 342 -179 c 128,-1,21
 384 -130 384 -130 454 9 c 1,22,-1
 316 771 l 1,23,-1
 222 803 l 1,24,-1
 239 874 l 1,25,-1
 623 874 l 1,26,-1
 605 804 l 1,27,-1
 481 765 l 1,28,-1
 565 204 l 1,0,-1
EndSplineSet
Colour: ffff
EndChar

StartChar: z
Encoding: 90 122 78
Width: 824
VWidth: 0
Flags: MW
LayerCount: 2
Back
SplineSet
53 87 m 1,0,-1
 543 780 l 1,1,-1
 206 780 l 1,2,-1
 147 595 l 1,3,-1
 70 608 l 1,4,-1
 78 873 l 1,5,-1
 750 873 l 1,6,-1
 750 799 l 1,7,-1
 248 99 l 1,8,-1
 608 99 l 1,9,-1
 703 275 l 1,10,-1
 770 267 l 1,11,-1
 728 0 l 1,12,-1
 57 0 l 1,13,-1
 53 87 l 1,0,-1
EndSplineSet
Fore
SplineSet
158 634 m 1,0,-1
 204 874 l 1,1,-1
 782 874 l 1,2,-1
 772 806 l 1,3,-1
 222 88 l 1,4,-1
 524 88 l 1,5,-1
 640 251 l 1,6,-1
 703 243 l 1,7,-1
 624 -2 l 1,8,-1
 46 -2 l 1,9,-1
 54 79 l 1,10,-1
 595 789 l 1,11,-1
 310 789 l 1,12,-1
 222 621 l 1,13,-1
 158 634 l 1,0,-1
EndSplineSet
Colour: ffff
EndChar

StartChar: braceleft
Encoding: 91 123 79
Width: 702
VWidth: 0
Flags: MW
LayerCount: 2
Back
SplineSet
4 389 m 1,0,-1
 4 488 l 1,1,-1
 53 497 l 2,2,3
 112 507 112 507 143.5 554.5 c 0
 175 602 175 602 183.5 669.5 c 0
 192 737 192 737 193 816 c 0
 194 895 194 895 200 972.5 c 0
 206 1050 206 1050 224 1113.5 c 0
 242 1177 242 1177 292.5 1216 c 0
 343 1255 343 1255 426 1255 c 2,4,-1
 527 1255 l 1,5,-1
 518 1155 l 1,6,-1
 436 1149 l 2,7,8
 390 1145 390 1145 377 1089.5 c 0
 364 1034 364 1034 364 921 c 2,9,-1
 364 862 l 2,10,11
 364 797 364 797 362 754.5 c 0
 360 712 360 712 350.5 654.5 c 0
 341 597 341 597 324 560 c 0
 307 523 307 523 274 490.5 c 0
 241 458 241 458 194 445 c 1,12,-1
 194 438 l 1,13,14
 254 421 254 421 291.5 372.5 c 0
 329 324 329 324 343 261.5 c 0
 357 199 357 199 361.5 127 c 0
 366 55 366 55 365.5 -14 c 0
 365 -83 365 -83 369.5 -140 c 0
 374 -197 374 -197 393 -233 c 0
 412 -269 412 -269 449 -271 c 2,15,-1
 523 -277 l 1,16,-1
 531 -378 l 1,17,-1
 429 -378 l 2,18,19
 345 -378 345 -378 293.5 -338.5 c 0
 242 -299 242 -299 223.5 -235.5 c 0
 205 -172 205 -172 199 -94 c 0
 193 -16 193 -16 192 63.5 c 0
 191 143 191 143 183.5 210.5 c 0
 176 278 176 278 145 325 c 0
 114 372 114 372 56 381 c 2,20,-1
 4 389 l 1,0,-1
EndSplineSet
Fore
SplineSet
382 -272 m 2,0,-1
 416 -277 l 1,1,-1
 407 -378 l 1,2,-1
 346 -378 l 2,3,4
 280 -378 280 -378 237.5 -353.5 c 128,-1,5
 195 -329 195 -329 178.5 -287.5 c 128,-1,6
 162 -246 162 -246 158 -191.5 c 128,-1,7
 154 -137 154 -137 161 -76.5 c 128,-1,8
 168 -16 168 -16 176.5 45.5 c 128,-1,9
 185 107 185 107 189.5 164 c 128,-1,10
 194 221 194 221 189 266.5 c 128,-1,11
 184 312 184 312 160.5 343 c 128,-1,12
 137 374 137 374 92 381 c 2,13,-1
 44 390 l 1,14,-1
 58 489 l 1,15,-1
 108 497 l 2,16,17
 156 505 156 505 190.5 536.5 c 128,-1,18
 225 568 225 568 244.5 613.5 c 128,-1,19
 264 659 264 659 278 716 c 128,-1,20
 292 773 292 773 302.5 834 c 128,-1,21
 313 895 313 895 325.5 955.5 c 128,-1,22
 338 1016 338 1016 358.5 1070 c 128,-1,23
 379 1124 379 1124 408.5 1165.5 c 128,-1,24
 438 1207 438 1207 487 1231 c 128,-1,25
 536 1255 536 1255 602 1255 c 2,26,-1
 661 1255 l 1,27,-1
 637 1156 l 1,28,-1
 596 1149 l 2,29,30
 561 1143 561 1143 538 1105.5 c 128,-1,31
 515 1068 515 1068 503.5 1011.5 c 128,-1,32
 492 955 492 955 482 887 c 128,-1,33
 472 819 472 819 457 748.5 c 128,-1,34
 442 678 442 678 418.5 616.5 c 128,-1,35
 395 555 395 555 350 508 c 128,-1,36
 305 461 305 461 241 444 c 1,37,-1
 240 438 l 1,38,39
 298 421 298 421 328 373.5 c 128,-1,40
 358 326 358 326 362 264.5 c 128,-1,41
 366 203 366 203 359 131.5 c 128,-1,42
 352 60 352 60 341 -8.5 c 128,-1,43
 330 -77 330 -77 325 -134 c 128,-1,44
 320 -191 320 -191 333 -228.5 c 128,-1,45
 346 -266 346 -266 382 -272 c 2,0,-1
EndSplineSet
Colour: ffff
EndChar

StartChar: bar
Encoding: 92 124 80
Width: 452
VWidth: 0
Flags: MW
LayerCount: 2
Back
SplineSet
109 -366 m 1,0,-1
 109 1260 l 1,1,-1
 224 1248 l 1,2,-1
 224 -380 l 1,3,-1
 109 -366 l 1,0,-1
EndSplineSet
Fore
SplineSet
155 -363 m 1,0,-1
 41 -350 l 1,1,-1
 295 1255 l 1,2,-1
 409 1244 l 1,3,-1
 155 -363 l 1,0,-1
EndSplineSet
Colour: ffff
EndChar

StartChar: braceright
Encoding: 93 125 81
Width: 709
VWidth: 0
Flags: MW
LayerCount: 2
Back
SplineSet
22 -378 m 1,0,-1
 31 -277 l 1,1,-1
 105 -271 l 2,2,3
 142 -269 142 -269 161 -233 c 0
 180 -197 180 -197 184.5 -140 c 0
 189 -83 189 -83 188.5 -14 c 0
 188 55 188 55 192.5 127 c 0
 197 199 197 199 211 261.5 c 0
 225 324 225 324 262.5 372.5 c 0
 300 421 300 421 360 438 c 1,4,-1
 360 445 l 1,5,6
 300 459 300 459 262.5 505 c 0
 225 551 225 551 212 613 c 0
 199 675 199 675 195 746.5 c 0
 191 818 191 818 192 887.5 c 0
 193 957 193 957 190 1014.5 c 0
 187 1072 187 1072 169.5 1109 c 0
 152 1146 152 1146 117 1149 c 2,7,-1
 35 1155 l 1,8,-1
 28 1255 l 1,9,-1
 129 1255 l 2,10,11
 194 1255 194 1255 239.5 1230.5 c 0
 285 1206 285 1206 307.5 1165 c 0
 330 1124 330 1124 342 1070 c 0
 354 1016 354 1016 356.5 955.5 c 0
 359 895 359 895 359.5 834 c 0
 360 773 360 773 365 716 c 0
 370 659 370 659 382.5 613 c 0
 395 567 395 567 424.5 536 c 0
 454 505 454 505 500 497 c 2,12,-1
 549 488 l 1,13,-1
 549 389 l 1,14,-1
 497 381 l 2,15,16
 439 372 439 372 408.5 325 c 0
 378 278 378 278 370 210.5 c 0
 362 143 362 143 361.5 63.5 c 0
 361 -16 361 -16 355.5 -94 c 0
 350 -172 350 -172 331.5 -235.5 c 0
 313 -299 313 -299 261.5 -338.5 c 0
 210 -378 210 -378 126 -378 c 2,17,-1
 22 -378 l 1,0,-1
EndSplineSet
Fore
SplineSet
98 -272 m 2,0,1
 136 -266 136 -266 161 -228.5 c 128,-1,2
 186 -191 186 -191 199 -134 c 128,-1,3
 212 -77 212 -77 222.5 -8.5 c 128,-1,4
 233 60 233 60 249 131.5 c 128,-1,5
 265 203 265 203 288.5 264.5 c 128,-1,6
 312 326 312 326 357 373.5 c 128,-1,7
 402 421 402 421 465 438 c 1,8,-1
 466 444 l 1,9,10
 408 461 408 461 377.5 508 c 128,-1,11
 347 555 347 555 343 616.5 c 128,-1,12
 339 678 339 678 346.5 748.5 c 128,-1,13
 354 819 354 819 365.5 887 c 128,-1,14
 377 955 377 955 383 1011.5 c 128,-1,15
 389 1068 389 1068 378.5 1105.5 c 128,-1,16
 368 1143 368 1143 334 1149 c 2,17,-1
 296 1156 l 1,18,-1
 303 1255 l 1,19,-1
 362 1255 l 2,20,21
 445 1255 445 1255 489.5 1216 c 128,-1,22
 534 1177 534 1177 542.5 1113.5 c 128,-1,23
 551 1050 551 1050 544.5 973 c 128,-1,24
 538 896 538 896 526.5 816.5 c 128,-1,25
 515 737 515 737 512.5 669.5 c 128,-1,26
 510 602 510 602 534.5 554.5 c 128,-1,27
 559 507 559 507 616 497 c 2,28,-1
 663 489 l 1,29,-1
 646 390 l 1,30,-1
 595 381 l 1,31,32
 536 372 536 372 497.5 325 c 128,-1,33
 459 278 459 278 440.5 210.5 c 128,-1,34
 422 143 422 143 408.5 63.5 c 128,-1,35
 395 -16 395 -16 376.5 -94 c 128,-1,36
 358 -172 358 -172 329.5 -235.5 c 128,-1,37
 301 -299 301 -299 243 -338.5 c 128,-1,38
 185 -378 185 -378 101 -378 c 2,39,-1
 40 -378 l 1,40,-1
 63 -277 l 1,41,-1
 98 -272 l 2,0,1
EndSplineSet
Colour: ffff
EndChar

StartChar: asciitilde
Encoding: 94 126 82
Width: 896
VWidth: 0
Flags: MW
LayerCount: 2
Back
SplineSet
149 413 m 1,0,1
 152 422 152 422 158.5 436 c 0
 165 450 165 450 186.5 486 c 0
 208 522 208 522 232 548.5 c 0
 256 575 256 575 293.5 595 c 0
 331 615 331 615 370 611 c 2,2,-1
 808 566 l 2,3,4
 825 564 825 564 848.5 579.5 c 0
 872 595 872 595 887.5 611.5 c 2
 903 628 l 1,5,-1
 968 626 l 1,6,7
 964 617 964 617 957 602.5 c 0
 950 588 950 588 927 551 c 0
 904 514 904 514 879 487 c 0
 854 460 854 460 815.5 439.5 c 0
 777 419 777 419 738 424 c 2,8,-1
 299 469 l 2,9,10
 280 471 280 471 255 454 c 0
 230 437 230 437 215 418.5 c 2
 200 400 l 1,11,-1
 149 413 l 1,0,1
EndSplineSet
Fore
SplineSet
55 412 m 1,0,1
 57 421 57 421 62 435 c 128,-1,2
 67 449 67 449 84.5 485 c 128,-1,3
 102 521 102 521 122 547.5 c 128,-1,4
 142 574 142 574 175.5 594.5 c 128,-1,5
 209 615 209 615 246 611 c 2,6,-1
 696 566 l 2,7,8
 712 565 712 565 733 580.5 c 128,-1,9
 754 596 754 596 766 612 c 2,10,-1
 778 628 l 1,11,-1
 842 626 l 1,12,13
 839 617 839 617 834 602.5 c 128,-1,14
 829 588 829 588 811 551.5 c 128,-1,15
 793 515 793 515 772.5 488 c 128,-1,16
 752 461 752 461 717 440.5 c 128,-1,17
 682 420 682 420 644 424 c 2,18,-1
 194 469 l 2,19,20
 176 471 176 471 155 453.5 c 128,-1,21
 134 436 134 436 122 418 c 2,22,-1
 110 399 l 1,23,-1
 55 412 l 1,0,1
EndSplineSet
Colour: ffff
EndChar

StartChar: exclamdown
Encoding: 96 161 83
Width: 496
VWidth: 0
Flags: MW
LayerCount: 2
Back
SplineSet
97 -378 m 0,0,1
 97 -110 97 -110 151 534 c 1,2,-1
 151 540 l 1,3,-1
 240 520 l 1,4,-1
 240 517 l 1,5,6
 294 -208 294 -208 294 -375 c 2,7,-1
 294 -378 l 1,8,9
 289 -397 289 -397 243.5 -407.5 c 0
 198 -418 198 -418 162 -418 c 0,10,11
 137 -418 137 -418 117 -408.5 c 0
 97 -399 97 -399 97 -378 c 0,0,1
70 784 m 0,12,13
 70 836 70 836 107 873 c 0
 144 910 144 910 196 910 c 0,14,15
 248 910 248 910 284 873 c 0
 320 836 320 836 320 783 c 0,16,17
 320 734 320 734 283 700 c 0
 246 666 246 666 196 666 c 0,18,19
 145 666 145 666 107.5 700 c 0
 70 734 70 734 70 784 c 0,12,13
EndSplineSet
Fore
SplineSet
239 -369 m 0,0,1
 235 -394 235 -394 198.5 -405 c 128,-1,2
 162 -416 162 -416 120 -416 c 0,3,4
 93 -416 93 -416 67.5 -408 c 128,-1,5
 42 -400 42 -400 42 -383 c 0,6,7
 42 -343 42 -343 117 7.5 c 128,-1,8
 192 358 192 358 239 519 c 1,9,-1
 323 500 l 1,10,11
 312 393 312 393 283 61 c 128,-1,12
 254 -271 254 -271 239 -369 c 0,0,1
306 666 m 0,13,14
 261 666 261 666 229.5 699.5 c 128,-1,15
 198 733 198 733 198 778 c 0,16,17
 198 837 198 837 242.5 874.5 c 128,-1,18
 287 912 287 912 345 912 c 0,19,20
 391 912 391 912 420 877 c 128,-1,21
 449 842 449 842 449 795 c 0,22,23
 449 737 449 737 406 701.5 c 128,-1,24
 363 666 363 666 306 666 c 0,13,14
EndSplineSet
Colour: ffff
EndChar

StartChar: sterling
Encoding: 98 163 84
Width: 1167
VWidth: 0
Flags: MW
LayerCount: 2
Back
SplineSet
43 0 m 1,0,-1
 50 74 l 1,1,-1
 218 121 l 1,2,3
 240 191 240 191 247 264 c 0
 254 337 254 337 257 461 c 1,4,-1
 260 549 l 1,5,-1
 80 538 l 1,6,-1
 92 639 l 1,7,-1
 263 649 l 1,8,-1
 266 786 l 1,9,10
 273 1018 273 1018 383.5 1134 c 0
 494 1250 494 1250 673 1250 c 0,11,12
 813 1250 813 1250 906 1211 c 1,13,-1
 875 895 l 1,14,-1
 789 907 l 1,15,-1
 748 1121 l 1,16,17
 706 1143 706 1143 663 1143 c 0,18,19
 612 1143 612 1143 578 1128.5 c 0
 544 1114 544 1114 520.5 1085 c 0
 497 1056 497 1056 484.5 1001 c 0
 472 946 472 946 466 877.5 c 0
 460 809 460 809 458 703 c 1,20,-1
 458 655 l 1,21,-1
 676 669 l 1,22,-1
 666 568 l 1,23,-1
 455 555 l 1,24,-1
 454 515 l 1,25,26
 448 213 448 213 393 99 c 1,27,-1
 853 96 l 1,28,-1
 984 349 l 1,29,-1
 1070 331 l 1,30,-1
 1032 0 l 1,31,-1
 43 0 l 1,0,-1
EndSplineSet
Fore
SplineSet
43 0 m 1,0,-1
 62 74 l 1,1,-1
 237 121 l 1,2,3
 270 191 270 191 289 264 c 128,-1,4
 308 337 308 337 330 461 c 1,5,-1
 347 549 l 1,6,-1
 165 538 l 1,7,-1
 193 639 l 1,8,-1
 366 649 l 1,9,-1
 390 786 l 1,10,11
 412 904 412 904 458.5 994 c 128,-1,12
 505 1084 505 1084 568.5 1139.5 c 128,-1,13
 632 1195 632 1195 708 1222.5 c 128,-1,14
 784 1250 784 1250 871 1250 c 0,15,16
 1011 1250 1011 1250 1098 1211 c 1,17,-1
 1017 895 l 1,18,-1
 933 907 l 1,19,-1
 926 1121 l 1,20,21
 887 1143 887 1143 844 1143 c 0,22,23
 793 1143 793 1143 756.5 1128.5 c 128,-1,24
 720 1114 720 1114 692.5 1085 c 128,-1,25
 665 1056 665 1056 643.5 1001 c 128,-1,26
 622 946 622 946 605 877.5 c 128,-1,27
 588 809 588 809 569 703 c 1,28,-1
 562 655 l 1,29,-1
 782 669 l 1,30,-1
 756 568 l 1,31,-1
 543 555 l 1,32,-1
 536 515 l 1,33,34
 482 213 482 213 409 99 c 1,35,-1
 868 96 l 1,36,-1
 1039 349 l 1,37,-1
 1122 331 l 1,38,-1
 1032 0 l 1,39,-1
 43 0 l 1,0,-1
EndSplineSet
Colour: ffff
EndChar

StartChar: yen
Encoding: 100 165 85
Width: 1159
VWidth: 0
Flags: MW
LayerCount: 2
Back
SplineSet
42 1168 m 5,0,-1
 55 1244 l 1,1,-1
 515 1244 l 1,2,-1
 504 1168 l 1,3,-1
 371 1130 l 1,4,-1
 589 636 l 1,5,-1
 806 1126 l 1,6,-1
 649 1168 l 1,7,-1
 658 1244 l 1,8,-1
 1054 1244 l 1,9,-1
 1045 1168 l 1,10,-1
 921 1130 l 1,11,-1
 667 578 l 1,12,-1
 968 578 l 1,13,-1
 957 480 l 1,14,-1
 640 480 l 1,15,-1
 640 338 l 1,16,-1
 964 338 l 1,17,-1
 953 240 l 1,18,-1
 640 240 l 1,19,-1
 640 113 l 1,20,-1
 804 78 l 1,21,-1
 794 0 l 1,22,-1
 294 0 l 1,23,-1
 304 71 l 1,24,-1
 453 119 l 1,25,-1
 453 240 l 1,26,-1
 143 240 l 1,27,-1
 155 338 l 1,28,-1
 453 338 l 1,29,-1
 453 480 l 1,30,-1
 147 480 l 1,31,-1
 159 578 l 1,32,-1
 426 578 l 1,33,-1
 178 1126 l 1,34,-1
 42 1168 l 5,0,-1
EndSplineSet
Fore
SplineSet
390 472 m 1,0,-1
 83 472 l 1,1,-1
 111 578 l 1,2,-1
 375 578 l 1,3,-1
 222 1126 l 1,4,-1
 91 1168 l 1,5,-1
 116 1244 l 1,6,-1
 583 1244 l 1,7,-1
 560 1168 l 1,8,-1
 422 1130 l 1,9,-1
 554 641 l 1,10,-1
 849 1126 l 1,11,-1
 699 1168 l 1,12,-1
 720 1244 l 1,13,-1
 1117 1244 l 1,14,-1
 1095 1168 l 1,15,-1
 965 1130 l 1,16,-1
 623 578 l 1,17,-1
 927 578 l 1,18,-1
 899 472 l 1,19,-1
 583 472 l 1,20,-1
 564 345 l 1,21,-1
 887 345 l 1,22,-1
 859 239 l 1,23,-1
 547 239 l 1,24,-1
 527 114 l 1,25,-1
 686 81 l 1,26,-1
 663 0 l 1,27,-1
 156 0 l 1,28,-1
 177 74 l 1,29,-1
 336 121 l 1,30,-1
 354 239 l 1,31,-1
 43 239 l 1,32,-1
 71 345 l 1,33,-1
 370 345 l 1,34,-1
 390 472 l 1,0,-1
EndSplineSet
Colour: ffff
EndChar

StartChar: brokenbar
Encoding: 101 166 86
Width: 447
VWidth: 0
Flags: MW
LayerCount: 2
Back
SplineSet
109 -366 m 1,0,-1
 109 423 l 1,1,-1
 228 411 l 1,2,-1
 228 -380 l 1,3,-1
 109 -366 l 1,0,-1
109 540 m 1,4,-1
 109 1260 l 1,5,-1
 227 1248 l 1,6,-1
 225 529 l 1,7,-1
 109 540 l 1,4,-1
EndSplineSet
Fore
SplineSet
183 540 m 1,0,-1
 295 1255 l 1,1,-1
 404 1244 l 1,2,-1
 287 528 l 1,3,-1
 183 540 l 1,0,-1
41 -350 m 1,4,-1
 165 431 l 1,5,-1
 274 419 l 1,6,-1
 150 -363 l 1,7,-1
 41 -350 l 1,4,-1
EndSplineSet
Colour: ffff
EndChar

StartChar: dieresis
Encoding: 103 168 87
Width: 603
VWidth: 0
Flags: MW
LayerCount: 2
Back
SplineSet
92 1465 m 0,0,1
 92 1498 92 1498 118.5 1520 c 0
 145 1542 145 1542 177 1542 c 0,2,3
 211 1542 211 1542 237 1520 c 0
 263 1498 263 1498 263 1465 c 0,4,5
 263 1429 263 1429 237 1406 c 0
 211 1383 211 1383 177 1383 c 0,6,7
 143 1383 143 1383 117.5 1406.5 c 0
 92 1430 92 1430 92 1465 c 0,0,1
360 1465 m 0,8,9
 360 1498 360 1498 386.5 1520 c 0
 413 1542 413 1542 445 1542 c 0,10,11
 479 1542 479 1542 505.5 1520 c 0
 532 1498 532 1498 532 1465 c 0,12,13
 532 1430 532 1430 505.5 1406.5 c 0
 479 1383 479 1383 445 1383 c 0,14,15
 411 1383 411 1383 385.5 1406.5 c 0
 360 1430 360 1430 360 1465 c 0,8,9
EndSplineSet
Fore
SplineSet
180 1542 m 0,0,1
 215 1542 215 1542 236 1520.5 c 128,-1,2
 257 1499 257 1499 252 1465 c 0,3,4
 246 1429 246 1429 218 1406.5 c 128,-1,5
 190 1384 190 1384 155 1384 c 0,6,7
 121 1384 121 1384 98.5 1406.5 c 128,-1,8
 76 1429 76 1429 82 1465 c 0,9,10
 88 1499 88 1499 117.5 1520.5 c 128,-1,11
 147 1542 147 1542 180 1542 c 0,0,1
447 1542 m 0,12,13
 482 1542 482 1542 504 1520.5 c 128,-1,14
 526 1499 526 1499 521 1465 c 0,15,16
 515 1429 515 1429 486 1406.5 c 128,-1,17
 457 1384 457 1384 422 1384 c 0,18,19
 388 1384 388 1384 366 1406.5 c 128,-1,20
 344 1429 344 1429 350 1465 c 0,21,22
 356 1499 356 1499 385 1520.5 c 128,-1,23
 414 1542 414 1542 447 1542 c 0,12,13
EndSplineSet
Colour: ffff
EndChar

StartChar: copyright
Encoding: 104 169 88
Width: 1380
VWidth: 0
Flags: MW
LayerCount: 2
Back
SplineSet
53 645 m 0,0,1
 53 831 53 831 140 987 c 0
 227 1143 227 1143 372 1231.5 c 0
 517 1320 517 1320 684 1320 c 0,2,3
 877 1320 877 1320 1024.5 1232.5 c 0
 1172 1145 1172 1145 1249.5 993 c 0
 1327 841 1327 841 1327 649 c 0,4,5
 1327 517 1327 517 1276 395 c 0
 1225 273 1225 273 1138.5 183 c 0
 1052 93 1052 93 930.5 39 c 0
 809 -15 809 -15 675 -15 c 0,6,7
 495 -15 495 -15 352.5 71.5 c 0
 210 158 210 158 131.5 308.5 c 0
 53 459 53 459 53 645 c 0,0,1
176 657 m 0,8,9
 176 411 176 411 318.5 251.5 c 0
 461 92 461 92 683 92 c 0,10,11
 790 92 790 92 886 133.5 c 0
 982 175 982 175 1052 247 c 0
 1122 319 1122 319 1163.5 421.5 c 0
 1205 524 1205 524 1205 639 c 0,12,13
 1205 803 1205 803 1145.5 932.5 c 0
 1086 1062 1086 1062 966.5 1139.5 c 0
 847 1217 847 1217 684 1217 c 0,14,15
 543 1217 543 1217 425.5 1140.5 c 0
 308 1064 308 1064 242 935.5 c 0
 176 807 176 807 176 657 c 0,8,9
344.5 643.75 m 0,16,17
 344.5 735.515 344.5 735.515 374.983 814.182 c 0
 405.466 892.85 405.466 892.85 455.98 945.028 c 0
 506.494 997.205 506.494 997.205 571.466 1026.6 c 0
 636.438 1056 636.438 1056 705.75 1056 c 0,18,19
 806.116 1056 806.116 1056 858.358 1018.35 c 0
 910.6 980.706 910.6 980.706 910.6 925.95 c 0,20,21
 910.6 887.766 910.6 887.766 882.713 864.119 c 0
 854.825 840.472 854.825 840.472 802.65 836.7 c 1,22,23
 791.283 863.897 791.283 863.897 780.958 883.48 c 0
 770.633 903.064 770.633 903.064 753.699 926.783 c 0
 736.765 950.502 736.765 950.502 714.366 963.301 c 0
 691.966 976.1 691.966 976.1 665.8 976.1 c 0,24,25
 589.899 976.1 589.899 976.1 544.124 906.689 c 0
 498.35 837.279 498.35 837.279 498.35 721.95 c 0,26,27
 498.35 677.715 498.35 677.715 507.368 630.514 c 0
 516.386 583.312 516.386 583.312 536.558 535.926 c 0
 556.729 488.539 556.729 488.539 585.296 451.32 c 0
 613.863 414.101 613.863 414.101 656.918 390.8 c 0
 699.973 367.5 699.973 367.5 750.8 367.5 c 0,28,29
 807.339 367.5 807.339 367.5 845.778 381.207 c 0
 884.216 394.914 884.216 394.914 922.5 419.35 c 1,30,-1
 943.75 370.05 l 1,31,32
 908.403 327.367 908.403 327.367 833.959 296.433 c 0
 759.515 265.5 759.515 265.5 680.25 265.5 c 0,33,34
 581.137 265.5 581.137 265.5 503.534 317.661 c 0
 425.932 369.823 425.932 369.823 385.216 455.589 c 0
 344.5 541.355 344.5 541.355 344.5 643.75 c 0,16,17
EndSplineSet
Fore
SplineSet
177 657 m 0,0,1
 177 411 177 411 319.5 251.5 c 128,-1,2
 462 92 462 92 684 92 c 0,3,4
 791 92 791 92 887 133.5 c 128,-1,5
 983 175 983 175 1053 247 c 128,-1,6
 1123 319 1123 319 1164.5 421.5 c 128,-1,7
 1206 524 1206 524 1206 639 c 0,8,9
 1206 803 1206 803 1146.5 932.5 c 128,-1,10
 1087 1062 1087 1062 967.5 1139.5 c 128,-1,11
 848 1217 848 1217 685 1217 c 0,12,13
 544 1217 544 1217 426.5 1140.5 c 128,-1,14
 309 1064 309 1064 243 935.5 c 128,-1,15
 177 807 177 807 177 657 c 0,0,1
54 645 m 128,-1,17
 54 831 54 831 141 987 c 128,-1,18
 228 1143 228 1143 373 1231.5 c 128,-1,19
 518 1320 518 1320 685 1320 c 0,20,21
 878 1320 878 1320 1025.5 1232.5 c 128,-1,22
 1173 1145 1173 1145 1250.5 993 c 128,-1,23
 1328 841 1328 841 1328 649 c 0,24,25
 1328 517 1328 517 1277 395 c 128,-1,26
 1226 273 1226 273 1139.5 183 c 128,-1,27
 1053 93 1053 93 931.5 39 c 128,-1,28
 810 -15 810 -15 676 -15 c 0,29,30
 496 -15 496 -15 353.5 71.5 c 128,-1,31
 211 158 211 158 132.5 308.5 c 128,-1,16
 54 459 54 459 54 645 c 128,-1,17
346 644 m 0,32,33
 346 736 346 736 376 814.5 c 128,-1,34
 406 893 406 893 456.5 945 c 128,-1,35
 507 997 507 997 572 1026.5 c 128,-1,36
 637 1056 637 1056 707 1056 c 0,37,38
 807 1056 807 1056 859.5 1018.5 c 128,-1,39
 912 981 912 981 912 926 c 0,40,41
 912 888 912 888 884 864 c 128,-1,42
 856 840 856 840 804 837 c 1,43,44
 793 864 793 864 782.5 883.5 c 128,-1,45
 772 903 772 903 755 927 c 128,-1,46
 738 951 738 951 715.5 963.5 c 128,-1,47
 693 976 693 976 667 976 c 0,48,49
 591 976 591 976 545 906.5 c 128,-1,50
 499 837 499 837 499 722 c 0,51,52
 499 678 499 678 508 630.5 c 128,-1,53
 517 583 517 583 537.5 536 c 128,-1,54
 558 489 558 489 586.5 451.5 c 128,-1,55
 615 414 615 414 658 391 c 128,-1,56
 701 368 701 368 752 368 c 0,57,58
 809 368 809 368 847.5 381.5 c 128,-1,59
 886 395 886 395 924 419 c 1,60,-1
 945 370 l 1,61,62
 910 327 910 327 835.5 296.5 c 128,-1,63
 761 266 761 266 681 266 c 0,64,65
 582 266 582 266 504.5 318 c 128,-1,66
 427 370 427 370 386.5 456 c 128,-1,67
 346 542 346 542 346 644 c 0,32,33
EndSplineSet
Colour: ffff
EndChar

StartChar: guillemotleft
Encoding: 106 171 89
Width: 704
VWidth: 0
Flags: MW
LayerCount: 2
Back
SplineSet
23 469 m 1,0,-1
 292 820 l 1,1,-1
 335 761 l 1,2,-1
 171 461 l 1,3,-1
 338 141 l 1,4,-1
 286 77 l 1,5,-1
 24 449 l 1,6,-1
 23 469 l 1,0,-1
270 469 m 1,7,-1
 538 820 l 1,8,-1
 583 761 l 1,9,-1
 418 461 l 1,10,-1
 586 141 l 1,11,-1
 534 77 l 1,12,-1
 271 449 l 1,13,-1
 270 469 l 1,7,-1
EndSplineSet
Fore
SplineSet
51 469 m 1,0,-1
 374 821 l 1,1,-1
 409 761 l 1,2,-1
 196 461 l 1,3,-1
 313 140 l 1,4,-1
 250 78 l 1,5,-1
 49 449 l 1,6,-1
 51 469 l 1,0,-1
298 469 m 1,7,-1
 622 821 l 1,8,-1
 657 761 l 1,9,-1
 444 461 l 1,10,-1
 561 140 l 1,11,-1
 498 78 l 1,12,-1
 297 449 l 1,13,-1
 298 469 l 1,7,-1
EndSplineSet
Colour: ffff
EndChar

StartChar: logicalnot
Encoding: 107 172 90
Width: 886
VWidth: 0
Flags: MW
LayerCount: 2
Back
SplineSet
74 559 m 1,0,-1
 86 663 l 1,1,-1
 830 663 l 1,2,-1
 832 351 l 1,3,-1
 726 332 l 1,4,-1
 726 559 l 1,5,-1
 74 559 l 1,0,-1
EndSplineSet
Fore
SplineSet
83 664 m 1,0,-1
 828 664 l 1,1,-1
 780 350 l 1,2,-1
 671 332 l 1,3,-1
 707 558 l 1,4,-1
 55 558 l 1,5,-1
 83 664 l 1,0,-1
EndSplineSet
Colour: ffff
EndChar

StartChar: softhyphen
Encoding: 108 173 91
Width: 560
VWidth: 0
Flags: MW
LayerCount: 2
Back
SplineSet
85 406 m 1,0,-1
 92 521 l 1,1,-1
 500 581 l 1,2,-1
 492 465 l 1,3,-1
 85 406 l 1,0,-1
EndSplineSet
Fore
SplineSet
83 522 m 1,0,-1
 501 581 l 1,1,-1
 475 466 l 1,2,-1
 57 406 l 1,3,-1
 83 522 l 1,0,-1
EndSplineSet
Colour: ffff
EndChar

StartChar: micro
Encoding: 116 181 92
Width: 945
VWidth: 0
Flags: MW
LayerCount: 2
Fore
SplineSet
213 37 m 1,0,-1
 206 37 l 1,1,2
 207 -25 207 -25 201 -86 c 2,3,-1
 171 -388 l 1,4,-1
 42 -362 l 1,5,6
 60 -302 60 -302 131.5 19 c 128,-1,7
 203 340 203 340 227 497 c 2,8,-1
 266 746 l 1,9,-1
 135 770 l 1,10,-1
 145 844 l 1,11,-1
 428 869 l 1,12,-1
 447 846 l 1,13,-1
 368 375 l 1,14,15
 342 241 342 241 355 179 c 128,-1,16
 368 117 368 117 433 117 c 0,17,18
 475 117 475 117 513.5 132.5 c 128,-1,19
 552 148 552 148 571.5 163 c 128,-1,20
 591 178 591 178 613 200 c 1,21,-1
 695 746 l 1,22,-1
 561 770 l 1,23,-1
 571 844 l 1,24,-1
 857 869 l 1,25,-1
 877 846 l 1,26,-1
 801 370 l 2,27,28
 787 283 787 283 783 228.5 c 128,-1,29
 779 174 779 174 785 146.5 c 128,-1,30
 791 119 791 119 801.5 109 c 128,-1,31
 812 99 812 99 831 96 c 2,32,-1
 897 84 l 1,33,-1
 879 15 l 1,34,35
 793 -17 793 -17 738 -17 c 0,36,37
 594 -17 594 -17 611 130 c 1,38,-1
 601 130 l 1,39,40
 590 108 590 108 566.5 83.5 c 128,-1,41
 543 59 543 59 509.5 35 c 128,-1,42
 476 11 476 11 430.5 -4.5 c 128,-1,43
 385 -20 385 -20 338 -20 c 0,44,45
 250 -20 250 -20 213 38 c 1,46,-1
 213 37 l 1,0,-1
EndSplineSet
Colour: ffff
EndChar

StartChar: periodcentered
Encoding: 118 183 93
Width: 362
VWidth: 0
Flags: MW
LayerCount: 2
Back
SplineSet
83 504 m 0,0,1
 83 551 83 551 118.5 584.5 c 0
 154 618 154 618 203 618 c 0,2,3
 253 618 253 618 289 585 c 0
 325 552 325 552 325 504 c 0,4,5
 325 454 325 454 289 417.5 c 0
 253 381 253 381 203 381 c 0,6,7
 154 381 154 381 118.5 417.5 c 0
 83 454 83 454 83 504 c 0,0,1
EndSplineSet
Fore
SplineSet
59 504 m 0,0,1
 59 551 59 551 94.5 584.5 c 128,-1,2
 130 618 130 618 179 618 c 0,3,4
 229 618 229 618 265 585 c 128,-1,5
 301 552 301 552 301 504 c 0,6,7
 301 454 301 454 265 417.5 c 128,-1,8
 229 381 229 381 179 381 c 0,9,10
 130 381 130 381 94.5 417.5 c 128,-1,11
 59 454 59 454 59 504 c 0,0,1
EndSplineSet
Colour: ffff
EndChar

StartChar: macron
Encoding: 110 175 94
Width: 617
VWidth: 0
Flags: MW
LayerCount: 2
Back
SplineSet
372 1480 m 1,0,-1
 813 1480 l 1,1,-1
 783 1379 l 1,2,-1
 342 1379 l 1,3,-1
 372 1480 l 1,0,-1
545 1239 m 0
EndSplineSet
Fore
SplineSet
81 1379 m 1,0,-1
 94 1479 l 1,1,-1
 536 1479 l 1,2,-1
 523 1379 l 1,3,-1
 81 1379 l 1,0,-1
EndSplineSet
Colour: ffff
EndChar

StartChar: degree
Encoding: 111 176 95
Width: 485
VWidth: 0
Flags: MW
LayerCount: 2
Back
SplineSet
390 1237 m 0,0,1
 348 1237 348 1237 320.5 1204 c 0
 293 1171 293 1171 286 1125 c 0,2,3
 278 1075 278 1075 297.5 1035.5 c 0
 317 996 317 996 362 996 c 0,4,5
 402 996 402 996 428.5 1025.5 c 0
 455 1055 455 1055 464 1110 c 0,6,7
 472 1161 472 1161 453.5 1199 c 0
 435 1237 435 1237 390 1237 c 0,0,1
408 1285 m 0,8,9
 479 1285 479 1285 514 1240 c 0
 549 1195 549 1195 538 1123 c 1,10,11
 526 1052 526 1052 471 1000 c 0
 416 948 416 948 342 948 c 0,12,13
 272 948 272 948 236 992.5 c 0
 200 1037 200 1037 213 1113 c 0,14,15
 224 1183 224 1183 281 1234 c 0
 338 1285 338 1285 408 1285 c 0,8,9
EndSplineSet
Fore
SplineSet
157 1129 m 0,0,1
 157 1078 157 1078 182.5 1036.5 c 128,-1,2
 208 995 208 995 253 995 c 0,3,4
 338 995 338 995 338 1105 c 0,5,6
 338 1156 338 1156 312.5 1196.5 c 128,-1,7
 287 1237 287 1237 243 1237 c 0,8,9
 201 1237 201 1237 179 1205.5 c 128,-1,10
 157 1174 157 1174 157 1129 c 0,0,1
66 1107 m 0,11,12
 66 1186 66 1186 122.5 1245 c 128,-1,13
 179 1304 179 1304 259 1304 c 0,14,15
 344 1304 344 1304 387 1258 c 128,-1,16
 430 1212 430 1212 430 1128 c 0,17,18
 430 1043 430 1043 373 985.5 c 128,-1,19
 316 928 316 928 235 928 c 0,20,21
 157 928 157 928 111.5 974.5 c 128,-1,22
 66 1021 66 1021 66 1107 c 0,11,12
EndSplineSet
Colour: ffff
EndChar

StartChar: plusminus
Encoding: 112 177 96
Width: 729
VWidth: 0
Flags: MW
LayerCount: 2
Back
SplineSet
58 13 m 1,0,-1
 74 117 l 1,1,-1
 686 123 l 1,2,-1
 670 19 l 1,3,-1
 58 13 l 1,0,-1
83 475 m 1,4,-1
 95 575 l 1,5,-1
 304 575 l 1,6,-1
 304 807 l 1,7,-1
 412 795 l 1,8,-1
 414 575 l 1,9,-1
 633 575 l 1,10,-1
 621 475 l 1,11,-1
 414 475 l 1,12,-1
 415 240 l 1,13,-1
 304 251 l 1,14,-1
 304 475 l 1,15,-1
 83 475 l 1,4,-1
EndSplineSet
Fore
SplineSet
68 117 m 1,0,-1
 679 124 l 1,1,-1
 663 20 l 1,2,-1
 51 13 l 1,3,-1
 68 117 l 1,0,-1
58 490 m 1,4,-1
 70 591 l 1,5,-1
 279 591 l 1,6,-1
 279 822 l 1,7,-1
 388 810 l 1,8,-1
 389 591 l 1,9,-1
 609 591 l 1,10,-1
 597 490 l 1,11,-1
 389 490 l 1,12,-1
 391 255 l 1,13,-1
 279 266 l 1,14,-1
 279 490 l 1,15,-1
 58 490 l 1,4,-1
EndSplineSet
Colour: ffff
EndChar

StartChar: acute
Encoding: 115 180 97
Width: 393
VWidth: 0
Flags: MW
LayerCount: 2
Back
SplineSet
727 1666 m 1,0,-1
 494 1349 l 1,1,-1
 448 1381 l 1,2,-1
 623 1706 l 1,3,-1
 727 1666 l 1,0,-1
505 1239 m 0
EndSplineSet
Fore
SplineSet
80 1380 m 1,0,-1
 203 1705 l 1,1,-1
 314 1666 l 1,2,-1
 131 1348 l 1,3,-1
 80 1380 l 1,0,-1
EndSplineSet
Colour: ffff
EndChar

StartChar: cedilla
Encoding: 119 184 98
Width: 339
VWidth: 0
Flags: MW
LayerCount: 2
Back
SplineSet
201 -76 m 1,0,1
 277 -152 277 -152 266 -226 c 1,2,3
 249 -330 249 -330 41 -390 c 1,4,-1
 30 -330 l 1,5,6
 120 -300 120 -300 129 -248 c 1,7,8
 135 -206 135 -206 74 -137 c 1,9,-1
 193 3 l 1,10,-1
 268 3 l 1,11,-1
 201 -76 l 1,0,1
226 0 m 0
EndSplineSet
Fore
SplineSet
54 -331 m 1,0,1
 95 -317 95 -317 117.5 -294.5 c 128,-1,2
 140 -272 140 -272 140 -248 c 0,3,4
 140 -208 140 -208 66 -138 c 1,5,-1
 164 3 l 1,6,-1
 238 3 l 1,7,-1
 185 -76 l 1,8,9
 274 -155 274 -155 274 -227 c 0,10,11
 274 -330 274 -330 73 -389 c 1,12,-1
 54 -331 l 1,0,1
EndSplineSet
Colour: ffff
EndChar

StartChar: guillemotright
Encoding: 122 187 99
Width: 703
VWidth: 0
Flags: MW
LayerCount: 2
Back
SplineSet
61 141 m 1,0,-1
 228 461 l 1,1,-1
 64 761 l 1,2,-1
 108 820 l 1,3,-1
 376 469 l 1,4,-1
 374 449 l 1,5,-1
 113 77 l 1,6,-1
 61 141 l 1,0,-1
308 141 m 1,7,-1
 476 461 l 1,8,-1
 311 761 l 1,9,-1
 355 820 l 1,10,-1
 623 469 l 1,11,-1
 621 449 l 1,12,-1
 360 77 l 1,13,-1
 308 141 l 1,7,-1
EndSplineSet
Fore
SplineSet
651 430 m 1,0,-1
 328 78 l 1,1,-1
 293 138 l 1,2,-1
 506 438 l 1,3,-1
 389 759 l 1,4,-1
 452 821 l 1,5,-1
 653 450 l 1,6,-1
 651 430 l 1,0,-1
404 430 m 1,7,-1
 80 78 l 1,8,-1
 45 138 l 1,9,-1
 258 438 l 1,10,-1
 141 759 l 1,11,-1
 204 821 l 1,12,-1
 405 450 l 1,13,-1
 404 430 l 1,7,-1
EndSplineSet
Colour: ffff
EndChar

StartChar: questiondown
Encoding: 126 191 100
Width: 650
VWidth: 0
Flags: MW
LayerCount: 2
Back
SplineSet
53 40 m 0,0,1
 53 96 53 96 74.5 138 c 0
 96 180 96 180 128 203.5 c 0
 160 227 160 227 197 249 c 0
 234 271 234 271 266 287 c 0
 298 303 298 303 319.5 330 c 0
 341 357 341 357 341 391 c 0,2,3
 341 445 341 445 319 517 c 1,4,-1
 393 534 l 1,5,6
 420 495 420 495 445 431.5 c 0
 470 368 470 368 470 314 c 0,7,8
 470 269 470 269 453 235 c 0
 436 201 436 201 409 181 c 0
 382 161 382 161 349.5 145.5 c 0
 317 130 317 130 284.5 114.5 c 0
 252 99 252 99 225 81 c 0
 198 63 198 63 181 32 c 0
 164 1 164 1 164 -40 c 0,9,10
 164 -104 164 -104 221.5 -158.5 c 0
 279 -213 279 -213 328 -213 c 0,11,12
 453 -213 453 -213 519 -142 c 1,13,14
 547 -153 547 -153 570 -184 c 0
 593 -215 593 -215 593 -253 c 0,15,16
 593 -304 593 -304 547 -346 c 0
 501 -388 501 -388 396 -388 c 0,17,18
 338 -388 338 -388 277 -356 c 0
 216 -324 216 -324 166 -269.5 c 0
 116 -215 116 -215 84.5 -133.5 c 0
 53 -52 53 -52 53 40 c 0,0,1
233 810 m 0,19,20
 233 862 233 862 269.5 899 c 0
 306 936 306 936 359 936 c 0,21,22
 411 936 411 936 446.5 898 c 0
 482 860 482 860 482 807 c 0,23,24
 482 757 482 757 445.5 723.5 c 0
 409 690 409 690 359 690 c 0,25,26
 308 690 308 690 270.5 725 c 0
 233 760 233 760 233 810 c 0,19,20
EndSplineSet
Fore
SplineSet
497 937 m 0,0,1
 543 937 543 937 573 906.5 c 128,-1,2
 603 876 603 876 603 831 c 0,3,4
 603 771 603 771 559 731 c 128,-1,5
 515 691 515 691 459 691 c 0,6,7
 412 691 412 691 381.5 719.5 c 128,-1,8
 351 748 351 748 351 793 c 0,9,10
 351 853 351 853 396.5 895 c 128,-1,11
 442 937 442 937 497 937 c 0,0,1
326 -387 m 0,12,13
 274 -387 274 -387 223.5 -361.5 c 128,-1,14
 173 -336 173 -336 133 -291.5 c 128,-1,15
 93 -247 93 -247 68.5 -180 c 128,-1,16
 44 -113 44 -113 44 -36 c 0,17,18
 44 18 44 18 54 60.5 c 128,-1,19
 64 103 64 103 81 130.5 c 128,-1,20
 98 158 98 158 120.5 179.5 c 128,-1,21
 143 201 143 201 168.5 213 c 128,-1,22
 194 225 194 225 221 237.5 c 128,-1,23
 248 250 248 250 273.5 260 c 128,-1,24
 299 270 299 270 321.5 286 c 128,-1,25
 344 302 344 302 361 321.5 c 128,-1,26
 378 341 378 341 388 373 c 128,-1,27
 398 405 398 405 398 447 c 0,28,29
 398 477 398 477 392 518 c 1,30,-1
 469 534 l 1,31,32
 486 500 486 500 500.5 450 c 128,-1,33
 515 400 515 400 515 353 c 0,34,35
 515 303 515 303 499 265 c 128,-1,36
 483 227 483 227 457.5 205 c 128,-1,37
 432 183 432 183 399 164 c 128,-1,38
 366 145 366 145 331.5 133.5 c 128,-1,39
 297 122 297 122 264 105 c 128,-1,40
 231 88 231 88 205 69 c 128,-1,41
 179 50 179 50 163.5 17 c 128,-1,42
 148 -16 148 -16 148 -59 c 0,43,44
 148 -118 148 -118 194 -165 c 128,-1,45
 240 -212 240 -212 284 -212 c 0,46,47
 342 -212 342 -212 396 -193.5 c 128,-1,48
 450 -175 450 -175 487 -141 c 1,49,50
 510 -151 510 -151 527.5 -177 c 128,-1,51
 545 -203 545 -203 545 -236 c 0,52,53
 545 -263 545 -263 533 -288.5 c 128,-1,54
 521 -314 521 -314 496.5 -336.5 c 128,-1,55
 472 -359 472 -359 428 -373 c 128,-1,56
 384 -387 384 -387 326 -387 c 0,12,13
EndSplineSet
Colour: ffff
EndChar

StartChar: germandbls
Encoding: 158 223 101
Width: 1027
VWidth: 0
Flags: MW
LayerCount: 2
Back
SplineSet
1038 1172 m 13,0,-1
 852 104 l 1,1,-1
 979 73 l 1,2,-1
 961 0 l 1,3,-1
 553 0 l 1,4,-1
 571 74 l 1,5,-1
 694 107 l 1,6,-1
 864 1132 l 1,7,8
 844 1149 844 1149 782.5 1163.5 c 0
 721 1178 721 1178 673 1178 c 0,9,10
 475 1178 475 1178 436 956 c 2,11,-1
 419 858 l 1,12,-1
 710 858 l 1,13,-1
 686 768 l 1,14,-1
 406 768 l 1,15,-1
 302 109 l 1,16,-1
 510 79 l 1,17,-1
 492 2 l 1,18,-1
 3 2 l 1,19,-1
 20 76 l 1,20,-1
 144 109 l 1,21,-1
 245 768 l 1,22,-1
 126 768 l 1,23,-1
 143 836 l 1,24,-1
 266 872 l 1,25,26
 283 960 283 960 333.5 1042.5 c 0
 384 1125 384 1125 448.5 1181.5 c 0
 513 1238 513 1238 584 1272 c 0
 655 1306 655 1306 714 1306 c 0,27,28
 848 1306 848 1306 937 1259.5 c 0
 1026 1213 1026 1213 1038 1172 c 13,0,-1
EndSplineSet
Fore
SplineSet
822 162 m 0,0,1
 822 189 822 189 808.5 214.5 c 128,-1,2
 795 240 795 240 773.5 262.5 c 128,-1,3
 752 285 752 285 726.5 308 c 128,-1,4
 701 331 701 331 675 357 c 128,-1,5
 649 383 649 383 627.5 411 c 128,-1,6
 606 439 606 439 592.5 476.5 c 128,-1,7
 579 514 579 514 579 555 c 0,8,9
 579 603 579 603 604.5 649.5 c 128,-1,10
 630 696 630 696 666.5 734 c 128,-1,11
 703 772 703 772 739 810 c 128,-1,12
 775 848 775 848 800.5 893 c 128,-1,13
 826 938 826 938 826 983 c 0,14,15
 826 1187 826 1187 656 1187 c 0,16,17
 584 1187 584 1187 540 1124 c 128,-1,18
 496 1061 496 1061 478 909 c 1,19,-1
 335 0 l 1,20,-1
 43 0 l 1,21,-1
 67 78 l 1,22,-1
 192 111 l 1,23,-1
 298 784 l 1,24,-1
 176 784 l 1,25,-1
 195 859 l 1,26,-1
 318 884 l 1,27,28
 340 995 340 995 400.5 1090.5 c 128,-1,29
 461 1186 461 1186 550.5 1245.5 c 128,-1,30
 640 1305 640 1305 738 1305 c 0,31,32
 797 1305 797 1305 842 1288.5 c 128,-1,33
 887 1272 887 1272 912.5 1247.5 c 128,-1,34
 938 1223 938 1223 954 1188 c 128,-1,35
 970 1153 970 1153 975 1121.5 c 128,-1,36
 980 1090 980 1090 980 1054 c 0,37,38
 980 1005 980 1005 965.5 962 c 128,-1,39
 951 919 951 919 928 888 c 128,-1,40
 905 857 905 857 877.5 829.5 c 128,-1,41
 850 802 850 802 822 778 c 128,-1,42
 794 754 794 754 771 731 c 128,-1,43
 748 708 748 708 733.5 680.5 c 128,-1,44
 719 653 719 653 719 623 c 0,45,46
 719 594 719 594 737.5 562.5 c 128,-1,47
 756 531 756 531 784 504.5 c 128,-1,48
 812 478 812 478 844.5 445.5 c 128,-1,49
 877 413 877 413 904.5 382 c 128,-1,50
 932 351 932 351 950 309 c 128,-1,51
 968 267 968 267 967 224 c 0,52,53
 964 115 964 115 871 40 c 128,-1,54
 778 -35 778 -35 673 -35 c 0,55,56
 565 -35 565 -35 502 0 c 128,-1,57
 439 35 439 35 439 82 c 0,58,59
 439 131 439 131 471.5 166.5 c 128,-1,60
 504 202 504 202 561 208 c 1,61,62
 612 54 612 54 713 54 c 0,63,64
 761 54 761 54 791.5 81.5 c 128,-1,65
 822 109 822 109 822 162 c 0,0,1
EndSplineSet
Colour: ffff
EndChar

StartChar: Agrave
Encoding: 127 192 102
Width: 1379
VWidth: 0
Flags: MW
LayerCount: 2
Back
SplineSet
-37 0 m 1,0,-1
 -28 74 l 1,1,-1
 121 129 l 1,2,-1
 559 1237 l 1,3,-1
 710 1268 l 1,4,-1
 1100 124 l 1,5,-1
 1237 80 l 1,6,-1
 1228 0 l 1,7,-1
 713 0 l 1,8,-1
 725 74 l 1,9,-1
 896 129 l 1,10,-1
 787 432 l 1,11,-1
 368 432 l 1,12,-1
 256 124 l 1,13,-1
 442 80 l 1,14,-1
 431 0 l 1,15,-1
 -37 0 l 1,0,-1
406 534 m 1,16,-1
 758 534 l 1,17,-1
 592 1034 l 1,18,-1
 406 534 l 1,16,-1
436 1664 m 1,19,-1
 552 1702 l 1,20,-1
 684 1368 l 1,21,-1
 627 1334 l 1,22,-1
 436 1664 l 1,19,-1
EndSplineSet
Fore
SplineSet
728 1725 m 1,0,-1
 843 1763 l 1,1,-1
 975 1430 l 1,2,-1
 919 1395 l 1,3,-1
 728 1725 l 1,0,-1
570 533 m 1,4,-1
 922 533 l 1,5,-1
 836 1034 l 1,6,-1
 570 533 l 1,4,-1
984 1268 m 1,7,-1
 1203 124 l 1,8,-1
 1332 81 l 1,9,-1
 1310 0 l 1,10,-1
 795 0 l 1,11,-1
 818 74 l 1,12,-1
 1000 129 l 1,13,-1
 937 433 l 1,14,-1
 518 433 l 1,15,-1
 359 124 l 1,16,-1
 537 81 l 1,17,-1
 513 0 l 1,18,-1
 44 0 l 1,19,-1
 65 74 l 1,20,-1
 224 129 l 1,21,-1
 827 1237 l 1,22,-1
 984 1268 l 1,7,-1
EndSplineSet
Colour: ffff
EndChar

StartChar: Aacute
Encoding: 128 193 103
Width: 1379
VWidth: 0
Flags: MW
LayerCount: 2
Back
SplineSet
-37 0 m 1,0,-1
 -28 74 l 1,1,-1
 121 129 l 1,2,-1
 559 1237 l 1,3,-1
 710 1268 l 1,4,-1
 1100 124 l 1,5,-1
 1237 80 l 1,6,-1
 1228 0 l 1,7,-1
 713 0 l 1,8,-1
 725 74 l 1,9,-1
 896 129 l 1,10,-1
 787 432 l 1,11,-1
 368 432 l 1,12,-1
 256 124 l 1,13,-1
 442 80 l 1,14,-1
 431 0 l 1,15,-1
 -37 0 l 1,0,-1
406 534 m 1,16,-1
 758 534 l 1,17,-1
 592 1034 l 1,18,-1
 406 534 l 1,16,-1
593 1385 m 1,19,-1
 716 1710 l 1,20,-1
 827 1670 l 1,21,-1
 643 1354 l 1,22,-1
 593 1385 l 1,19,-1
EndSplineSet
Fore
SplineSet
819 1427 m 1,0,-1
 942 1752 l 1,1,-1
 1053 1713 l 1,2,-1
 870 1395 l 1,3,-1
 819 1427 l 1,0,-1
570 533 m 1,4,-1
 922 533 l 1,5,-1
 836 1034 l 1,6,-1
 570 533 l 1,4,-1
984 1268 m 1,7,-1
 1203 124 l 1,8,-1
 1332 81 l 1,9,-1
 1310 0 l 1,10,-1
 795 0 l 1,11,-1
 818 74 l 1,12,-1
 1000 129 l 1,13,-1
 937 433 l 1,14,-1
 518 433 l 1,15,-1
 359 124 l 1,16,-1
 537 81 l 1,17,-1
 513 0 l 1,18,-1
 44 0 l 1,19,-1
 65 74 l 1,20,-1
 224 129 l 1,21,-1
 827 1237 l 1,22,-1
 984 1268 l 1,7,-1
EndSplineSet
Colour: ffff
EndChar

StartChar: Acircumflex
Encoding: 129 194 104
Width: 1379
VWidth: 0
Flags: MW
LayerCount: 2
Back
SplineSet
-37 0 m 1,0,-1
 -28 74 l 1,1,-1
 121 129 l 1,2,-1
 559 1237 l 1,3,-1
 710 1268 l 1,4,-1
 1100 124 l 1,5,-1
 1237 80 l 1,6,-1
 1228 0 l 1,7,-1
 713 0 l 1,8,-1
 725 74 l 1,9,-1
 896 129 l 1,10,-1
 787 432 l 1,11,-1
 368 432 l 1,12,-1
 256 124 l 1,13,-1
 442 80 l 1,14,-1
 431 0 l 1,15,-1
 -37 0 l 1,0,-1
406 534 m 1,16,-1
 758 534 l 1,17,-1
 592 1034 l 1,18,-1
 406 534 l 1,16,-1
443 1392 m 1,19,-1
 611 1572 l 1,20,-1
 666 1585 l 1,21,-1
 844 1400 l 1,22,-1
 794 1364 l 1,23,-1
 632 1472 l 1,24,-1
 621 1472 l 1,25,-1
 480 1361 l 1,26,-1
 443 1392 l 1,19,-1
EndSplineSet
Fore
SplineSet
756 1425 m 1,0,-1
 924 1604 l 1,1,-1
 979 1619 l 1,2,-1
 1157 1433 l 1,3,-1
 1108 1396 l 1,4,-1
 945 1506 l 1,5,-1
 934 1506 l 1,6,-1
 795 1395 l 1,7,-1
 756 1425 l 1,0,-1
570 533 m 1,8,-1
 922 533 l 1,9,-1
 836 1034 l 1,10,-1
 570 533 l 1,8,-1
984 1268 m 1,11,-1
 1203 124 l 1,12,-1
 1332 81 l 1,13,-1
 1310 0 l 1,14,-1
 795 0 l 1,15,-1
 818 74 l 1,16,-1
 1000 129 l 1,17,-1
 937 433 l 1,18,-1
 518 433 l 1,19,-1
 359 124 l 1,20,-1
 537 81 l 1,21,-1
 513 0 l 1,22,-1
 44 0 l 1,23,-1
 65 74 l 1,24,-1
 224 129 l 1,25,-1
 827 1237 l 1,26,-1
 984 1268 l 1,11,-1
EndSplineSet
Colour: ffff
EndChar

StartChar: Atilde
Encoding: 130 195 105
Width: 1379
VWidth: 0
Flags: MW
LayerCount: 2
Back
SplineSet
-37 0 m 1,0,-1
 -28 74 l 1,1,-1
 121 129 l 1,2,-1
 559 1237 l 1,3,-1
 710 1268 l 1,4,-1
 1100 124 l 1,5,-1
 1237 80 l 1,6,-1
 1228 0 l 1,7,-1
 713 0 l 1,8,-1
 725 74 l 1,9,-1
 896 129 l 1,10,-1
 787 432 l 1,11,-1
 368 432 l 1,12,-1
 256 124 l 1,13,-1
 442 80 l 1,14,-1
 431 0 l 1,15,-1
 -37 0 l 1,0,-1
406 534 m 1,16,-1
 758 534 l 1,17,-1
 592 1034 l 1,18,-1
 406 534 l 1,16,-1
406 1383 m 1,19,20
 407 1389 407 1389 410 1398.5 c 0
 413 1408 413 1408 423.5 1432.5 c 0
 434 1457 434 1457 447 1476 c 0
 460 1495 460 1495 482 1510.5 c 0
 504 1526 504 1526 529 1526 c 2,21,22
 543 1526 l 1,23,-1
 764 1496 l 1,24,-1
 768 1496 l 2,25,26
 779 1496 779 1496 793.5 1506 c 0
 808 1516 808 1516 816.5 1526 c 2
 825 1536 l 1,27,-1
 872 1535 l 1,28,29
 870 1529 870 1529 867 1519.5 c 0
 864 1510 864 1510 853 1485 c 0
 842 1460 842 1460 828.5 1441 c 0
 815 1422 815 1422 792 1406.5 c 0
 769 1391 769 1391 743 1391 c 0,30,31
 734 1391 734 1391 730 1392 c 2,32,-1
 507 1423 l 1,33,-1
 504 1423 l 2,34,35
 492 1423 492 1423 477 1411.5 c 0
 462 1400 462 1400 453.5 1388 c 2
 445 1376 l 1,36,-1
 406 1383 l 1,19,20
EndSplineSet
Fore
SplineSet
730 1404 m 1,0,1
 732 1410 732 1410 735 1420.5 c 128,-1,2
 738 1431 738 1431 750 1457 c 128,-1,3
 762 1483 762 1483 776.5 1502 c 128,-1,4
 791 1521 791 1521 815 1535 c 128,-1,5
 839 1549 839 1549 866 1546 c 2,6,-1
 1092 1517 l 2,7,8
 1103 1516 1103 1516 1117 1526 c 128,-1,9
 1131 1536 1131 1536 1140 1546 c 2,10,-1
 1148 1557 l 1,11,-1
 1197 1555 l 1,12,13
 1195 1549 1195 1549 1191.5 1538.5 c 128,-1,14
 1188 1528 1188 1528 1174.5 1501.5 c 128,-1,15
 1161 1475 1161 1475 1145.5 1456 c 128,-1,16
 1130 1437 1130 1437 1105 1422.5 c 128,-1,17
 1080 1408 1080 1408 1053 1412 c 2,18,-1
 828 1444 l 2,19,20
 816 1446 816 1446 801 1433.5 c 128,-1,21
 786 1421 786 1421 778 1408 c 2,22,-1
 769 1395 l 1,23,-1
 730 1404 l 1,0,1
570 533 m 1,24,-1
 922 533 l 1,25,-1
 836 1034 l 1,26,-1
 570 533 l 1,24,-1
984 1268 m 1,27,-1
 1203 124 l 1,28,-1
 1332 81 l 1,29,-1
 1310 0 l 1,30,-1
 795 0 l 1,31,-1
 818 74 l 1,32,-1
 1000 129 l 1,33,-1
 937 433 l 1,34,-1
 518 433 l 1,35,-1
 359 124 l 1,36,-1
 537 81 l 1,37,-1
 513 0 l 1,38,-1
 44 0 l 1,39,-1
 65 74 l 1,40,-1
 224 129 l 1,41,-1
 827 1237 l 1,42,-1
 984 1268 l 1,27,-1
EndSplineSet
Colour: ffff
EndChar

StartChar: Adieresis
Encoding: 131 196 106
Width: 1379
VWidth: 0
Flags: MW
LayerCount: 2
Back
SplineSet
-37 0 m 1,0,-1
 -28 74 l 1,1,-1
 121 129 l 1,2,-1
 559 1237 l 1,3,-1
 710 1268 l 1,4,-1
 1100 124 l 1,5,-1
 1237 80 l 1,6,-1
 1228 0 l 1,7,-1
 713 0 l 1,8,-1
 725 74 l 1,9,-1
 896 129 l 1,10,-1
 787 432 l 1,11,-1
 368 432 l 1,12,-1
 256 124 l 1,13,-1
 442 80 l 1,14,-1
 431 0 l 1,15,-1
 -37 0 l 1,0,-1
406 534 m 1,16,-1
 758 534 l 1,17,-1
 592 1034 l 1,18,-1
 406 534 l 1,16,-1
423 1453 m 0,19,20
 423 1487 423 1487 448.5 1508.5 c 0
 474 1530 474 1530 506 1530 c 0,21,22
 540 1530 540 1530 566 1508 c 0
 592 1486 592 1486 592 1453 c 0,23,24
 592 1418 592 1418 566.5 1395.5 c 0
 541 1373 541 1373 506 1373 c 0,25,26
 472 1373 472 1373 447.5 1395.5 c 0
 423 1418 423 1418 423 1453 c 0,19,20
690 1453 m 0,27,28
 690 1487 690 1487 715.5 1508.5 c 0
 741 1530 741 1530 773 1530 c 0,29,30
 808 1530 808 1530 834.5 1508 c 0
 861 1486 861 1486 861 1453 c 0,31,32
 861 1418 861 1418 834.5 1395.5 c 0
 808 1373 808 1373 773 1373 c 0,33,34
 739 1373 739 1373 714.5 1395.5 c 0
 690 1418 690 1418 690 1453 c 0,27,28
EndSplineSet
Fore
SplineSet
581 1553 m 0,0,1
 616 1553 616 1553 637 1531.5 c 128,-1,2
 658 1510 658 1510 653 1476 c 0,3,4
 647 1440 647 1440 619 1417.5 c 128,-1,5
 591 1395 591 1395 556 1395 c 0,6,7
 522 1395 522 1395 499.5 1417.5 c 128,-1,8
 477 1440 477 1440 483 1476 c 0,9,10
 489 1510 489 1510 518.5 1531.5 c 128,-1,11
 548 1553 548 1553 581 1553 c 0,0,1
848 1553 m 0,12,13
 883 1553 883 1553 905 1531.5 c 128,-1,14
 927 1510 927 1510 922 1476 c 0,15,16
 916 1440 916 1440 887 1417.5 c 128,-1,17
 858 1395 858 1395 823 1395 c 0,18,19
 789 1395 789 1395 767 1417.5 c 128,-1,20
 745 1440 745 1440 751 1476 c 0,21,22
 757 1510 757 1510 786 1531.5 c 128,-1,23
 815 1553 815 1553 848 1553 c 0,12,13
570 533 m 1,24,-1
 922 533 l 1,25,-1
 836 1034 l 1,26,-1
 570 533 l 1,24,-1
984 1268 m 1,27,-1
 1203 124 l 1,28,-1
 1332 81 l 1,29,-1
 1310 0 l 1,30,-1
 795 0 l 1,31,-1
 818 74 l 1,32,-1
 1000 129 l 1,33,-1
 937 433 l 1,34,-1
 518 433 l 1,35,-1
 359 124 l 1,36,-1
 537 81 l 1,37,-1
 513 0 l 1,38,-1
 44 0 l 1,39,-1
 65 74 l 1,40,-1
 224 129 l 1,41,-1
 827 1237 l 1,42,-1
 984 1268 l 1,27,-1
EndSplineSet
Colour: ffff
EndChar

StartChar: Aring
Encoding: 132 197 107
Width: 1379
VWidth: 0
Flags: MW
LayerCount: 2
Back
SplineSet
-37 0 m 1,0,-1
 -28 74 l 1,1,-1
 121 129 l 1,2,-1
 559 1237 l 1,3,-1
 710 1268 l 1,4,-1
 1100 124 l 1,5,-1
 1237 80 l 1,6,-1
 1228 0 l 1,7,-1
 713 0 l 1,8,-1
 725 74 l 1,9,-1
 896 129 l 1,10,-1
 787 432 l 1,11,-1
 368 432 l 1,12,-1
 256 124 l 1,13,-1
 442 80 l 1,14,-1
 431 0 l 1,15,-1
 -37 0 l 1,0,-1
406 534 m 1,16,-1
 758 534 l 1,17,-1
 592 1034 l 1,18,-1
 406 534 l 1,16,-1
480 1532 m 0,19,20
 480 1601 480 1601 530 1652.5 c 0
 580 1704 580 1704 649 1704 c 0,21,22
 720 1704 720 1704 762 1658.5 c 0
 804 1613 804 1613 804 1542 c 0,23,24
 804 1472 804 1472 757 1419.5 c 0
 710 1367 710 1367 636 1367 c 0,25,26
 566 1367 566 1367 523 1411.5 c 0
 480 1456 480 1456 480 1532 c 0,19,20
552 1543 m 0,27,28
 552 1492 552 1492 577 1453.5 c 0
 602 1415 602 1415 647 1415 c 0,29,30
 688 1415 688 1415 711 1445 c 0
 734 1475 734 1475 734 1529 c 0,31,32
 734 1579 734 1579 707 1617.5 c 0
 680 1656 680 1656 636 1656 c 0,33,34
 595 1656 595 1656 573.5 1623 c 0
 552 1590 552 1590 552 1543 c 0,27,28
EndSplineSet
Fore
SplineSet
890 1439 m 0,0,1
 890 1388 890 1388 912.5 1352.5 c 128,-1,2
 935 1317 935 1317 979 1317 c 0,3,4
 1059 1317 1059 1317 1059 1425 c 0,5,6
 1059 1476 1059 1476 1036 1511 c 128,-1,7
 1013 1546 1013 1546 969 1546 c 0,8,9
 928 1546 928 1546 909 1516 c 128,-1,10
 890 1486 890 1486 890 1439 c 0,0,1
800 1428 m 0,11,12
 800 1496 800 1496 855 1548 c 128,-1,13
 910 1600 910 1600 980 1600 c 0,14,15
 1052 1600 1052 1600 1100 1553.5 c 128,-1,16
 1148 1507 1148 1507 1148 1437 c 0,17,18
 1148 1372 1148 1372 1101 1320.5 c 128,-1,19
 1054 1269 1054 1269 985 1263 c 1,20,-1
 1203 124 l 1,21,-1
 1332 81 l 1,22,-1
 1310 0 l 1,23,-1
 795 0 l 1,24,-1
 818 74 l 1,25,-1
 1000 129 l 1,26,-1
 937 433 l 1,27,-1
 518 433 l 1,28,-1
 359 124 l 1,29,-1
 537 81 l 1,30,-1
 513 0 l 1,31,-1
 44 0 l 1,32,-1
 65 74 l 1,33,-1
 224 129 l 1,34,-1
 827 1237 l 1,35,-1
 954 1262 l 1,36,37
 888 1266 888 1266 844 1311.5 c 128,-1,38
 800 1357 800 1357 800 1428 c 0,11,12
570 533 m 1,39,-1
 922 533 l 1,40,-1
 836 1034 l 1,41,-1
 570 533 l 1,39,-1
EndSplineSet
Colour: ffff
EndChar

StartChar: Ccedilla
Encoding: 134 199 108
Width: 1190
VWidth: 0
Flags: MW
LayerCount: 2
Back
SplineSet
61 589 m 0,0,1
 61 681 61 681 83.5 773.5 c 0
 106 866 106 866 156.5 956 c 0
 207 1046 207 1046 280 1115 c 0
 353 1184 353 1184 463 1226.5 c 0
 573 1269 573 1269 705 1269 c 0,2,3
 934 1269 934 1269 1066 1169 c 1,4,-1
 1035 837 l 1,5,-1
 947 850 l 1,6,-1
 906 1070 l 1,7,8
 825 1174 825 1174 647 1174 c 0,9,10
 487 1174 487 1174 381 1034 c 0
 275 894 275 894 275 658 c 0,11,12
 275 528 275 528 312.5 422 c 0
 350 316 350 316 413.5 249 c 0
 477 182 477 182 558 146.5 c 0
 639 111 639 111 729 111 c 0,13,14
 823 111 823 111 915 153.5 c 0
 1007 196 1007 196 1078 261 c 1,15,-1
 1114 185 l 1,16,17
 1058 117 1058 117 959 59 c 0
 860 1 860 1 743 -18 c 1,18,-1
 703 -76 l 1,19,20
 792 -155 792 -155 792 -227 c 0,21,22
 792 -330 792 -330 592 -389 c 1,23,-1
 572 -331 l 1,24,25
 613 -317 613 -317 635.5 -294.5 c 0
 658 -272 658 -272 658 -248 c 0,26,27
 658 -207 658 -207 585 -138 c 1,28,-1
 663 -24 l 1,29,-1
 652 -24 l 2,30,31
 535 -24 535 -24 429.5 16.5 c 0
 324 57 324 57 241.5 132 c 0
 159 207 159 207 110 325.5 c 0
 61 444 61 444 61 589 c 0,0,1
EndSplineSet
Fore
SplineSet
425 -346 m 1,0,1
 466 -332 466 -332 488.5 -309.5 c 128,-1,2
 511 -287 511 -287 511 -263 c 0,3,4
 511 -223 511 -223 437 -153 c 1,5,-1
 527 -24 l 1,6,7
 430 -18 430 -18 343.5 25 c 128,-1,8
 257 68 257 68 192.5 139.5 c 128,-1,9
 128 211 128 211 90.5 313.5 c 128,-1,10
 53 416 53 416 53 535 c 0,11,12
 53 605 53 605 68 677.5 c 128,-1,13
 83 750 83 750 115 822 c 128,-1,14
 147 894 147 894 192 960 c 128,-1,15
 237 1026 237 1026 300.5 1082.5 c 128,-1,16
 364 1139 364 1139 439.5 1181 c 128,-1,17
 515 1223 515 1223 611.5 1246.5 c 128,-1,18
 708 1270 708 1270 814 1270 c 0,19,20
 910 1270 910 1270 996.5 1237.5 c 128,-1,21
 1083 1205 1083 1205 1148 1149 c 1,22,-1
 1065 817 l 1,23,-1
 981 831 l 1,24,-1
 973 1050 l 1,25,26
 897 1174 897 1174 738 1174 c 0,27,28
 647 1174 647 1174 564 1132.5 c 128,-1,29
 481 1091 481 1091 417 1016 c 128,-1,30
 353 941 353 941 314.5 826.5 c 128,-1,31
 276 712 276 712 276 575 c 0,32,33
 276 463 276 463 306.5 373 c 128,-1,34
 337 283 337 283 390 225 c 128,-1,35
 443 167 443 167 512.5 136.5 c 128,-1,36
 582 106 582 106 662 106 c 0,37,38
 761 106 761 106 847 134 c 128,-1,39
 933 162 933 162 1021 240 c 1,40,-1
 1064 185 l 1,41,42
 889 -11 889 -11 601 -24 c 1,43,-1
 556 -91 l 1,44,45
 580 -113 580 -113 596.5 -130.5 c 128,-1,46
 613 -148 613 -148 629 -179.5 c 128,-1,47
 645 -211 645 -211 645 -242 c 0,48,49
 645 -345 645 -345 444 -404 c 1,50,-1
 425 -346 l 1,0,1
EndSplineSet
Colour: ffff
EndChar

StartChar: Egrave
Encoding: 135 200 109
Width: 1259
VWidth: 0
Flags: MW
LayerCount: 2
Back
SplineSet
50 1168 m 1,0,-1
 61 1244 l 1,1,-1
 1056 1244 l 1,2,-1
 1025 924 l 1,3,-1
 938 937 l 1,4,-1
 897 1152 l 1,5,-1
 426 1152 l 1,6,-1
 426 676 l 1,7,-1
 716 676 l 1,8,-1
 758 796 l 1,9,-1
 853 810 l 1,10,-1
 819 421 l 1,11,-1
 734 408 l 1,12,-1
 700 583 l 1,13,-1
 426 583 l 1,14,-1
 426 96 l 1,15,-1
 921 96 l 1,16,-1
 1019 326 l 1,17,-1
 1102 313 l 1,18,-1
 1072 0 l 1,19,-1
 57 0 l 1,20,-1
 65 74 l 1,21,-1
 232 121 l 1,22,-1
 232 1126 l 1,23,-1
 50 1168 l 1,0,-1
443 1664 m 1,24,-1
 559 1702 l 1,25,-1
 691 1368 l 1,26,-1
 633 1334 l 1,27,-1
 443 1664 l 1,24,-1
EndSplineSet
Fore
SplineSet
518 1725 m 1,0,-1
 633 1763 l 1,1,-1
 765 1430 l 1,2,-1
 709 1395 l 1,3,-1
 518 1725 l 1,0,-1
242 1244 m 1,4,-1
 1217 1244 l 1,5,-1
 1148 925 l 1,6,-1
 1064 938 l 1,7,-1
 1044 1153 l 1,8,-1
 592 1153 l 1,9,-1
 519 677 l 1,10,-1
 810 677 l 1,11,-1
 861 796 l 1,12,-1
 957 809 l 1,13,-1
 874 421 l 1,14,-1
 787 408 l 1,15,-1
 780 583 l 1,16,-1
 504 583 l 1,17,-1
 427 96 l 1,18,-1
 934 96 l 1,19,-1
 1047 325 l 1,20,-1
 1130 314 l 1,21,-1
 1069 0 l 1,22,-1
 43 0 l 1,23,-1
 63 74 l 1,24,-1
 238 121 l 1,25,-1
 397 1126 l 1,26,-1
 220 1168 l 1,27,-1
 242 1244 l 1,4,-1
EndSplineSet
Colour: ffff
EndChar

StartChar: Eacute
Encoding: 136 201 110
Width: 1259
VWidth: 0
Flags: MW
LayerCount: 2
Back
SplineSet
50 1168 m 1,0,-1
 61 1244 l 1,1,-1
 1056 1244 l 1,2,-1
 1025 924 l 1,3,-1
 938 937 l 1,4,-1
 897 1152 l 1,5,-1
 426 1152 l 1,6,-1
 426 676 l 1,7,-1
 716 676 l 1,8,-1
 758 796 l 1,9,-1
 853 810 l 1,10,-1
 819 421 l 1,11,-1
 734 408 l 1,12,-1
 700 583 l 1,13,-1
 426 583 l 1,14,-1
 426 96 l 1,15,-1
 921 96 l 1,16,-1
 1019 326 l 1,17,-1
 1102 313 l 1,18,-1
 1072 0 l 1,19,-1
 57 0 l 1,20,-1
 65 74 l 1,21,-1
 232 121 l 1,22,-1
 232 1126 l 1,23,-1
 50 1168 l 1,0,-1
517 1385 m 1,24,-1
 640 1710 l 1,25,-1
 751 1670 l 1,26,-1
 568 1354 l 1,27,-1
 517 1385 l 1,24,-1
EndSplineSet
Fore
SplineSet
609 1427 m 1,0,-1
 732 1752 l 1,1,-1
 843 1713 l 1,2,-1
 660 1395 l 1,3,-1
 609 1427 l 1,0,-1
242 1244 m 1,4,-1
 1217 1244 l 1,5,-1
 1148 925 l 1,6,-1
 1064 938 l 1,7,-1
 1044 1153 l 1,8,-1
 592 1153 l 1,9,-1
 519 677 l 1,10,-1
 810 677 l 1,11,-1
 861 796 l 1,12,-1
 957 809 l 1,13,-1
 874 421 l 1,14,-1
 787 408 l 1,15,-1
 780 583 l 1,16,-1
 504 583 l 1,17,-1
 427 96 l 1,18,-1
 934 96 l 1,19,-1
 1047 325 l 1,20,-1
 1130 314 l 1,21,-1
 1069 0 l 1,22,-1
 43 0 l 1,23,-1
 63 74 l 1,24,-1
 238 121 l 1,25,-1
 397 1126 l 1,26,-1
 220 1168 l 1,27,-1
 242 1244 l 1,4,-1
EndSplineSet
Colour: ffff
EndChar

StartChar: Ecircumflex
Encoding: 137 202 111
Width: 1259
VWidth: 0
Flags: MW
LayerCount: 2
Back
SplineSet
406 1387 m 1,0,-1
 574 1566 l 1,1,-1
 629 1581 l 1,2,-1
 807 1395 l 1,3,-1
 758 1358 l 1,4,-1
 595 1468 l 1,5,-1
 584 1468 l 1,6,-1
 445 1357 l 1,7,-1
 406 1387 l 1,0,-1
75 1168 m 1,8,-1
 86 1244 l 1,9,-1
 1081 1244 l 1,10,-1
 1050 924 l 1,11,-1
 963 937 l 1,12,-1
 922 1152 l 1,13,-1
 451 1152 l 1,14,-1
 451 676 l 1,15,-1
 741 676 l 1,16,-1
 783 796 l 1,17,-1
 878 810 l 1,18,-1
 844 421 l 1,19,-1
 759 408 l 1,20,-1
 725 583 l 1,21,-1
 451 583 l 1,22,-1
 451 96 l 1,23,-1
 946 96 l 1,24,-1
 1044 326 l 1,25,-1
 1127 313 l 1,26,-1
 1097 0 l 1,27,-1
 82 0 l 1,28,-1
 90 74 l 1,29,-1
 257 121 l 1,30,-1
 257 1126 l 1,31,-1
 75 1168 l 1,8,-1
EndSplineSet
Fore
SplineSet
545 1425 m 1,0,-1
 713 1604 l 1,1,-1
 768 1619 l 1,2,-1
 946 1433 l 1,3,-1
 897 1396 l 1,4,-1
 734 1506 l 1,5,-1
 723 1506 l 1,6,-1
 584 1395 l 1,7,-1
 545 1425 l 1,0,-1
242 1244 m 1,8,-1
 1217 1244 l 1,9,-1
 1148 925 l 1,10,-1
 1064 938 l 1,11,-1
 1044 1153 l 1,12,-1
 592 1153 l 1,13,-1
 519 677 l 1,14,-1
 810 677 l 1,15,-1
 861 796 l 1,16,-1
 957 809 l 1,17,-1
 874 421 l 1,18,-1
 787 408 l 1,19,-1
 780 583 l 1,20,-1
 504 583 l 1,21,-1
 427 96 l 1,22,-1
 934 96 l 1,23,-1
 1047 325 l 1,24,-1
 1130 314 l 1,25,-1
 1069 0 l 1,26,-1
 43 0 l 1,27,-1
 63 74 l 1,28,-1
 238 121 l 1,29,-1
 397 1126 l 1,30,-1
 220 1168 l 1,31,-1
 242 1244 l 1,8,-1
EndSplineSet
Colour: ffff
EndChar

StartChar: Edieresis
Encoding: 138 203 112
Width: 1259
VWidth: 0
Flags: MW
LayerCount: 2
Back
SplineSet
50 1168 m 1,0,-1
 61 1244 l 1,1,-1
 1056 1244 l 1,2,-1
 1025 924 l 1,3,-1
 938 937 l 1,4,-1
 897 1152 l 1,5,-1
 426 1152 l 1,6,-1
 426 676 l 1,7,-1
 716 676 l 1,8,-1
 758 796 l 1,9,-1
 853 810 l 1,10,-1
 819 421 l 1,11,-1
 734 408 l 1,12,-1
 700 583 l 1,13,-1
 426 583 l 1,14,-1
 426 96 l 1,15,-1
 921 96 l 1,16,-1
 1019 326 l 1,17,-1
 1102 313 l 1,18,-1
 1072 0 l 1,19,-1
 57 0 l 1,20,-1
 65 74 l 1,21,-1
 232 121 l 1,22,-1
 232 1126 l 1,23,-1
 50 1168 l 1,0,-1
380 1453 m 0,24,25
 380 1487 380 1487 405.5 1508.5 c 0
 431 1530 431 1530 463 1530 c 0,26,27
 497 1530 497 1530 523 1508 c 0
 549 1486 549 1486 549 1453 c 0,28,29
 549 1418 549 1418 523.5 1395.5 c 0
 498 1373 498 1373 463 1373 c 0,30,31
 429 1373 429 1373 404.5 1395.5 c 0
 380 1418 380 1418 380 1453 c 0,24,25
647 1453 m 0,32,33
 647 1487 647 1487 672.5 1508.5 c 0
 698 1530 698 1530 730 1530 c 0,34,35
 765 1530 765 1530 791.5 1508 c 0
 818 1486 818 1486 818 1453 c 0,36,37
 818 1418 818 1418 791.5 1395.5 c 0
 765 1373 765 1373 730 1373 c 0,38,39
 696 1373 696 1373 671.5 1395.5 c 0
 647 1418 647 1418 647 1453 c 0,32,33
EndSplineSet
Fore
SplineSet
370 1553 m 0,0,1
 405 1553 405 1553 426 1531.5 c 128,-1,2
 447 1510 447 1510 442 1476 c 0,3,4
 436 1440 436 1440 408 1417.5 c 128,-1,5
 380 1395 380 1395 345 1395 c 0,6,7
 311 1395 311 1395 288.5 1417.5 c 128,-1,8
 266 1440 266 1440 272 1476 c 0,9,10
 278 1510 278 1510 307.5 1531.5 c 128,-1,11
 337 1553 337 1553 370 1553 c 0,0,1
637 1553 m 0,12,13
 672 1553 672 1553 694 1531.5 c 128,-1,14
 716 1510 716 1510 711 1476 c 0,15,16
 705 1440 705 1440 676 1417.5 c 128,-1,17
 647 1395 647 1395 612 1395 c 0,18,19
 578 1395 578 1395 556 1417.5 c 128,-1,20
 534 1440 534 1440 540 1476 c 0,21,22
 546 1510 546 1510 575 1531.5 c 128,-1,23
 604 1553 604 1553 637 1553 c 0,12,13
242 1244 m 1,24,-1
 1217 1244 l 1,25,-1
 1148 925 l 1,26,-1
 1064 938 l 1,27,-1
 1044 1153 l 1,28,-1
 592 1153 l 1,29,-1
 519 677 l 1,30,-1
 810 677 l 1,31,-1
 861 796 l 1,32,-1
 957 809 l 1,33,-1
 874 421 l 1,34,-1
 787 408 l 1,35,-1
 780 583 l 1,36,-1
 504 583 l 1,37,-1
 427 96 l 1,38,-1
 934 96 l 1,39,-1
 1047 325 l 1,40,-1
 1130 314 l 1,41,-1
 1069 0 l 1,42,-1
 43 0 l 1,43,-1
 63 74 l 1,44,-1
 238 121 l 1,45,-1
 397 1126 l 1,46,-1
 220 1168 l 1,47,-1
 242 1244 l 1,24,-1
EndSplineSet
Colour: ffff
EndChar

StartChar: Igrave
Encoding: 139 204 113
Width: 828
VWidth: 0
Flags: MW
LayerCount: 2
Back
SplineSet
50 1168 m 1,0,-1
 61 1244 l 1,1,-1
 605 1244 l 1,2,-1
 595 1168 l 1,3,-1
 426 1130 l 1,4,-1
 426 114 l 1,5,-1
 607 80 l 1,6,-1
 597 0 l 1,7,-1
 57 0 l 1,8,-1
 65 74 l 1,9,-1
 232 121 l 1,10,-1
 232 1126 l 1,11,-1
 50 1168 l 1,0,-1
133 1664 m 1,12,-1
 249 1702 l 1,13,-1
 381 1368 l 1,14,-1
 323 1334 l 1,15,-1
 133 1664 l 1,12,-1
EndSplineSet
Fore
SplineSet
293 1725 m 1,0,-1
 408 1763 l 1,1,-1
 540 1430 l 1,2,-1
 484 1395 l 1,3,-1
 293 1725 l 1,0,-1
583 0 m 1,4,-1
 43 0 l 1,5,-1
 63 74 l 1,6,-1
 238 121 l 1,7,-1
 397 1126 l 1,8,-1
 220 1168 l 1,9,-1
 242 1244 l 1,10,-1
 787 1244 l 1,11,-1
 765 1168 l 1,12,-1
 590 1130 l 1,13,-1
 430 114 l 1,14,-1
 607 81 l 1,15,-1
 583 0 l 1,4,-1
EndSplineSet
Colour: ffff
EndChar

StartChar: Iacute
Encoding: 140 205 114
Width: 828
VWidth: 0
Flags: MW
LayerCount: 2
Back
SplineSet
50 1168 m 1,0,-1
 61 1244 l 1,1,-1
 605 1244 l 1,2,-1
 595 1168 l 1,3,-1
 426 1130 l 1,4,-1
 426 114 l 1,5,-1
 607 80 l 1,6,-1
 597 0 l 1,7,-1
 57 0 l 1,8,-1
 65 74 l 1,9,-1
 232 121 l 1,10,-1
 232 1126 l 1,11,-1
 50 1168 l 1,0,-1
289 1385 m 1,12,-1
 412 1710 l 1,13,-1
 523 1670 l 1,14,-1
 341 1354 l 1,15,-1
 289 1385 l 1,12,-1
EndSplineSet
Fore
SplineSet
384 1427 m 1,0,-1
 507 1752 l 1,1,-1
 618 1713 l 1,2,-1
 435 1395 l 1,3,-1
 384 1427 l 1,0,-1
583 0 m 1,4,-1
 43 0 l 1,5,-1
 63 74 l 1,6,-1
 238 121 l 1,7,-1
 397 1126 l 1,8,-1
 220 1168 l 1,9,-1
 242 1244 l 1,10,-1
 787 1244 l 1,11,-1
 765 1168 l 1,12,-1
 590 1130 l 1,13,-1
 430 114 l 1,14,-1
 607 81 l 1,15,-1
 583 0 l 1,4,-1
EndSplineSet
Colour: ffff
EndChar

StartChar: Icircumflex
Encoding: 141 206 115
Width: 828
VWidth: 0
Flags: MW
LayerCount: 2
Back
SplineSet
50 1168 m 1,0,-1
 61 1244 l 1,1,-1
 605 1244 l 1,2,-1
 595 1168 l 1,3,-1
 426 1130 l 1,4,-1
 426 114 l 1,5,-1
 607 80 l 1,6,-1
 597 0 l 1,7,-1
 57 0 l 1,8,-1
 65 74 l 1,9,-1
 232 121 l 1,10,-1
 232 1126 l 1,11,-1
 50 1168 l 1,0,-1
132 1392 m 1,12,-1
 299 1572 l 1,13,-1
 354 1585 l 1,14,-1
 532 1400 l 1,15,-1
 483 1364 l 1,16,-1
 319 1472 l 1,17,-1
 309 1472 l 1,18,-1
 169 1361 l 1,19,-1
 132 1392 l 1,12,-1
EndSplineSet
Fore
SplineSet
320 1425 m 1,0,-1
 488 1604 l 1,1,-1
 543 1619 l 1,2,-1
 721 1433 l 1,3,-1
 672 1396 l 1,4,-1
 509 1506 l 1,5,-1
 498 1506 l 1,6,-1
 359 1395 l 1,7,-1
 320 1425 l 1,0,-1
583 0 m 1,8,-1
 43 0 l 1,9,-1
 63 74 l 1,10,-1
 238 121 l 1,11,-1
 397 1126 l 1,12,-1
 220 1168 l 1,13,-1
 242 1244 l 1,14,-1
 787 1244 l 1,15,-1
 765 1168 l 1,16,-1
 590 1130 l 1,17,-1
 430 114 l 1,18,-1
 607 81 l 1,19,-1
 583 0 l 1,8,-1
EndSplineSet
Colour: ffff
EndChar

StartChar: Idieresis
Encoding: 142 207 116
Width: 828
VWidth: 0
Flags: MW
LayerCount: 2
Back
SplineSet
50 1168 m 1,0,-1
 61 1244 l 1,1,-1
 605 1244 l 1,2,-1
 595 1168 l 1,3,-1
 426 1130 l 1,4,-1
 426 114 l 1,5,-1
 607 80 l 1,6,-1
 597 0 l 1,7,-1
 57 0 l 1,8,-1
 65 74 l 1,9,-1
 232 121 l 1,10,-1
 232 1126 l 1,11,-1
 50 1168 l 1,0,-1
110 1453 m 0,12,13
 110 1487 110 1487 136 1508.5 c 0
 162 1530 162 1530 194 1530 c 0,14,15
 228 1530 228 1530 253.5 1508 c 0
 279 1486 279 1486 279 1453 c 0,16,17
 279 1418 279 1418 253.5 1395.5 c 0
 228 1373 228 1373 194 1373 c 0,18,19
 160 1373 160 1373 135 1395.5 c 0
 110 1418 110 1418 110 1453 c 0,12,13
377 1453 m 0,20,21
 377 1487 377 1487 403 1508.5 c 0
 429 1530 429 1530 461 1530 c 0,22,23
 496 1530 496 1530 522.5 1508 c 0
 549 1486 549 1486 549 1453 c 0,24,25
 549 1418 549 1418 522.5 1395.5 c 0
 496 1373 496 1373 461 1373 c 0,26,27
 427 1373 427 1373 402 1395.5 c 0
 377 1418 377 1418 377 1453 c 0,20,21
EndSplineSet
Fore
SplineSet
145 1553 m 0,0,1
 180 1553 180 1553 201 1531.5 c 128,-1,2
 222 1510 222 1510 217 1476 c 0,3,4
 211 1440 211 1440 183 1417.5 c 128,-1,5
 155 1395 155 1395 120 1395 c 0,6,7
 86 1395 86 1395 63.5 1417.5 c 128,-1,8
 41 1440 41 1440 47 1476 c 0,9,10
 53 1510 53 1510 82.5 1531.5 c 128,-1,11
 112 1553 112 1553 145 1553 c 0,0,1
412 1553 m 0,12,13
 447 1553 447 1553 469 1531.5 c 128,-1,14
 491 1510 491 1510 486 1476 c 0,15,16
 480 1440 480 1440 451 1417.5 c 128,-1,17
 422 1395 422 1395 387 1395 c 0,18,19
 353 1395 353 1395 331 1417.5 c 128,-1,20
 309 1440 309 1440 315 1476 c 0,21,22
 321 1510 321 1510 350 1531.5 c 128,-1,23
 379 1553 379 1553 412 1553 c 0,12,13
583 0 m 1,24,-1
 43 0 l 1,25,-1
 63 74 l 1,26,-1
 238 121 l 1,27,-1
 397 1126 l 1,28,-1
 220 1168 l 1,29,-1
 242 1244 l 1,30,-1
 787 1244 l 1,31,-1
 765 1168 l 1,32,-1
 590 1130 l 1,33,-1
 430 114 l 1,34,-1
 607 81 l 1,35,-1
 583 0 l 1,24,-1
EndSplineSet
Colour: ffff
EndChar

StartChar: Ntilde
Encoding: 144 209 117
Width: 1580
VWidth: 0
Flags: MW
LayerCount: 2
Back
SplineSet
50 1168 m 1,0,-1
 61 1244 l 1,1,-1
 412 1244 l 1,2,-1
 1054 271 l 1,3,-1
 1054 1126 l 1,4,-1
 869 1168 l 1,5,-1
 881 1244 l 1,6,-1
 1356 1244 l 1,7,-1
 1343 1168 l 1,8,-1
 1176 1130 l 1,9,-1
 1176 1 l 1,10,-1
 1023 -30 l 1,11,-1
 360 961 l 1,12,-1
 360 114 l 1,13,-1
 543 80 l 1,14,-1
 532 0 l 1,15,-1
 57 0 l 1,16,-1
 65 74 l 1,17,-1
 232 121 l 1,18,-1
 232 1117 l 1,19,-1
 50 1168 l 1,0,-1
445 1383 m 1,20,21
 446 1389 446 1389 449 1398.5 c 0
 452 1408 452 1408 462 1432.5 c 0
 472 1457 472 1457 484.5 1476 c 0
 497 1495 497 1495 519 1510.5 c 0
 541 1526 541 1526 566 1526 c 2,22,23
 580 1526 l 1,24,-1
 802 1496 l 1,25,-1
 807 1496 l 2,26,27
 818 1496 818 1496 832 1506 c 0
 846 1516 846 1516 854 1526 c 2
 862 1536 l 1,28,-1
 910 1535 l 1,29,30
 908 1529 908 1529 905 1519.5 c 0
 902 1510 902 1510 891 1485 c 0
 880 1460 880 1460 866.5 1441 c 0
 853 1422 853 1422 830 1406.5 c 0
 807 1391 807 1391 781 1391 c 0,31,32
 772 1391 772 1391 768 1392 c 2,33,-1
 546 1423 l 1,34,-1
 543 1423 l 2,35,36
 531 1423 531 1423 516 1411.5 c 0
 501 1400 501 1400 492 1388 c 2
 483 1376 l 1,37,-1
 445 1383 l 1,20,21
EndSplineSet
Fore
SplineSet
670 1404 m 1,0,1
 672 1410 672 1410 675 1420.5 c 128,-1,2
 678 1431 678 1431 690 1457 c 128,-1,3
 702 1483 702 1483 716.5 1502 c 128,-1,4
 731 1521 731 1521 755 1535 c 128,-1,5
 779 1549 779 1549 806 1546 c 2,6,-1
 1032 1517 l 2,7,8
 1043 1516 1043 1516 1057 1526 c 128,-1,9
 1071 1536 1071 1536 1079 1546 c 2,10,-1
 1088 1557 l 1,11,-1
 1137 1555 l 1,12,13
 1135 1549 1135 1549 1131.5 1538.5 c 128,-1,14
 1128 1528 1128 1528 1114.5 1501.5 c 128,-1,15
 1101 1475 1101 1475 1085.5 1456 c 128,-1,16
 1070 1437 1070 1437 1045 1422.5 c 128,-1,17
 1020 1408 1020 1408 993 1412 c 2,18,-1
 768 1444 l 2,19,20
 756 1446 756 1446 741 1433.5 c 128,-1,21
 726 1421 726 1421 717 1408 c 2,22,-1
 709 1395 l 1,23,-1
 670 1404 l 1,0,1
1004 -30 m 1,24,-1
 499 961 l 1,25,-1
 365 114 l 1,26,-1
 543 81 l 1,27,-1
 520 0 l 1,28,-1
 44 0 l 1,29,-1
 64 74 l 1,30,-1
 239 121 l 1,31,-1
 396 1118 l 1,32,-1
 221 1168 l 1,33,-1
 243 1244 l 1,34,-1
 591 1244 l 1,35,-1
 1085 262 l 1,36,-1
 1220 1126 l 1,37,-1
 1040 1168 l 1,38,-1
 1063 1244 l 1,39,-1
 1539 1244 l 1,40,-1
 1514 1168 l 1,41,-1
 1342 1130 l 1,42,-1
 1164 2 l 1,43,-1
 1004 -30 l 1,24,-1
EndSplineSet
Colour: ffff
EndChar

StartChar: Ograve
Encoding: 145 210 118
Width: 1344
VWidth: 0
Flags: MW
LayerCount: 2
Back
SplineSet
61 619 m 0,0,1
 61 911 61 911 236 1091.5 c 0
 411 1272 411 1272 706 1272 c 0,2,3
 838 1272 838 1272 948.5 1219.5 c 0
 1059 1167 1059 1167 1131.5 1077 c 0
 1204 987 1204 987 1244 869 c 0
 1284 751 1284 751 1284 619 c 0,4,5
 1284 489 1284 489 1240.5 372.5 c 0
 1197 256 1197 256 1116.5 167 c 0
 1036 78 1036 78 911.5 25.5 c 0
 787 -27 787 -27 636 -27 c 0,6,7
 467 -27 467 -27 335 59 c 0
 203 145 203 145 132 292 c 0
 61 439 61 439 61 619 c 0,0,1
283 676 m 0,8,9
 283 585 283 585 297 501 c 0
 311 417 311 417 342.5 339.5 c 0
 374 262 374 262 419.5 204.5 c 0
 465 147 465 147 533.5 113 c 0
 602 79 602 79 686 79 c 0,10,11
 774 79 774 79 841.5 107.5 c 0
 909 136 909 136 950 182.5 c 0
 991 229 991 229 1017 295 c 0
 1043 361 1043 361 1052.5 428 c 0
 1062 495 1062 495 1062 573 c 0,12,13
 1062 661 1062 661 1048 745 c 0
 1034 829 1034 829 1002 907.5 c 0
 970 986 970 986 924.5 1045.5 c 0
 879 1105 879 1105 810 1140.5 c 0
 741 1176 741 1176 658 1176 c 0,14,15
 283 1176 283 1176 283 676 c 0,8,9
527 1664 m 1,16,-1
 642 1702 l 1,17,-1
 774 1368 l 1,18,-1
 717 1334 l 1,19,-1
 527 1664 l 1,16,-1
EndSplineSet
Fore
SplineSet
652 1725 m 1,0,-1
 767 1763 l 1,1,-1
 899 1430 l 1,2,-1
 843 1395 l 1,3,-1
 652 1725 l 1,0,-1
1297 725 m 0,4,5
 1297 574 1297 574 1248.5 439.5 c 128,-1,6
 1200 305 1200 305 1110 200.5 c 128,-1,7
 1020 96 1020 96 879.5 35 c 128,-1,8
 739 -26 739 -26 568 -26 c 0,9,10
 438 -26 438 -26 338 16 c 128,-1,11
 238 58 238 58 176.5 132 c 128,-1,12
 115 206 115 206 84.5 303 c 128,-1,13
 54 400 54 400 54 515 c 0,14,15
 54 737 54 737 140.5 908 c 128,-1,16
 227 1079 227 1079 393 1176 c 128,-1,17
 559 1273 559 1273 782 1273 c 0,18,19
 909 1273 909 1273 1009 1228.5 c 128,-1,20
 1109 1184 1109 1184 1171 1107.5 c 128,-1,21
 1233 1031 1233 1031 1265 933.5 c 128,-1,22
 1297 836 1297 836 1297 725 c 0,4,5
737 1176 m 0,23,24
 669 1176 669 1176 612 1162.5 c 128,-1,25
 555 1149 555 1149 512 1126 c 128,-1,26
 469 1103 469 1103 434.5 1068.5 c 128,-1,27
 400 1034 400 1034 376.5 997 c 128,-1,28
 353 960 353 960 335.5 913 c 128,-1,29
 318 866 318 866 308 823 c 128,-1,30
 298 780 298 780 292.5 728 c 128,-1,31
 287 676 287 676 285 635.5 c 128,-1,32
 283 595 283 595 283 547 c 0,33,34
 283 457 283 457 303 375 c 128,-1,35
 323 293 323 293 362.5 226 c 128,-1,36
 402 159 402 159 467 119 c 128,-1,37
 532 79 532 79 614 79 c 0,38,39
 699 79 699 79 768.5 101.5 c 128,-1,40
 838 124 838 124 885 160.5 c 128,-1,41
 932 197 932 197 967 250 c 128,-1,42
 1002 303 1002 303 1022 356 c 128,-1,43
 1042 409 1042 409 1054 473 c 128,-1,44
 1066 537 1066 537 1069.5 587.5 c 128,-1,45
 1073 638 1073 638 1073 693 c 0,46,47
 1073 782 1073 782 1052.5 866 c 128,-1,48
 1032 950 1032 950 992 1020.5 c 128,-1,49
 952 1091 952 1091 886 1133.5 c 128,-1,50
 820 1176 820 1176 737 1176 c 0,23,24
EndSplineSet
Colour: ffff
EndChar

StartChar: Oacute
Encoding: 146 211 119
Width: 1344
VWidth: 0
Flags: MW
LayerCount: 2
Back
SplineSet
73 619 m 0,0,1
 73 911 73 911 248 1091.5 c 0
 423 1272 423 1272 718 1272 c 0,2,3
 850 1272 850 1272 960.5 1219.5 c 0
 1071 1167 1071 1167 1143.5 1077 c 0
 1216 987 1216 987 1256 869 c 0
 1296 751 1296 751 1296 619 c 0,4,5
 1296 489 1296 489 1252.5 372.5 c 0
 1209 256 1209 256 1129 167 c 0
 1049 78 1049 78 924.5 25.5 c 0
 800 -27 800 -27 649 -27 c 0,6,7
 480 -27 480 -27 347.5 59 c 0
 215 145 215 145 144 292 c 0
 73 439 73 439 73 619 c 0,0,1
295 676 m 0,8,9
 295 585 295 585 309 501 c 0
 323 417 323 417 354.5 339.5 c 0
 386 262 386 262 431.5 204.5 c 0
 477 147 477 147 545.5 113 c 0
 614 79 614 79 698 79 c 0,10,11
 786 79 786 79 853.5 107.5 c 0
 921 136 921 136 961.5 182.5 c 0
 1002 229 1002 229 1028 295 c 0
 1054 361 1054 361 1063.5 428 c 0
 1073 495 1073 495 1073 573 c 0,12,13
 1073 661 1073 661 1059 744.5 c 0
 1045 828 1045 828 1013.5 907 c 0
 982 986 982 986 936 1045.5 c 0
 890 1105 890 1105 821.5 1140.5 c 0
 753 1176 753 1176 670 1176 c 0,14,15
 295 1176 295 1176 295 676 c 0,8,9
574 1380 m 1,16,-1
 696 1705 l 1,17,-1
 808 1666 l 1,18,-1
 624 1348 l 1,19,-1
 574 1380 l 1,16,-1
EndSplineSet
Fore
SplineSet
743 1427 m 1,0,-1
 866 1752 l 1,1,-1
 977 1713 l 1,2,-1
 794 1395 l 1,3,-1
 743 1427 l 1,0,-1
1297 725 m 0,4,5
 1297 574 1297 574 1248.5 439.5 c 128,-1,6
 1200 305 1200 305 1110 200.5 c 128,-1,7
 1020 96 1020 96 879.5 35 c 128,-1,8
 739 -26 739 -26 568 -26 c 0,9,10
 438 -26 438 -26 338 16 c 128,-1,11
 238 58 238 58 176.5 132 c 128,-1,12
 115 206 115 206 84.5 303 c 128,-1,13
 54 400 54 400 54 515 c 0,14,15
 54 737 54 737 140.5 908 c 128,-1,16
 227 1079 227 1079 393 1176 c 128,-1,17
 559 1273 559 1273 782 1273 c 0,18,19
 909 1273 909 1273 1009 1228.5 c 128,-1,20
 1109 1184 1109 1184 1171 1107.5 c 128,-1,21
 1233 1031 1233 1031 1265 933.5 c 128,-1,22
 1297 836 1297 836 1297 725 c 0,4,5
737 1176 m 0,23,24
 669 1176 669 1176 612 1162.5 c 128,-1,25
 555 1149 555 1149 512 1126 c 128,-1,26
 469 1103 469 1103 434.5 1068.5 c 128,-1,27
 400 1034 400 1034 376.5 997 c 128,-1,28
 353 960 353 960 335.5 913 c 128,-1,29
 318 866 318 866 308 823 c 128,-1,30
 298 780 298 780 292.5 728 c 128,-1,31
 287 676 287 676 285 635.5 c 128,-1,32
 283 595 283 595 283 547 c 0,33,34
 283 457 283 457 303 375 c 128,-1,35
 323 293 323 293 362.5 226 c 128,-1,36
 402 159 402 159 467 119 c 128,-1,37
 532 79 532 79 614 79 c 0,38,39
 699 79 699 79 768.5 101.5 c 128,-1,40
 838 124 838 124 885 160.5 c 128,-1,41
 932 197 932 197 967 250 c 128,-1,42
 1002 303 1002 303 1022 356 c 128,-1,43
 1042 409 1042 409 1054 473 c 128,-1,44
 1066 537 1066 537 1069.5 587.5 c 128,-1,45
 1073 638 1073 638 1073 693 c 0,46,47
 1073 782 1073 782 1052.5 866 c 128,-1,48
 1032 950 1032 950 992 1020.5 c 128,-1,49
 952 1091 952 1091 886 1133.5 c 128,-1,50
 820 1176 820 1176 737 1176 c 0,23,24
EndSplineSet
Colour: ffff
EndChar

StartChar: Ocircumflex
Encoding: 147 212 120
Width: 1344
VWidth: 0
Flags: MW
LayerCount: 2
Back
SplineSet
61 619 m 0,0,1
 61 911 61 911 236 1091.5 c 0
 411 1272 411 1272 706 1272 c 0,2,3
 838 1272 838 1272 948.5 1219.5 c 0
 1059 1167 1059 1167 1131.5 1077 c 0
 1204 987 1204 987 1244 869 c 0
 1284 751 1284 751 1284 619 c 0,4,5
 1284 489 1284 489 1240.5 372.5 c 0
 1197 256 1197 256 1116.5 167 c 0
 1036 78 1036 78 911.5 25.5 c 0
 787 -27 787 -27 636 -27 c 0,6,7
 467 -27 467 -27 335 59 c 0
 203 145 203 145 132 292 c 0
 61 439 61 439 61 619 c 0,0,1
283 676 m 0,8,9
 283 585 283 585 297 501 c 0
 311 417 311 417 342.5 339.5 c 0
 374 262 374 262 419.5 204.5 c 0
 465 147 465 147 533.5 113 c 0
 602 79 602 79 686 79 c 0,10,11
 774 79 774 79 841.5 107.5 c 0
 909 136 909 136 950 182.5 c 0
 991 229 991 229 1017 295 c 0
 1043 361 1043 361 1052.5 428 c 0
 1062 495 1062 495 1062 573 c 0,12,13
 1062 661 1062 661 1048 745 c 0
 1034 829 1034 829 1002 907.5 c 0
 970 986 970 986 924.5 1045.5 c 0
 879 1105 879 1105 810 1140.5 c 0
 741 1176 741 1176 658 1176 c 0,14,15
 283 1176 283 1176 283 676 c 0,8,9
484 1392 m 1,16,-1
 652 1572 l 1,17,-1
 707 1585 l 1,18,-1
 885 1400 l 1,19,-1
 836 1364 l 1,20,-1
 672 1472 l 1,21,-1
 662 1472 l 1,22,-1
 522 1361 l 1,23,-1
 484 1392 l 1,16,-1
EndSplineSet
Fore
SplineSet
680 1425 m 1,0,-1
 848 1604 l 1,1,-1
 903 1619 l 1,2,-1
 1081 1433 l 1,3,-1
 1032 1396 l 1,4,-1
 869 1506 l 1,5,-1
 858 1506 l 1,6,-1
 719 1395 l 1,7,-1
 680 1425 l 1,0,-1
1297 725 m 0,8,9
 1297 574 1297 574 1248.5 439.5 c 128,-1,10
 1200 305 1200 305 1110 200.5 c 128,-1,11
 1020 96 1020 96 879.5 35 c 128,-1,12
 739 -26 739 -26 568 -26 c 0,13,14
 438 -26 438 -26 338 16 c 128,-1,15
 238 58 238 58 176.5 132 c 128,-1,16
 115 206 115 206 84.5 303 c 128,-1,17
 54 400 54 400 54 515 c 0,18,19
 54 737 54 737 140.5 908 c 128,-1,20
 227 1079 227 1079 393 1176 c 128,-1,21
 559 1273 559 1273 782 1273 c 0,22,23
 909 1273 909 1273 1009 1228.5 c 128,-1,24
 1109 1184 1109 1184 1171 1107.5 c 128,-1,25
 1233 1031 1233 1031 1265 933.5 c 128,-1,26
 1297 836 1297 836 1297 725 c 0,8,9
737 1176 m 0,27,28
 669 1176 669 1176 612 1162.5 c 128,-1,29
 555 1149 555 1149 512 1126 c 128,-1,30
 469 1103 469 1103 434.5 1068.5 c 128,-1,31
 400 1034 400 1034 376.5 997 c 128,-1,32
 353 960 353 960 335.5 913 c 128,-1,33
 318 866 318 866 308 823 c 128,-1,34
 298 780 298 780 292.5 728 c 128,-1,35
 287 676 287 676 285 635.5 c 128,-1,36
 283 595 283 595 283 547 c 0,37,38
 283 457 283 457 303 375 c 128,-1,39
 323 293 323 293 362.5 226 c 128,-1,40
 402 159 402 159 467 119 c 128,-1,41
 532 79 532 79 614 79 c 0,42,43
 699 79 699 79 768.5 101.5 c 128,-1,44
 838 124 838 124 885 160.5 c 128,-1,45
 932 197 932 197 967 250 c 128,-1,46
 1002 303 1002 303 1022 356 c 128,-1,47
 1042 409 1042 409 1054 473 c 128,-1,48
 1066 537 1066 537 1069.5 587.5 c 128,-1,49
 1073 638 1073 638 1073 693 c 0,50,51
 1073 782 1073 782 1052.5 866 c 128,-1,52
 1032 950 1032 950 992 1020.5 c 128,-1,53
 952 1091 952 1091 886 1133.5 c 128,-1,54
 820 1176 820 1176 737 1176 c 0,27,28
EndSplineSet
Colour: ffff
EndChar

StartChar: Otilde
Encoding: 148 213 121
Width: 1344
VWidth: 0
Flags: MW
LayerCount: 2
Back
SplineSet
61 619 m 0,0,1
 61 911 61 911 236 1091.5 c 0
 411 1272 411 1272 706 1272 c 0,2,3
 838 1272 838 1272 948.5 1219.5 c 0
 1059 1167 1059 1167 1131.5 1077 c 0
 1204 987 1204 987 1244 869 c 0
 1284 751 1284 751 1284 619 c 0,4,5
 1284 489 1284 489 1240.5 372.5 c 0
 1197 256 1197 256 1116.5 167 c 0
 1036 78 1036 78 911.5 25.5 c 0
 787 -27 787 -27 636 -27 c 0,6,7
 467 -27 467 -27 335 59 c 0
 203 145 203 145 132 292 c 0
 61 439 61 439 61 619 c 0,0,1
283 676 m 0,8,9
 283 585 283 585 297 501 c 0
 311 417 311 417 342.5 339.5 c 0
 374 262 374 262 419.5 204.5 c 0
 465 147 465 147 533.5 113 c 0
 602 79 602 79 686 79 c 0,10,11
 774 79 774 79 841.5 107.5 c 0
 909 136 909 136 950 182.5 c 0
 991 229 991 229 1017 295 c 0
 1043 361 1043 361 1052.5 428 c 0
 1062 495 1062 495 1062 573 c 0,12,13
 1062 661 1062 661 1048 745 c 0
 1034 829 1034 829 1002 907.5 c 0
 970 986 970 986 924.5 1045.5 c 0
 879 1105 879 1105 810 1140.5 c 0
 741 1176 741 1176 658 1176 c 0,14,15
 283 1176 283 1176 283 676 c 0,8,9
448 1383 m 1,16,17
 449 1389 449 1389 452 1398.5 c 0
 455 1408 455 1408 465 1432.5 c 0
 475 1457 475 1457 487.5 1476 c 0
 500 1495 500 1495 521.5 1510.5 c 0
 543 1526 543 1526 568 1526 c 2,18,19
 581 1526 l 1,20,-1
 805 1496 l 1,21,-1
 810 1496 l 2,22,23
 821 1496 821 1496 835 1506 c 0
 849 1516 849 1516 857.5 1526 c 2
 866 1536 l 1,24,-1
 913 1535 l 1,25,26
 911 1529 911 1529 908 1519.5 c 0
 905 1510 905 1510 893.5 1485 c 0
 882 1460 882 1460 868.5 1441 c 0
 855 1422 855 1422 832 1406.5 c 0
 809 1391 809 1391 783 1391 c 0,27,28
 775 1391 775 1391 771 1392 c 2,29,-1
 547 1423 l 1,30,-1
 546 1423 l 2,31,32
 534 1423 534 1423 518.5 1411.5 c 0
 503 1400 503 1400 494 1388 c 2
 485 1376 l 1,33,-1
 448 1383 l 1,16,17
EndSplineSet
Fore
SplineSet
654 1404 m 1,0,1
 656 1410 656 1410 659 1420.5 c 128,-1,2
 662 1431 662 1431 674.5 1457 c 128,-1,3
 687 1483 687 1483 701 1502 c 128,-1,4
 715 1521 715 1521 739 1535 c 128,-1,5
 763 1549 763 1549 790 1546 c 2,6,-1
 1016 1517 l 2,7,8
 1027 1516 1027 1516 1041 1526 c 128,-1,9
 1055 1536 1055 1536 1064 1546 c 2,10,-1
 1072 1557 l 1,11,-1
 1121 1555 l 1,12,13
 1119 1549 1119 1549 1115.5 1538.5 c 128,-1,14
 1112 1528 1112 1528 1098.5 1501.5 c 128,-1,15
 1085 1475 1085 1475 1070 1456 c 128,-1,16
 1055 1437 1055 1437 1029.5 1422.5 c 128,-1,17
 1004 1408 1004 1408 977 1412 c 2,18,-1
 752 1444 l 2,19,20
 740 1446 740 1446 725 1433.5 c 128,-1,21
 710 1421 710 1421 702 1408 c 2,22,-1
 693 1395 l 1,23,-1
 654 1404 l 1,0,1
1297 725 m 0,24,25
 1297 574 1297 574 1248.5 439.5 c 128,-1,26
 1200 305 1200 305 1110 200.5 c 128,-1,27
 1020 96 1020 96 879.5 35 c 128,-1,28
 739 -26 739 -26 568 -26 c 0,29,30
 438 -26 438 -26 338 16 c 128,-1,31
 238 58 238 58 176.5 132 c 128,-1,32
 115 206 115 206 84.5 303 c 128,-1,33
 54 400 54 400 54 515 c 0,34,35
 54 737 54 737 140.5 908 c 128,-1,36
 227 1079 227 1079 393 1176 c 128,-1,37
 559 1273 559 1273 782 1273 c 0,38,39
 909 1273 909 1273 1009 1228.5 c 128,-1,40
 1109 1184 1109 1184 1171 1107.5 c 128,-1,41
 1233 1031 1233 1031 1265 933.5 c 128,-1,42
 1297 836 1297 836 1297 725 c 0,24,25
737 1176 m 0,43,44
 669 1176 669 1176 612 1162.5 c 128,-1,45
 555 1149 555 1149 512 1126 c 128,-1,46
 469 1103 469 1103 434.5 1068.5 c 128,-1,47
 400 1034 400 1034 376.5 997 c 128,-1,48
 353 960 353 960 335.5 913 c 128,-1,49
 318 866 318 866 308 823 c 128,-1,50
 298 780 298 780 292.5 728 c 128,-1,51
 287 676 287 676 285 635.5 c 128,-1,52
 283 595 283 595 283 547 c 0,53,54
 283 457 283 457 303 375 c 128,-1,55
 323 293 323 293 362.5 226 c 128,-1,56
 402 159 402 159 467 119 c 128,-1,57
 532 79 532 79 614 79 c 0,58,59
 699 79 699 79 768.5 101.5 c 128,-1,60
 838 124 838 124 885 160.5 c 128,-1,61
 932 197 932 197 967 250 c 128,-1,62
 1002 303 1002 303 1022 356 c 128,-1,63
 1042 409 1042 409 1054 473 c 128,-1,64
 1066 537 1066 537 1069.5 587.5 c 128,-1,65
 1073 638 1073 638 1073 693 c 0,66,67
 1073 782 1073 782 1052.5 866 c 128,-1,68
 1032 950 1032 950 992 1020.5 c 128,-1,69
 952 1091 952 1091 886 1133.5 c 128,-1,70
 820 1176 820 1176 737 1176 c 0,43,44
EndSplineSet
Colour: ffff
EndChar

StartChar: Odieresis
Encoding: 149 214 122
Width: 1344
VWidth: 0
Flags: MW
LayerCount: 2
Back
SplineSet
61 619 m 0,0,1
 61 911 61 911 236 1091.5 c 0
 411 1272 411 1272 706 1272 c 0,2,3
 838 1272 838 1272 948.5 1219.5 c 0
 1059 1167 1059 1167 1131.5 1077 c 0
 1204 987 1204 987 1244 869 c 0
 1284 751 1284 751 1284 619 c 0,4,5
 1284 489 1284 489 1240.5 372.5 c 0
 1197 256 1197 256 1116.5 167 c 0
 1036 78 1036 78 911.5 25.5 c 0
 787 -27 787 -27 636 -27 c 0,6,7
 467 -27 467 -27 335 59 c 0
 203 145 203 145 132 292 c 0
 61 439 61 439 61 619 c 0,0,1
283 676 m 0,8,9
 283 585 283 585 297 501 c 0
 311 417 311 417 342.5 339.5 c 0
 374 262 374 262 419.5 204.5 c 0
 465 147 465 147 533.5 113 c 0
 602 79 602 79 686 79 c 0,10,11
 774 79 774 79 841.5 107.5 c 0
 909 136 909 136 950 182.5 c 0
 991 229 991 229 1017 295 c 0
 1043 361 1043 361 1052.5 428 c 0
 1062 495 1062 495 1062 573 c 0,12,13
 1062 661 1062 661 1048 745 c 0
 1034 829 1034 829 1002 907.5 c 0
 970 986 970 986 924.5 1045.5 c 0
 879 1105 879 1105 810 1140.5 c 0
 741 1176 741 1176 658 1176 c 0,14,15
 283 1176 283 1176 283 676 c 0,8,9
463 1453 m 0,16,17
 463 1487 463 1487 489 1508.5 c 0
 515 1530 515 1530 547 1530 c 0,18,19
 581 1530 581 1530 606.5 1508 c 0
 632 1486 632 1486 632 1453 c 0,20,21
 632 1418 632 1418 606.5 1395.5 c 0
 581 1373 581 1373 547 1373 c 0,22,23
 513 1373 513 1373 488 1395.5 c 0
 463 1418 463 1418 463 1453 c 0,16,17
730 1453 m 0,24,25
 730 1487 730 1487 756 1508.5 c 0
 782 1530 782 1530 814 1530 c 0,26,27
 849 1530 849 1530 875.5 1508 c 0
 902 1486 902 1486 902 1453 c 0,28,29
 902 1418 902 1418 875.5 1395.5 c 0
 849 1373 849 1373 814 1373 c 0,30,31
 780 1373 780 1373 755 1395.5 c 0
 730 1418 730 1418 730 1453 c 0,24,25
EndSplineSet
Fore
SplineSet
505 1553 m 0,0,1
 540 1553 540 1553 561 1531.5 c 128,-1,2
 582 1510 582 1510 577 1476 c 0,3,4
 571 1440 571 1440 543 1417.5 c 128,-1,5
 515 1395 515 1395 480 1395 c 0,6,7
 446 1395 446 1395 423.5 1417.5 c 128,-1,8
 401 1440 401 1440 407 1476 c 0,9,10
 413 1510 413 1510 442.5 1531.5 c 128,-1,11
 472 1553 472 1553 505 1553 c 0,0,1
772 1553 m 0,12,13
 807 1553 807 1553 829 1531.5 c 128,-1,14
 851 1510 851 1510 846 1476 c 0,15,16
 840 1440 840 1440 811 1417.5 c 128,-1,17
 782 1395 782 1395 747 1395 c 0,18,19
 713 1395 713 1395 691 1417.5 c 128,-1,20
 669 1440 669 1440 675 1476 c 0,21,22
 681 1510 681 1510 710 1531.5 c 128,-1,23
 739 1553 739 1553 772 1553 c 0,12,13
1297 725 m 0,24,25
 1297 574 1297 574 1248.5 439.5 c 128,-1,26
 1200 305 1200 305 1110 200.5 c 128,-1,27
 1020 96 1020 96 879.5 35 c 128,-1,28
 739 -26 739 -26 568 -26 c 0,29,30
 438 -26 438 -26 338 16 c 128,-1,31
 238 58 238 58 176.5 132 c 128,-1,32
 115 206 115 206 84.5 303 c 128,-1,33
 54 400 54 400 54 515 c 0,34,35
 54 737 54 737 140.5 908 c 128,-1,36
 227 1079 227 1079 393 1176 c 128,-1,37
 559 1273 559 1273 782 1273 c 0,38,39
 909 1273 909 1273 1009 1228.5 c 128,-1,40
 1109 1184 1109 1184 1171 1107.5 c 128,-1,41
 1233 1031 1233 1031 1265 933.5 c 128,-1,42
 1297 836 1297 836 1297 725 c 0,24,25
737 1176 m 0,43,44
 669 1176 669 1176 612 1162.5 c 128,-1,45
 555 1149 555 1149 512 1126 c 128,-1,46
 469 1103 469 1103 434.5 1068.5 c 128,-1,47
 400 1034 400 1034 376.5 997 c 128,-1,48
 353 960 353 960 335.5 913 c 128,-1,49
 318 866 318 866 308 823 c 128,-1,50
 298 780 298 780 292.5 728 c 128,-1,51
 287 676 287 676 285 635.5 c 128,-1,52
 283 595 283 595 283 547 c 0,53,54
 283 457 283 457 303 375 c 128,-1,55
 323 293 323 293 362.5 226 c 128,-1,56
 402 159 402 159 467 119 c 128,-1,57
 532 79 532 79 614 79 c 0,58,59
 699 79 699 79 768.5 101.5 c 128,-1,60
 838 124 838 124 885 160.5 c 128,-1,61
 932 197 932 197 967 250 c 128,-1,62
 1002 303 1002 303 1022 356 c 128,-1,63
 1042 409 1042 409 1054 473 c 128,-1,64
 1066 537 1066 537 1069.5 587.5 c 128,-1,65
 1073 638 1073 638 1073 693 c 0,66,67
 1073 782 1073 782 1052.5 866 c 128,-1,68
 1032 950 1032 950 992 1020.5 c 128,-1,69
 952 1091 952 1091 886 1133.5 c 128,-1,70
 820 1176 820 1176 737 1176 c 0,43,44
EndSplineSet
Colour: ffff
EndChar

StartChar: Ugrave
Encoding: 152 217 123
Width: 1458
VWidth: 0
Flags: MW
LayerCount: 2
Back
SplineSet
475 1659 m 1,0,-1
 590 1697 l 1,1,-1
 722 1364 l 1,2,-1
 666 1329 l 1,3,-1
 475 1659 l 1,0,-1
37 1168 m 1,4,-1
 50 1244 l 1,5,-1
 592 1244 l 1,6,-1
 583 1168 l 1,7,-1
 414 1130 l 1,8,-1
 414 510 l 2,9,10
 414 304 414 304 507.5 204.5 c 0
 601 105 601 105 762 105 c 0,11,12
 918 105 918 105 1002 198 c 0
 1086 291 1086 291 1087 482 c 2,13,-1
 1090 1126 l 1,14,-1
 907 1168 l 1,15,-1
 917 1244 l 1,16,-1
 1395 1244 l 1,17,-1
 1384 1168 l 1,18,-1
 1218 1130 l 1,19,-1
 1213 515 l 2,20,21
 1211 241 1211 241 1090 107 c 0
 969 -27 969 -27 712 -27 c 0,22,23
 635 -27 635 -27 571.5 -16.5 c 0
 508 -6 508 -6 440.5 26.5 c 0
 373 59 373 59 326.5 112 c 0
 280 165 280 165 250.5 256 c 0
 221 347 221 347 221 469 c 2,24,-1
 221 1126 l 1,25,-1
 37 1168 l 1,4,-1
EndSplineSet
Fore
SplineSet
678 1725 m 1,0,-1
 793 1763 l 1,1,-1
 925 1430 l 1,2,-1
 869 1395 l 1,3,-1
 678 1725 l 1,0,-1
603 92 m 0,4,5
 689 92 689 92 756 118.5 c 128,-1,6
 823 145 823 145 862 183 c 128,-1,7
 901 221 901 221 929.5 278.5 c 128,-1,8
 958 336 958 336 969.5 380 c 128,-1,9
 981 424 981 424 990 481 c 2,10,-1
 1092 1126 l 1,11,-1
 917 1168 l 1,12,-1
 937 1244 l 1,13,-1
 1416 1244 l 1,14,-1
 1394 1168 l 1,15,-1
 1221 1130 l 1,16,-1
 1117 499 l 2,17,18
 1030 -26 1030 -26 517 -26 c 0,19,20
 479 -26 479 -26 443.5 -22 c 128,-1,21
 408 -18 408 -18 367 -8 c 128,-1,22
 326 2 326 2 292.5 19.5 c 128,-1,23
 259 37 259 37 225 63.5 c 128,-1,24
 191 90 191 90 169 127 c 128,-1,25
 147 164 147 164 130 214 c 128,-1,26
 113 264 113 264 113 327 c 128,-1,27
 113 390 113 390 123 469 c 1,28,-1
 227 1126 l 1,29,-1
 47 1168 l 1,30,-1
 70 1244 l 1,31,-1
 611 1244 l 1,32,-1
 592 1168 l 1,33,-1
 417 1130 l 1,34,-1
 317 494 l 2,35,36
 285 288 285 288 363 190 c 128,-1,37
 441 92 441 92 603 92 c 0,4,5
EndSplineSet
Colour: ffff
EndChar

